<?xml version="1.0" standalone="no"?>
<!DOCTYPE svg PUBLIC "-//W3C//DTD SVG 1.1//EN" "http://www.w3.org/Graphics/SVG/1.1/DTD/svg11.dtd" >
<svg>
<metadata>
Created by FontForge 20110222 at Wed Nov  6 05:48:53 2013
 By Orthosie Webhosting
Copyright (c) 2002, 2005 Parachute :, www.parachute.gr.  All rights reserved.
</metadata>
<defs>
<font id="PFDinDisplayProThin" horiz-adv-x="1818" >
  <font-face 
    font-family="PFDinDisplayProThin"
    font-weight="200"
    font-stretch="normal"
    units-per-em="1000"
    panose-1="2 0 5 6 0 0 0 2 0 4"
    ascent="750"
    descent="-250"
    x-height="490"
    cap-height="689"
    bbox="-157 -240 1760 913"
    underline-thickness="50"
    underline-position="-50"
    unicode-range="U+0020-FB05"
  />
<missing-glyph horiz-adv-x="432" 
d="M0 700h432v-700h-432v700zM376 669h-320l160 -291zM402 49v604l-166 -303zM376 31l-160 291l-160 -291h320zM30 51l166 299l-166 300v-599z" />
    <glyph glyph-name="fj" unicode="fj" horiz-adv-x="424" 
d="M310 450h-174v-450h-45v450h-60v42h60v109q0 59 33.5 88.5t80.5 29.5h67v-42h-58q-24 0 -39 -7t-24 -18.5t-12 -27.5t-3 -34v-98h219v-579q0 -64 -27.5 -93t-83.5 -29h-38v41h31q41 0 57 19t16 70v529zM365 662q0 -14 -9.5 -23t-23.5 -9q-13 0 -22 9t-9 23t9 23.5t22 9.5
q14 0 23.5 -9.5t9.5 -23.5z" />
    <glyph glyph-name="ffj" unicode="ffj" horiz-adv-x="642" 
d="M528 450h-174v-450h-45v450h-173v-450h-45v450h-60v42h60v89q0 59 33.5 88.5t80.5 29.5h61v-42h-52q-24 0 -39 -7t-24 -18.5t-12 -27.5t-3 -34v-78h173v109q0 59 33.5 88.5t80.5 29.5h66v-42h-57q-24 0 -39 -7t-24 -18.5t-12 -27.5t-3 -34v-98h219v-579q0 -64 -27.5 -93
t-83.5 -29h-38v41h31q40 0 56.5 19t16.5 70v529zM583 662q0 -14 -9.5 -23t-23.5 -9q-13 0 -22.5 9t-9.5 23t9.5 23.5t22.5 9.5q14 0 23.5 -9.5t9.5 -23.5z" />
    <glyph glyph-name="ff" unicode="ff" horiz-adv-x="500" 
d="M355 450v-450h-46v450h-173v-450h-45v450h-60v42h60v89q0 60 33 89t81 29h72v-41h-63q-24 0 -39 -7t-24 -18.5t-12 -27.5t-3 -34v-79h173v109q0 30 9 52t24.5 37t36.5 22t44 7h72v-41h-63q-24 0 -39 -7t-23.5 -18.5t-11.5 -27.5t-3 -34v-99h140v-42h-140z" />
    <glyph glyph-name="fi" unicode="fi" horiz-adv-x="424" 
d="M310 0v450h-174v-450h-45v450h-60v42h60v109q0 59 33.5 88.5t80.5 29.5h67v-42h-58q-24 0 -39 -7t-24 -18.5t-12 -27.5t-3 -34v-98h219v-492h-45zM365 662q0 -14 -9.5 -23t-23.5 -9q-13 0 -22 9t-9 23t9 23.5t22 9.5q14 0 23.5 -9.5t9.5 -23.5z" />
    <glyph glyph-name="fl" unicode="fl" horiz-adv-x="468" 
d="M353 113q0 -47 17.5 -61.5t59.5 -12.5l2 -41q-9 -2 -16.5 -2h-15.5q-51 0 -71 27.5t-20 82.5v565q-20 8 -41 11t-41 3q-48 0 -70 -20.5t-22 -68.5v-105h119v-41h-119v-450h-44v450h-61v41h61v107q0 37 11 61.5t30 39.5t43 21.5t51 6.5q24 0 53 -3.5t74 -16.5v-594z" />
    <glyph glyph-name="ffi" unicode="ffi" horiz-adv-x="642" 
d="M528 0v450h-174v-450h-45v450h-173v-450h-45v450h-60v42h60v89q0 59 33.5 88.5t80.5 29.5h61v-42h-52q-24 0 -39 -7t-24 -18.5t-12 -27.5t-3 -34v-78h173v109q0 59 33.5 88.5t80.5 29.5h66v-42h-57q-24 0 -39 -7t-24 -18.5t-12 -27.5t-3 -34v-98h219v-492h-45zM583 662
q0 -14 -9.5 -23t-23.5 -9q-13 0 -22.5 9t-9.5 23t9.5 23.5t22.5 9.5q14 0 23.5 -9.5t9.5 -23.5z" />
    <glyph glyph-name="ffl" unicode="ffl" horiz-adv-x="686" 
d="M571 113q0 -47 17.5 -61.5t59.5 -12.5l2 -41q-9 -2 -16.5 -2h-15.5q-51 0 -71 27.5t-20 82.5v565q-20 8 -41 11t-41 3q-48 0 -70 -20.5t-22 -68.5v-105h119v-41h-119v-450h-45v450h-173v-450h-44v450h-61v41h61v91q0 59 33 88t80 29h67v-41h-57q-24 0 -39.5 -7
t-24.5 -18.5t-12 -27.5t-3 -34v-80h173v107q0 37 11 61.5t30 39.5t43.5 21.5t50.5 6.5q25 0 54 -3.5t74 -16.5v-594z" />
    <glyph glyph-name="ft" unicode="ft" horiz-adv-x="537" 
d="M523 5q-23 -7 -48 -8.5t-37 -1.5q-73 0 -100.5 33.5t-27.5 109.5v312h-174v-450h-45v450h-60v42h60v109q0 60 33 89t81 29h65v-41h-56q-24 0 -39 -7t-24 -18.5t-12 -27.5t-3 -34v-99h175l13 116h31v-116h146v-42h-146v-299q0 -63 18.5 -88.5t70.5 -25.5q13 0 32 1.5
t39 5.5z" />
    <glyph glyph-name=".notdef" horiz-adv-x="432" 
d="M0 700h432v-700h-432v700zM376 669h-320l160 -291zM402 49v604l-166 -303zM376 31l-160 291l-160 -291h320zM30 51l166 299l-166 300v-599z" />
    <glyph glyph-name=".null" horiz-adv-x="0" 
 />
    <glyph glyph-name="nonmarkingreturn" horiz-adv-x="333" 
 />
    <glyph glyph-name="space" unicode=" " horiz-adv-x="205" 
 />
    <glyph glyph-name="exclam" unicode="!" horiz-adv-x="211" 
d="M68 35q0 14 10 25t27 11t28 -11t11 -25q0 -17 -10.5 -27t-27.5 -10q-18 0 -28 10t-10 27zM86 152q0 63 -1 132t-1.5 139t-1.5 139.5t-2 133.5h49q0 -64 -1 -133.5t-1.5 -139.5t-1.5 -139t-2 -132h-37z" />
    <glyph glyph-name="quotedbl" unicode="&#x22;" horiz-adv-x="246" 
d="M152 519v177h37v-177h-37zM57 519v177h37v-177h-37z" />
    <glyph glyph-name="numbersign" unicode="#" horiz-adv-x="491" 
d="M363 441l-26 -183h103v-35h-107l-30 -223h-39l31 223h-144l-31 -223h-39l31 223h-96v35h101l25 183h-97v35h103l30 219h36l-29 -219h145l31 219h37l-30 -219h100v-35h-105zM180 441l-24 -183h144l25 183h-145z" />
    <glyph glyph-name="dollar" unicode="$" horiz-adv-x="473" 
d="M250 689q45 -2 88.5 -12t82.5 -32l-20 -40q-77 42 -168 42q-29 0 -56 -8t-48 -25.5t-34 -44t-13 -63.5q0 -35 15 -58.5t39.5 -39t54.5 -24.5t60 -16q43 -9 80.5 -22t65 -34t43 -53t15.5 -80q0 -42 -15 -75t-42 -56.5t-64.5 -37t-83.5 -14.5v-92h-36v93q-106 4 -191 65
l24 37q42 -28 91 -44.5t101 -16.5q36 0 67 9t53.5 27t35.5 44t13 61q0 39 -15 64.5t-39 42t-55 25.5t-62 15q-36 7 -72.5 19t-65 32.5t-46.5 52t-18 78.5q0 38 13 69.5t36.5 55t56.5 38t73 17.5v85h36v-84z" />
    <glyph glyph-name="percent" unicode="%" horiz-adv-x="760" 
d="M310 385q0 -24 -10 -44t-27.5 -35t-42 -23t-53.5 -8q-59 0 -96 31t-37 79v199q0 24 10.5 44t28.5 34.5t42 23t52 8.5q29 0 53.5 -8.5t42 -23t27.5 -34.5t10 -44v-199zM271 577q0 22 -9 37.5t-23 25t-30.5 13.5t-31.5 4t-31 -4t-30 -13.5t-23 -25t-9 -37.5v-186
q0 -22 9 -37.5t23 -25t30 -13.5t31 -4t31.5 4t30.5 13.5t23 25t9 37.5v186zM715 106q0 -24 -10 -44t-27.5 -35t-42 -23t-53.5 -8q-59 0 -96 31.5t-37 79.5v199q0 23 10.5 43t28.5 35t42 23.5t52 8.5q29 0 53.5 -8.5t42 -23.5t27.5 -35t10 -43v-200zM676 298q0 22 -9 37.5
t-23 25.5t-30.5 14t-31.5 4t-31 -4t-30 -14t-23 -25.5t-9 -37.5v-186q0 -22 9 -37.5t23 -25t30 -13.5t31 -4t31.5 4t30.5 13.5t23 25t9 37.5v186zM186 -17h-39l424 731h40z" />
    <glyph glyph-name="ampersand" unicode="&#x26;" horiz-adv-x="791" 
d="M726 -46q-47 21 -90.5 52.5t-80.5 66.5q-53 -41 -113 -61t-116 -20q-44 0 -81.5 11.5t-66 35t-44.5 59t-16 83.5q0 70 47 123t130 98q-34 45 -48 80.5t-14 64.5q0 28 9 53t26 44t41.5 30t55.5 11q30 0 55 -10t42.5 -27.5t27.5 -40.5t10 -48q0 -54 -39 -95.5t-106 -76.5
q19 -30 43.5 -63.5t51 -67.5t55 -67t55.5 -63q28 26 52 57.5t41.5 67t27.5 75t10 81.5q0 69 -20.5 132t-61 111t-100 76.5t-138.5 28.5q-64 0 -117.5 -20t-92.5 -54t-61 -79t-22 -94q0 -35 12 -72.5t38 -72.5l-31 -22q-29 40 -42.5 81.5t-13.5 83.5q0 56 24 107.5t67.5 91
t104 63t133.5 23.5q87 0 154 -31t112.5 -83.5t69 -122.5t23.5 -148q0 -47 -11 -90t-30.5 -82t-45.5 -72.5t-57 -61.5q40 -38 79.5 -67t79.5 -45zM458 559q0 19 -8 35.5t-21 28t-30 18t-35 6.5q-24 0 -41 -10t-27.5 -25t-15.5 -32t-5 -31q0 -28 16 -60.5t42 -68.5
q25 13 47.5 27.5t40 31t27.5 36.5t10 44zM530 100q-60 63 -114 134.5t-99 135.5q-33 -18 -62 -38t-50.5 -43t-34 -49.5t-12.5 -56.5q0 -40 13 -69t35.5 -48t52.5 -28.5t63 -9.5q48 0 102.5 17t105.5 55z" />
    <glyph glyph-name="quotesingle" unicode="'" horiz-adv-x="211" 
d="M90 519v177h38v-177h-38z" />
    <glyph glyph-name="parenleft" unicode="(" horiz-adv-x="262" 
d="M229 -119q-34 39 -63.5 87t-51.5 102t-35 112t-13 118q0 57 12 114.5t33 112t50.5 103.5t64.5 90l22 -13q-62 -88 -97 -193.5t-35 -208.5q0 -112 36 -218t96 -191l-19 -15v0z" />
    <glyph glyph-name="parenright" unicode=")" horiz-adv-x="262" 
d="M27 -106q60 85 95.5 191t35.5 218q0 104 -34.5 209t-96.5 193l21 13q36 -41 65.5 -90t50.5 -103.5t33 -112t12 -114.5q0 -59 -13 -117.5t-35 -112.5t-51.5 -102t-62.5 -87z" />
    <glyph glyph-name="asterisk" unicode="*" horiz-adv-x="343" 
d="M279 447q-5 -4 -18 -14t-18 -13l-69 108l-68 -109l-35 28l79 96q-5 1 -22.5 6.5t-38 11.5t-38 11.5t-21.5 6.5q2 5 6.5 20t6.5 21l118 -49l-8 125h42l-8 -125l119 49l13 -42l-121 -35z" />
    <glyph glyph-name="plus" unicode="+" horiz-adv-x="473" 
d="M255 261v-194h-37v194h-188v38h188v192h37v-192h188v-38h-188z" />
    <glyph glyph-name="comma" unicode="," horiz-adv-x="200" 
d="M60 33q0 16 12 26.5t29 10.5q21 0 33 -15.5t12 -39.5q0 -35 -20.5 -66t-49.5 -46l-16 20q39 29 41 72q-18 -1 -29.5 9.5t-11.5 28.5z" />
    <glyph glyph-name="hyphen" unicode="-" horiz-adv-x="370" 
d="M53 245v43h264v-43h-264z" />
    <glyph glyph-name="period" unicode="." horiz-adv-x="188" 
d="M55 36q0 14 10.5 25.5t29.5 11.5q17 0 28.5 -11.5t11.5 -25.5q0 -17 -10.5 -29t-29.5 -12t-29.5 11.5t-10.5 29.5z" />
    <glyph glyph-name="slash" unicode="/" horiz-adv-x="290" 
d="M41 -25h-39l245 743h39z" />
    <glyph glyph-name="zero" unicode="0" horiz-adv-x="473" 
d="M437 171q0 -39 -15.5 -71.5t-42.5 -56t-63.5 -36.5t-78.5 -13t-78.5 13.5t-63.5 37.5t-42.5 56.5t-15.5 71.5v344q0 39 16 71.5t43.5 56.5t63.5 37.5t77 13.5q42 0 78.5 -13.5t63.5 -37.5t42.5 -56.5t15.5 -71.5v-346zM392 504q0 41 -15 69.5t-38 46t-50.5 25.5t-51.5 8
t-51.5 -8t-50 -25.5t-37.5 -46t-15 -69.5v-320q0 -41 15 -69t37.5 -45.5t50 -25.5t51.5 -8t51.5 8t50.5 25.5t38 45.5t15 69v320z" />
    <glyph glyph-name="one" unicode="1" horiz-adv-x="473" 
d="M274 0v633l-117 -90q-4 5 -12.5 17.5t-12.5 17.5q6 5 26.5 21t44.5 34.5t45 34.5t27 21h45v-689h-46z" />
    <glyph glyph-name="two" unicode="2" horiz-adv-x="473" 
d="M436 523q0 -33 -13 -63.5t-35 -58.5t-51 -52t-60 -43q-29 -18 -62 -41.5t-62 -53t-48 -65.5t-19 -78v-27h348v-41h-396v58q0 47 17 87t45.5 73.5t64.5 62t75 53.5q63 39 105.5 85.5t42.5 100.5q0 35 -13.5 60t-35.5 41t-51 23.5t-59 7.5q-50 0 -89 -16t-68 -38l-26 35
q30 25 77.5 43.5t102.5 18.5q40 0 78 -9t67 -29.5t47 -53.5t18 -80z" />
    <glyph glyph-name="three" unicode="3" horiz-adv-x="473" 
d="M229 694q35 0 69 -10t60.5 -31t43 -53.5t16.5 -77.5q0 -26 -6.5 -51t-20 -47t-33.5 -38.5t-47 -25.5q30 -10 51 -28t34.5 -40.5t19.5 -48.5t6 -51q0 -47 -16.5 -83.5t-45 -62t-66 -39t-80.5 -13.5q-63 0 -109 20t-75 44q4 6 13.5 18t13.5 18q29 -24 69.5 -41.5
t86.5 -17.5q34 0 64 10.5t52.5 30.5t35 48t12.5 63q0 36 -11 63.5t-29.5 46.5t-41.5 29t-47 10h-76v42h76q18 0 39 8.5t40 26t31.5 44t12.5 63.5q0 36 -13 61t-34 41t-46.5 23t-50.5 7q-44 0 -84.5 -16t-68.5 -39l-28 35q41 32 83 47t100 15z" />
    <glyph glyph-name="four" unicode="4" horiz-adv-x="473" 
d="M384 113v-113h-47v113h-312v42q60 134 119 267t118 267h48l-235 -534h262v216h47v-216h61v-42h-61z" />
    <glyph glyph-name="five" unicode="5" horiz-adv-x="473" 
d="M428 169q0 -38 -15.5 -70.5t-43 -55.5t-65 -36t-81.5 -13q-63 0 -105 20.5t-72 45.5l28 35q31 -26 68.5 -43t80.5 -17q21 0 48.5 6t52 22t42 44t17.5 71v99q0 65 -30 97t-83 32q-20 0 -43 -6.5t-46.5 -16.5t-45.5 -22t-39 -23q-3 1 -9.5 3.5t-14 5.5t-14 5.5t-9.5 3.5
v333h361v-43h-314v-259q50 31 97.5 48t78.5 17q75 0 115.5 -45t40.5 -122v-116v0z" />
    <glyph glyph-name="six" unicode="6" horiz-adv-x="473" 
d="M42 518q0 40 16 72.5t43 56t63 36.5t77 13q63 0 104.5 -19.5t68.5 -45.5l-30 -36q-28 27 -62 42t-81 15q-23 0 -50 -8t-50 -25.5t-38 -46.5t-15 -71v-152q62 38 110 55.5t80 17.5q74 0 114 -45.5t40 -122.5v-80q0 -39 -15.5 -72t-42 -57t-62.5 -37t-77 -13t-76 12.5
t-61 35.5t-41 55.5t-15 71.5v348zM386 247q0 66 -31 97.5t-80 31.5q-43 0 -91 -22.5t-96 -51.5v-118q0 -40 14 -68t35.5 -46t47.5 -26t50 -8t50.5 8.5t49 26.5t37 46t14.5 67v63z" />
    <glyph glyph-name="seven" unicode="7" horiz-adv-x="473" 
d="M169 0h-50l262 647h-295v-109h-45v151h389v-44z" />
    <glyph glyph-name="eight" unicode="8" horiz-adv-x="473" 
d="M236 694q38 0 73.5 -11.5t62.5 -35t43.5 -57.5t16.5 -79q0 -24 -7 -48t-20.5 -45t-35 -38t-49.5 -27q35 -11 58.5 -29.5t37.5 -41.5t20 -47.5t6 -46.5q0 -48 -17.5 -84.5t-46.5 -60.5t-66.5 -36.5t-78.5 -12.5t-78.5 12t-65.5 35.5t-44.5 59t-16.5 82.5q0 24 7.5 49
t22.5 48.5t38 42.5t55 30q-53 19 -80.5 63t-27.5 92q0 45 16 80t43 58.5t61.5 35.5t72.5 12zM237 652q-27 0 -54 -9t-48 -26.5t-34 -44t-13 -62.5q0 -31 12 -56.5t32 -43.5t47 -28t56 -10q28 0 55.5 10t48.5 28t34 43.5t13 57.5q0 35 -13 61.5t-34 44t-47.5 26.5t-54.5 9z
M235 36q35 0 64.5 10.5t50.5 29.5t33 46.5t12 62.5q0 32 -12 59t-33.5 46.5t-51 30.5t-63.5 11q-32 0 -61 -11t-51 -30.5t-35 -47t-13 -60.5q0 -66 42.5 -106.5t117.5 -40.5z" />
    <glyph glyph-name="nine" unicode="9" horiz-adv-x="473" 
d="M430 173q0 -40 -16 -72.5t-43 -56t-63.5 -36.5t-76.5 -13q-63 0 -105 19.5t-68 45.5l30 36q28 -27 61.5 -42t80.5 -15q24 0 50.5 7.5t49.5 25.5t38 47t15 71v153q-122 -73 -189 -73q-74 0 -114 44.5t-40 123.5v78q0 39 15.5 72t42 57t62.5 37.5t77 13.5q40 0 75 -12.5
t61 -35.5t41.5 -55.5t15.5 -71.5v-348zM85 445q0 -66 31.5 -97.5t80.5 -31.5q42 0 90 23t96 51v117q0 40 -14 68t-35 45.5t-47 25.5t-50 8t-51 -8t-49.5 -26t-37 -46t-14.5 -67v-62z" />
    <glyph glyph-name="colon" unicode=":" horiz-adv-x="199" 
d="M58 36q0 14 11 25.5t29 11.5q17 0 29 -11.5t12 -25.5q0 -17 -11 -29t-29 -12q-19 0 -30 11.5t-11 29.5zM58 357q0 16 11 27.5t29 11.5q17 0 29 -11.5t12 -27.5q0 -17 -11 -28.5t-29 -11.5q-19 0 -30 11.5t-11 28.5z" />
    <glyph glyph-name="semicolon" unicode=";" horiz-adv-x="199" 
d="M58 357q0 16 11 27.5t29 11.5q17 0 29 -11.5t12 -27.5q0 -17 -11.5 -28.5t-28.5 -11.5q-19 0 -30 11.5t-11 28.5zM56 33q0 16 12 26.5t29 10.5q21 0 33 -15.5t12 -39.5q0 -35 -20.5 -66t-49.5 -46l-16 20q39 29 41 72q-18 -1 -29.5 9.5t-11.5 28.5z" />
    <glyph glyph-name="less" unicode="&#x3c;" horiz-adv-x="473" 
d="M437 80l-402 182v36l401 182v-41l-355 -159q30 -13 78 -34.5t99.5 -44.5t99.5 -44.5t79 -34.5v-42z" />
    <glyph glyph-name="equal" unicode="=" horiz-adv-x="473" 
d="M30 340v37h413v-37h-413zM30 163v38h413v-38h-413z" />
    <glyph glyph-name="greater" unicode="&#x3e;" horiz-adv-x="473" 
d="M35 122q31 13 79 34.5t99 44.5t99 44.5t79 34.5l-355 159v41l401 -182v-36l-402 -182v42z" />
    <glyph glyph-name="question" unicode="?" horiz-adv-x="432" 
d="M198 698q43 0 76 -12t56 -34t35 -51.5t12 -64.5q0 -46 -23 -84t-51 -74t-51 -73.5t-23 -81.5v-64h-41v64q0 52 22.5 92.5t49.5 76.5t49.5 69.5t22.5 71.5q0 55 -36.5 90.5t-103.5 35.5q-38 0 -74 -11.5t-65 -30.5l-21 35q41 25 80.5 35.5t85.5 10.5zM173 35q0 14 10 25
t27 11t28 -11t11 -25q0 -17 -10.5 -27t-27.5 -10q-18 0 -28 10t-10 27z" />
    <glyph glyph-name="at" unicode="@" horiz-adv-x="837" 
d="M792 361q0 -56 -14 -95.5t-36 -65t-49.5 -37t-55.5 -11.5q-32 0 -61.5 13.5t-40.5 45.5q-48 -29 -87 -41t-66 -12q-54 0 -87.5 28t-33.5 82q0 31 12.5 52.5t31.5 34.5t41.5 19t42.5 6h137v34q0 30 -8 49.5t-22.5 31t-34.5 15.5t-45 4q-19 0 -46.5 -7t-62.5 -30l-23 31
q35 24 70 33.5t64 9.5q76 0 111 -33t35 -97v-170q1 -24 18.5 -44.5t57.5 -20.5q22 0 43 11t37 33t25.5 54.5t9.5 76.5q0 66 -21.5 122t-62 97t-98 64t-129.5 23q-73 0 -138 -25t-113.5 -69.5t-77 -105t-28.5 -131.5q0 -72 25 -133t69.5 -106t105.5 -70t133 -25q32 0 61 5
t66 21l14 -34q-41 -17 -78 -22t-63 -5q-81 0 -148.5 27.5t-117 76.5t-77 116.5t-27.5 147.5t31 147.5t85 116t125.5 76t152.5 27.5q82 0 146.5 -26.5t109.5 -72t68.5 -108t23.5 -134.5zM526 346h-122q-16 0 -34 -2.5t-33 -11t-25 -23.5t-10 -40q0 -39 25 -57.5t60 -18.5
q31 0 68.5 16t70.5 39v98z" />
    <glyph glyph-name="A" unicode="A" horiz-adv-x="568" 
d="M501 0q-14 42 -29 83t-30 83h-315q-14 -42 -28 -83t-28 -83h-51l238 689h54l240 -689h-51zM284 630q-4 -12 -14.5 -44.5t-25 -75t-30.5 -90.5t-30.5 -90.5t-25.5 -75t-15 -44.5h284q-4 12 -14.5 44.5t-25 75t-31 90.5t-31 91t-25.5 75t-15 44h-1z" />
    <glyph glyph-name="B" unicode="B" horiz-adv-x="574" 
d="M529 188q0 -37 -12.5 -71t-36.5 -60t-59.5 -41.5t-80.5 -15.5h-284v689l272 -1q48 0 83.5 -14t59.5 -37.5t35.5 -55t11.5 -66.5q0 -21 -5 -43t-17.5 -42.5t-33.5 -38t-52 -28.5q34 -11 56.5 -30.5t36.5 -44t20 -50.5t6 -50zM468 514q0 36 -12.5 60.5t-33.5 40.5t-48.5 23
t-57.5 7h-212v-260h224q26 0 51.5 8t45 24t31.5 40t12 57zM481 188q0 35 -12.5 63t-33 48t-47.5 31t-57 11h-227v-298h225q32 0 59.5 9t48 27t32.5 45.5t12 63.5z" />
    <glyph glyph-name="C" unicode="C" horiz-adv-x="502" 
d="M293 696q52 0 95.5 -12t82.5 -39l-26 -39q-32 23 -71 34.5t-81 11.5q-36 0 -71 -11t-62.5 -34.5t-44 -60t-16.5 -87.5v-227q0 -51 17 -88t44 -61t61 -35.5t69 -11.5q88 0 157 49l25 -37q-27 -20 -73 -37.5t-106 -17.5q-55 0 -100 17t-76.5 48t-48.5 73t-17 93v244
q0 50 17.5 92t49.5 72t76.5 47t98.5 17z" />
    <glyph glyph-name="D" unicode="D" horiz-adv-x="581" 
d="M533 223q0 -50 -16 -91t-45.5 -70t-71 -45.5t-92.5 -16.5h-252v689h255q51 0 92.5 -16.5t70 -46.5t44 -71.5t15.5 -91.5v-240zM484 455q0 52 -16 88t-41 58.5t-57 33t-63 10.5h-203v-603h191q34 0 67.5 10t60.5 32.5t44 58.5t17 89v223z" />
    <glyph glyph-name="E" unicode="E" horiz-adv-x="532" 
d="M57 0v689h443v-44h-395v-274h340v-43h-340v-285h395v-43h-443z" />
    <glyph glyph-name="F" unicode="F" horiz-adv-x="516" 
d="M105 645v-274h340v-44h-340v-327h-48v689h444v-44h-396z" />
    <glyph glyph-name="G" unicode="G" horiz-adv-x="549" 
d="M501 72q-43 -41 -96.5 -60t-112.5 -19q-55 0 -100 17t-77 48t-49.5 73t-17.5 93v244q0 50 18 92t50.5 72t78 47t101.5 17q52 0 97 -12t83 -39l-26 -39q-32 23 -72 34.5t-82 11.5q-38 0 -73.5 -11t-64 -34.5t-45.5 -60t-17 -87.5v-227q0 -51 16.5 -88t44 -61t62.5 -35.5
t72 -11.5q12 0 30 1.5t39.5 7.5t45 17t47.5 30v205h-119v45h167v-270v0z" />
    <glyph glyph-name="H" unicode="H" horiz-adv-x="596" 
d="M492 0v329h-390v-329h-47v689h47v-317h390v317h50v-689h-50z" />
    <glyph glyph-name="I" unicode="I" horiz-adv-x="216" 
d="M84 0v689h48v-689h-48z" />
    <glyph glyph-name="J" unicode="J" horiz-adv-x="504" 
d="M420 225q0 -51 -15.5 -93.5t-45.5 -73t-74.5 -48t-101.5 -17.5q-47 0 -87.5 12.5t-69.5 30.5l23 39q32 -19 64 -29t67 -10q41 0 76.5 11.5t61 36t40 62t14.5 88.5v456h48v-465v0z" />
    <glyph glyph-name="K" unicode="K" horiz-adv-x="539" 
d="M293 423l245 -423h-56l-222 383q-39 -48 -78 -97t-79 -98v-188h-48v689h48v-427l346 427h58z" />
    <glyph glyph-name="L" unicode="L" horiz-adv-x="502" 
d="M58 0v689h48v-646h392v-43h-440z" />
    <glyph glyph-name="M" unicode="M" horiz-adv-x="707" 
d="M603 577h-1q-29 -62 -55.5 -118t-52.5 -110q-31 -62 -59.5 -120.5t-57.5 -118.5h-40l-122 245l-110 223h-2v-578h-48v689h48q38 -79 76.5 -156.5t76.5 -155.5q25 -52 49.5 -103.5t50.5 -102.5l36 72l63 134q38 78 76.5 156.5t74.5 155.5h45v-689h-48v577z" />
    <glyph glyph-name="N" unicode="N" horiz-adv-x="613" 
d="M505 0q-63 95 -125.5 189.5t-126.5 190.5q-37 56 -73.5 112.5t-75.5 111.5v-604h-48v689h48l256 -386q37 -56 73.5 -111.5t74.5 -110.5v608h48v-689h-51v0z" />
    <glyph glyph-name="O" unicode="O" horiz-adv-x="587" 
d="M536 220q0 -51 -17.5 -93t-49 -71.5t-76.5 -46t-100 -16.5q-56 0 -100.5 16.5t-76 47t-48.5 73t-17 93.5v245q0 50 16.5 92t48 72t76.5 47t101 17q55 0 100 -17t76.5 -47.5t49 -72.5t17.5 -91v-248zM488 459q0 49 -16 85.5t-43 60.5t-62 35.5t-74 11.5q-40 0 -75.5 -11.5
t-61.5 -35.5t-41.5 -60.5t-15.5 -85.5v-231q0 -51 17 -87t44.5 -59.5t62.5 -34.5t70 -11q40 0 75.5 11.5t62 35t42 59.5t15.5 86v231z" />
    <glyph glyph-name="P" unicode="P" horiz-adv-x="539" 
d="M516 492q0 -36 -12.5 -71t-37 -63t-60 -45t-81.5 -17h-223v-296h-47v689h270q48 0 84 -17.5t60 -45.5t35.5 -63t11.5 -71zM467 492q0 35 -12 63t-32.5 48t-48 31t-58.5 11h-214v-304h214q31 0 58.5 10t48 29.5t32.5 47.5t12 64z" />
    <glyph glyph-name="Q" unicode="Q" horiz-adv-x="587" 
d="M536 220q0 -48 -15.5 -88.5t-44.5 -70t-70 -47t-91 -20.5v-32q0 -49 22 -69t71 -20h11t13 1v-42q-9 -1 -18 -1.5t-17 -0.5q-69 0 -98 33t-29 96v35q-51 3 -91.5 21t-69 48t-43.5 70.5t-15 89.5v245q0 50 16.5 92t48 72t76.5 47t101 17q55 0 100 -17t76.5 -47.5t49 -72.5
t17.5 -91v-248zM488 459q0 49 -16 85.5t-43 60.5t-62 35.5t-74 11.5q-40 0 -75.5 -11.5t-61.5 -35.5t-41.5 -60.5t-15.5 -85.5v-231q0 -51 17 -87t44.5 -59.5t62.5 -34.5t70 -11q40 0 75.5 11.5t62 35t42 59.5t15.5 86v231z" />
    <glyph glyph-name="R" unicode="R" horiz-adv-x="555" 
d="M104 0h-48v689h270q49 0 85.5 -17.5t60.5 -45.5t36 -63.5t12 -71.5q0 -29 -8.5 -58t-26 -54.5t-43.5 -45t-60 -28.5l134 -305h-53l-129 296h-230v-296zM104 644v-304h215q31 0 58.5 10t48.5 29.5t33 47.5t12 64q0 35 -12 63.5t-33 48.5t-48.5 30.5t-58.5 10.5h-215z" />
    <glyph glyph-name="S" unicode="S" horiz-adv-x="536" 
d="M504 181q0 -44 -17 -78.5t-48 -58.5t-74.5 -37t-97.5 -13q-68 0 -126 17.5t-111 50.5l27 37q46 -28 100 -45t111 -17q39 0 73 9.5t59 27.5t39.5 45t14.5 62q0 40 -16.5 65.5t-43 41.5t-60.5 25t-68 16q-40 7 -79.5 19.5t-70.5 33.5t-50.5 53t-19.5 79q0 41 15 75t43 58
t68.5 37.5t90.5 13.5q55 0 107 -10t98 -35l-22 -42q-43 23 -91 33t-96 10q-32 0 -61.5 -8t-52 -25.5t-36.5 -44.5t-14 -64q0 -36 16.5 -59.5t43.5 -39t60.5 -24.5t66.5 -16q47 -10 87.5 -23t70.5 -34t47 -53.5t17 -81.5z" />
    <glyph glyph-name="T" unicode="T" horiz-adv-x="513" 
d="M281 644v-644h-48v644h-216v45h478v-45h-214z" />
    <glyph glyph-name="U" unicode="U" horiz-adv-x="590" 
d="M539 219q0 -51 -18 -93t-50.5 -71.5t-77.5 -45.5t-98 -16q-54 0 -98.5 16t-76.5 46t-50 72t-18 93v469h49v-461q0 -51 16.5 -87t43.5 -59t62 -34t72 -11q38 0 73.5 11t62.5 34t43 59t16 87v461h49v-470v0z" />
    <glyph glyph-name="V" unicode="V" horiz-adv-x="544" 
d="M269 66q7 19 13.5 37t12.5 36q18 57 36.5 113t35.5 113l106 324h52q-57 -174 -113.5 -344.5t-113.5 -344.5h-56l-225 689h52l106 -328l94 -295v0z" />
    <glyph glyph-name="W" unicode="W" horiz-adv-x="838" 
d="M538 315l66 -250h2l64 251l97 373h51q-47 -174 -92.5 -344.5t-91.5 -344.5h-59l-96 362l-64 245l-88 -333l-74 -274h-58l-185 689h52l96 -372q16 -63 32 -126.5t33 -126.5h1l67 254l98 371h51z" />
    <glyph glyph-name="X" unicode="X" horiz-adv-x="501" 
d="M433 0l-183 311l-183 -311h-56l213 354l-198 335h56l168 -293l168 293h56l-198 -335l213 -354h-56z" />
    <glyph glyph-name="Y" unicode="Y" horiz-adv-x="490" 
d="M269 0h-48v259q-52 109 -104 215t-105 215h53l78 -162l75 -160q8 -14 14.5 -27l13.5 -27l101 216l77 160h51q-51 -108 -102.5 -214.5t-103.5 -213.5v-261z" />
    <glyph glyph-name="Z" unicode="Z" horiz-adv-x="516" 
d="M478 646l-380 -603h379v-43h-437v42l381 603h-365v44h422v-43z" />
    <glyph glyph-name="bracketleft" unicode="[" horiz-adv-x="234" 
d="M76 -109v806h142v-35h-99v-737h99v-34h-142z" />
    <glyph glyph-name="backslash" unicode="\" horiz-adv-x="292" 
d="M-4 725h36l252 -767h-36z" />
    <glyph glyph-name="bracketright" unicode="]" horiz-adv-x="234" 
d="M35 -109v34h98v737h-98v35h141v-806h-141z" />
    <glyph glyph-name="asciicircum" unicode="^" horiz-adv-x="467" 
d="M45 333l171 360h36l169 -359h-41l-147 316q-11 -27 -31 -69.5t-41.5 -88.5t-41.5 -89t-32 -70h-42z" />
    <glyph glyph-name="underscore" unicode="_" horiz-adv-x="493" 
d="M0 -107v37h493v-37h-493z" />
    <glyph glyph-name="grave" unicode="`" horiz-adv-x="482" 
d="M305 563l-99 147l48 19l79 -154z" />
    <glyph glyph-name="a" unicode="a" horiz-adv-x="466" 
d="M375 61h-1q-36 -23 -64.5 -36t-51 -20t-40.5 -9t-32 -2q-69 0 -111.5 35t-42.5 104q0 39 16 66t40 43.5t53 24t56 7.5h178v49q0 132 -139 132q-35 0 -72 -10t-75 -36l-24 36q42 28 84 39.5t90 11.5q51 0 85.5 -11.5t55.5 -33.5t30 -52.5t9 -68.5v-330h-36zM214 235
q-20 0 -43.5 -3t-44 -13.5t-34 -31t-13.5 -54.5q0 -26 9 -44.5t24.5 -30.5t36 -18t43.5 -6q22 0 45.5 6.5t47.5 16.5t47 22.5t43 24.5v131h-161z" />
    <glyph glyph-name="b" unicode="b" horiz-adv-x="480" 
d="M439 161q0 -84 -44 -125.5t-112 -41.5q-14 0 -30.5 1.5t-38.5 7.5t-50.5 18.5t-65.5 34.5l-8 -56h-37v715h45v-292q40 25 69.5 40t51 22.5t38 9.5t30.5 2q74 0 113 -41.5t39 -126.5v-168zM394 318q0 73 -28 104t-85 31q-17 0 -38.5 -6t-45.5 -16.5t-49.5 -25t-49.5 -30.5
v-272q48 -32 98 -49.5t83 -17.5q56 0 85.5 33.5t29.5 103.5v145z" />
    <glyph glyph-name="c" unicode="c" horiz-adv-x="410" 
d="M239 498q38 0 78.5 -10.5t70.5 -36.5l-28 -36q-29 23 -60.5 32t-56.5 9q-28 0 -54.5 -8t-47.5 -25.5t-33.5 -45.5t-12.5 -68v-125q0 -39 12.5 -67t33.5 -46t47.5 -26t53.5 -8q24 0 59 8.5t59 27.5l27 -34q-31 -23 -70 -33.5t-77 -10.5q-44 0 -79.5 13t-60.5 37t-38 56.5
t-13 71.5v148q0 40 14 72.5t39.5 55.5t60 36t76.5 13z" />
    <glyph glyph-name="d" unicode="d" horiz-adv-x="480" 
d="M395 1l-8 64q-36 -23 -64 -36.5t-50.5 -21.5t-40 -10.5t-31.5 -2.5q-72 0 -113.5 40.5t-41.5 126.5v165q0 83 46.5 127t125.5 44q30 0 69.5 -8t99.5 -37v263h44v-714h-36zM387 405q-53 26 -93 38t-72 12q-132 0 -132 -140v-144q0 -73 29.5 -104t83.5 -31q34 0 84 20.5
t100 55.5v293z" />
    <glyph glyph-name="e" unicode="e" horiz-adv-x="466" 
d="M94 227v-46q0 -41 13 -69t34 -45.5t48 -25.5t56 -8q41 0 74 14t59 39l28 -32q-31 -31 -72 -45.5t-91 -14.5q-42 0 -77.5 11.5t-61.5 34t-40.5 56t-14.5 77.5v139q0 42 14 76t39.5 58.5t61 37.5t77.5 13q41 0 75 -13.5t59 -37.5t38.5 -58t13.5 -74v-87h-333zM382 308
q0 40 -12.5 68t-32.5 46t-45 26t-51 8q-27 0 -53.5 -8.5t-47 -26.5t-33.5 -46.5t-13 -67.5v-41h288v42z" />
    <glyph glyph-name="f" unicode="f" horiz-adv-x="282" 
d="M136 450v-450h-45v450h-60v42h60v109q0 60 33 89t81 29h72v-41h-63q-24 0 -39 -7t-24 -18.5t-12 -27.5t-3 -34v-99h141v-42h-141z" />
    <glyph glyph-name="g" unicode="g" horiz-adv-x="479" 
d="M200 496q14 0 31 -1.5t39.5 -8t50.5 -19.5t64 -35l8 59h37v-530q0 -42 -15 -74t-41 -54t-63 -33t-80 -11q-40 0 -83.5 11.5t-75.5 37.5l29 35q24 -20 61.5 -31t69.5 -11q31 0 59 7.5t49 24.5t33 44.5t12 68.5v91q-35 -23 -63 -37t-50.5 -22t-41 -11t-33.5 -3
q-71 -2 -112 40.5t-41 126.5v168q0 84 44 125.5t112 41.5zM385 383q-51 35 -97.5 52.5t-83.5 17.5q-54 0 -84.5 -31t-30.5 -105v-144q0 -72 27.5 -104t83.5 -32q37 0 86.5 21.5t98.5 54.5v270z" />
    <glyph glyph-name="h" unicode="h" horiz-adv-x="479" 
d="M285 497q150 0 150 -168v-329h-45v318q0 73 -28 104t-84 31q-18 0 -40.5 -6t-46.5 -16.5t-49 -23.5t-48 -28v-379h-45v716h45v-293q69 44 114.5 59t76.5 15z" />
    <glyph glyph-name="i" unicode="i" horiz-adv-x="185" 
d="M125 653q0 -14 -9.5 -23.5t-23.5 -9.5q-13 0 -22.5 9.5t-9.5 23.5t9.5 23t22.5 9q14 0 23.5 -9t9.5 -23zM70 0v491h44v-491h-44z" />
    <glyph glyph-name="j" unicode="j" horiz-adv-x="220" 
d="M150 653q0 -14 -9.5 -23.5t-23.5 -9.5q-13 0 -22.5 9.5t-9.5 23.5t9.5 23t22.5 9q14 0 23.5 -9t9.5 -23zM94 491h45v-578q0 -64 -27 -93t-84 -29h-37v41h31q40 0 56 19t16 70v570z" />
    <glyph glyph-name="k" unicode="k" horiz-adv-x="449" 
d="M49 0v716h44v-411h114q30 0 58.5 13t48.5 55l57 120h49l-57 -126q-13 -28 -30 -48.5t-49 -32.5q19 -3 33 -12.5t23.5 -22.5t16 -28.5t11.5 -31.5l66 -191h-49l-60 171q-10 29 -20 46.5t-22.5 27.5t-29 13t-40.5 3h-120v-261h-44z" />
    <glyph glyph-name="l" unicode="l" horiz-adv-x="250" 
d="M135 113q0 -47 17.5 -61.5t59.5 -12.5l2 -41q-9 -2 -16.5 -2h-15.5q-51 0 -71 27.5t-20 82.5v610h44v-603z" />
    <glyph glyph-name="m" unicode="m" horiz-adv-x="739" 
d="M258 497q28 0 48.5 -7t35 -18.5t24 -27t15.5 -31.5q33 28 59 44.5t47 25.5t37.5 11.5t29.5 2.5q71 0 106.5 -42t35.5 -121v-334h-45v320q0 63 -22.5 98t-80.5 35q-35 0 -74 -20.5t-85 -58.5q2 -14 3 -24t1 -21v-329h-45v321q0 62 -21.5 97.5t-77.5 35.5q-29 0 -67 -16.5
t-92 -58.5v-379h-45v491h37l8 -68q29 22 53 36.5t44 23t37 11.5t34 3z" />
    <glyph glyph-name="n" unicode="n" horiz-adv-x="480" 
d="M281 497q73 0 113 -41.5t40 -126.5v-329h-45v318q0 73 -30.5 104.5t-86.5 30.5q-36 0 -83 -21.5t-96 -54.5v-377h-45v491h37l8 -68q35 21 62.5 35.5t49.5 23t40.5 12t35.5 3.5z" />
    <glyph glyph-name="o" unicode="o" horiz-adv-x="479" 
d="M433 173q0 -84 -53 -131.5t-141 -47.5q-43 0 -78.5 12.5t-61 36t-39.5 56t-14 73.5v150q0 40 15.5 72.5t42 55t61.5 35t75 12.5q41 0 76.5 -12.5t61.5 -35t40.5 -55t14.5 -72.5v-149zM389 308q0 40 -13.5 68t-34.5 45.5t-47.5 25.5t-52.5 8q-27 0 -54 -8t-48 -25.5
t-34.5 -45.5t-13.5 -68v-125q0 -41 12.5 -69t33 -45.5t47.5 -25.5t57 -8t56.5 8.5t47 26.5t32.5 46t12 67v125z" />
    <glyph glyph-name="p" unicode="p" horiz-adv-x="480" 
d="M86 489l8 -64q36 22 64 36.5t50.5 22t40 10.5t31.5 3q72 0 113.5 -41t41.5 -126v-166q0 -83 -45.5 -127t-126.5 -44q-30 0 -69.5 8t-99.5 38v-242h-44v692h36zM94 85q55 -28 94 -39t71 -11q66 0 99 33.5t33 105.5v145q0 73 -30 104t-83 31q-34 0 -84 -21t-100 -55v-293z
" />
    <glyph glyph-name="q" unicode="q" horiz-adv-x="478" 
d="M386 -204v269q-36 -24 -65 -38t-51.5 -21.5t-40 -9.5t-31.5 -2q-72 0 -112.5 41t-40.5 126v169q0 84 43.5 125.5t111.5 41.5q14 0 31.5 -2t39.5 -8.5t50.5 -19t64.5 -33.5l8 56h36v-694h-44zM386 387q-51 34 -100 51t-82 17q-56 0 -85.5 -33.5t-29.5 -103.5v-145
q0 -71 28.5 -104t84.5 -32q35 0 83.5 19t100.5 57v274z" />
    <glyph glyph-name="r" unicode="r" horiz-adv-x="296" 
d="M293 445q-67 -7 -111 -29t-69 -39v-377h-46v491h39l7 -73h1q15 13 35.5 26.5t44.5 25t49.5 18.5t49.5 9v-52z" />
    <glyph glyph-name="s" unicode="s" horiz-adv-x="439" 
d="M227 31q22 0 46 5t43 17t31.5 31.5t12.5 48.5q0 42 -33 63.5t-111 34.5q-30 5 -60 12.5t-54.5 21t-40 36t-15.5 57.5q0 61 45.5 100t123.5 39q51 0 91 -9.5t74 -32.5l-23 -34q-62 37 -139 37q-58 0 -93 -27t-35 -73q0 -21 10.5 -36t29 -25t44 -16.5t55.5 -11.5
t61.5 -12.5t57 -22t41.5 -39t16 -64.5q0 -60 -47 -98.5t-133 -38.5q-48 0 -95 10t-92 42l24 35q37 -26 77 -38t88 -12z" />
    <glyph glyph-name="t" unicode="t" horiz-adv-x="334" 
d="M318 5q-23 -7 -46.5 -8.5t-35.5 -1.5q-73 0 -101.5 33.5t-28.5 109.5v312h-75v42h76l12 116h32v-116h146v-42h-146v-299q0 -63 20.5 -88.5t70.5 -25.5q13 0 31 1.5t38 5.5z" />
    <glyph glyph-name="u" unicode="u" horiz-adv-x="482" 
d="M395 0l-8 68q-34 -21 -60.5 -35t-48 -23t-39.5 -12.5t-35 -3.5q-76 0 -117 41.5t-41 126.5v329h45v-318q0 -73 31 -104.5t86 -31.5q36 0 83 21.5t96 56.5v376h46v-491h-38z" />
    <glyph glyph-name="v" unicode="v" horiz-adv-x="431" 
d="M213 59q3 8 7 18.5t13 35.5t25 69.5t42 121.5q17 47 34 93.5t32 93.5h50q-45 -123 -89.5 -246t-89.5 -245h-48q-46 122 -89 245t-88 246h49l66 -186q22 -62 42.5 -122.5t43.5 -123.5z" />
    <glyph glyph-name="w" unicode="w" horiz-adv-x="671" 
d="M425 256l65 -193h1q18 60 36 120.5t35 121.5l53 186h46l-144 -491h-48l-77 225l-56 163h-1l-57 -170l-74 -218h-48l-147 491h47q14 -45 27 -91t26 -91l72 -246h1q23 67 45.5 134t45.5 135q11 29 20 57.5t19 57.5h48z" />
    <glyph glyph-name="x" unicode="x" horiz-adv-x="401" 
d="M333 0l-135 214l-135 -214h-55l164 251l-156 240h55l127 -203l129 203h55l-158 -239l165 -252h-56z" />
    <glyph glyph-name="y" unicode="y" horiz-adv-x="428" 
d="M116 -198l72 200l-28 29l-153 459h47q20 -57 38 -114t38 -115l75 -222h1l81 222q21 58 42 115t41 114h47q-63 -174 -126.5 -344.5t-126.5 -343.5h-48z" />
    <glyph glyph-name="z" unicode="z" horiz-adv-x="420" 
d="M30 0v37l297 415h-281v39h334v-37l-295 -414h295v-40h-350z" />
    <glyph glyph-name="braceleft" unicode="{" horiz-adv-x="234" 
d="M180 -109q-37 0 -58.5 27t-21.5 75v140q0 65 -14 101.5t-57 47.5v25q22 6 36.5 21t22 36t10.5 45.5t3 48.5v135q0 47 21 75t58 28h47v-29h-34q-18 0 -29 -9t-16.5 -23t-7.5 -30.5t-2 -31.5v-134q0 -31 -6.5 -55.5t-16 -42.5t-21.5 -29.5t-23 -15.5v-1q26 -8 46.5 -43.5
t20.5 -93.5v-144q0 -15 2 -31.5t7.5 -30.5t16.5 -23t29 -9h34v-29h-47z" />
    <glyph glyph-name="bar" unicode="|" horiz-adv-x="174" 
d="M72 -162v878h34v-878h-34z" />
    <glyph glyph-name="braceright" unicode="}" horiz-adv-x="234" 
d="M226 282q-43 -11 -57 -47.5t-14 -101.5v-140q0 -46 -21.5 -74t-58.5 -28h-47v29h34q18 0 29 9t16.5 23t7.5 30.5t2 31.5v144q0 58 20.5 93.5t46.5 43.5v1q-12 4 -23.5 15.5t-21.5 29.5t-16 42.5t-6 55.5v134q0 15 -1.5 31.5t-6.5 30.5t-16.5 23t-30.5 9h-34v28h46
q40 0 60 -28.5t20 -73.5v-135q0 -24 3 -48.5t10.5 -45.5t21.5 -36t37 -21v-25v0z" />
    <glyph glyph-name="asciitilde" unicode="~" horiz-adv-x="473" 
d="M450 295q-20 -31 -44.5 -50t-63.5 -19q-26 0 -54 9.5t-55 20.5t-53 20.5t-48 9.5q-26 0 -44 -13.5t-36 -33.5l-29 23q21 30 49.5 47.5t60.5 17.5q27 0 53.5 -9.5t52.5 -21t51.5 -21t51.5 -9.5q27 0 43 13t34 38l31 -22v0z" />
    <glyph glyph-name="exclamdown" unicode="&#xa1;" horiz-adv-x="211" 
d="M144 458q0 -14 -10.5 -25t-27.5 -11t-27.5 11t-10.5 25q0 17 10.5 27.5t27.5 10.5t27.5 -10.5t10.5 -27.5zM126 341q0 -63 1 -132t1.5 -139t1.5 -139t1 -133h-48q0 64 1 133t1.5 139t1.5 139t1 132h38z" />
    <glyph glyph-name="cent" unicode="&#xa2;" horiz-adv-x="443" 
d="M224 -4q-41 2 -73.5 16t-55 37t-34.5 54.5t-12 69.5v148q0 38 13 69.5t36 54.5t55 36.5t71 15.5v111h27v-110q36 -2 72.5 -12.5t64.5 -34.5l-28 -36q-26 21 -55.5 30t-53.5 11v-419q24 2 55.5 10.5t53.5 25.5l27 -34q-29 -22 -64.5 -32t-71.5 -12v-109h-27v110zM95 184
q0 -36 10.5 -62.5t28.5 -44.5t41.5 -27.5t48.5 -12.5v418q-25 -2 -48.5 -11.5t-41.5 -27t-28.5 -44t-10.5 -63.5v-125z" />
    <glyph glyph-name="sterling" unicode="&#xa3;" horiz-adv-x="473" 
d="M38 36q39 52 62 115.5t23 144.5v5h-86v35h79q-3 19 -6.5 31.5t-7.5 23.5q-11 33 -23 67.5t-12 69.5q0 33 10.5 63.5t32.5 54t55 37.5t77 14q64 0 107 -21.5t73 -64.5l-34 -26q-28 38 -65 55t-83 17q-19 0 -41 -6t-41 -20.5t-32 -39.5t-13 -63q0 -17 4.5 -37t11.5 -40
l17.5 -52.5t15.5 -62.5h150v-35h-147q-1 -70 -16 -135t-60 -126h347v-40h-398v36z" />
    <glyph glyph-name="currency" unicode="&#xa4;" horiz-adv-x="473" 
d="M43 490q5 6 13 14l14 14l58 -58q50 38 109 38q28 0 54.5 -9.5t51.5 -26.5l58 58q5 -6 12.5 -13.5l14.5 -14.5l-58 -58q42 -51 42 -110q0 -29 -10 -56.5t-28 -52.5l58 -57q-6 -8 -13.5 -15t-14.5 -14l-58 58q-48 -38 -109 -40q-61 1 -111 43l-58 -58q-5 6 -14 14.5
t-14 13.5l58 58q-35 49 -35 106q-1 29 9 56t29 52zM104 324q0 -28 10 -52.5t28 -42.5t42 -28.5t52 -10.5t52.5 10.5t42.5 28.5t28.5 42.5t10.5 52.5t-10 52.5t-28 42.5t-42.5 28.5t-52.5 10.5t-52.5 -10.5t-42.5 -28.5t-28 -42.5t-10 -52.5z" />
    <glyph glyph-name="yen" unicode="&#xa5;" horiz-adv-x="473" 
d="M43 194h170v65l-17 39h-154v33h140l-158 358h53l159 -374q43 93 80.5 186.5t79.5 187.5h51q-38 -90 -77.5 -179t-78.5 -179h147v-33h-161l-16 -37v-67h177v-32h-177v-162h-48v162h-170v32z" />
    <glyph glyph-name="brokenbar" unicode="&#xa6;" horiz-adv-x="174" 
d="M72 305v411h34v-411h-34zM106 249v-411h-34v411h34z" />
    <glyph glyph-name="section" unicode="&#xa7;" horiz-adv-x="440" 
d="M80 10q27 -21 58.5 -32.5t64.5 -11.5q27 0 51 6t42 19t28.5 33t10.5 48q0 49 -36.5 76.5t-98.5 51.5q-39 15 -67.5 30t-47.5 33t-28 40t-9 51t15.5 59.5t47.5 56.5q-17 16 -30 40t-13 51q0 66 43 104t112 38q40 0 76.5 -11t62.5 -31q-6 -9 -11.5 -18t-10.5 -18
q-52 40 -119 40q-47 0 -79 -25.5t-32 -70.5q0 -63 73 -94q34 -14 71 -30t68.5 -37t52 -50t20.5 -69q0 -34 -13 -64t-42 -54q17 -20 26.5 -43.5t9.5 -52.5q0 -67 -46 -107t-125 -40q-41 0 -80.5 14.5t-65.5 36.5zM88 357q0 -28 12 -46t29.5 -30.5t38 -20.5t38.5 -17
q26 -11 52.5 -22.5t46.5 -24.5q26 17 37 40.5t11 49.5q0 36 -19.5 60.5t-50 42.5t-68 32t-73.5 28q-21 -17 -37.5 -43t-16.5 -49z" />
    <glyph glyph-name="dieresis" unicode="&#xa8;" horiz-adv-x="466" 
d="M345 650q0 -13 -9 -22.5t-23 -9.5q-13 0 -22.5 9.5t-9.5 22.5q0 14 9.5 23t22.5 9q14 0 23 -9t9 -23zM177 650q0 -13 -9.5 -22.5t-23.5 -9.5q-12 0 -21.5 9.5t-9.5 22.5q0 14 9.5 23t21.5 9q14 0 23.5 -9t9.5 -23z" />
    <glyph glyph-name="copyright" unicode="&#xa9;" horiz-adv-x="780" 
d="M393 -10q-73 0 -135.5 26.5t-108 74t-71.5 111.5t-26 139t26 139.5t72 112t108.5 74t134.5 26.5q73 0 135.5 -26.5t108.5 -74t72.5 -112t26.5 -139.5t-26.5 -139t-72.5 -111.5t-108.5 -74t-135.5 -26.5zM393 659q-64 0 -119.5 -24.5t-96.5 -67.5t-64.5 -101t-23.5 -125
q0 -66 23.5 -124t64.5 -101t96.5 -67.5t119.5 -24.5q65 0 121 24.5t97.5 67.5t65 101t23.5 124q0 67 -23.5 125t-65 101t-97.5 67.5t-121 24.5zM399 552q70 0 121 -35l-20 -30q-23 16 -48.5 23.5t-52.5 7.5q-24 0 -46 -7t-39.5 -22t-28 -39t-10.5 -57v-109q0 -33 10.5 -57
t28 -39.5t39 -23t44.5 -7.5q57 0 104 33l21 -29q-20 -14 -51.5 -25.5t-71.5 -11.5q-75 0 -117.5 43t-42.5 111v121q0 34 11.5 62t32.5 48t50.5 31.5t65.5 11.5z" />
    <glyph glyph-name="ordfeminine" unicode="&#xaa;" horiz-adv-x="321" 
d="M254 317q-42 -27 -72 -35t-53 -8q-49 0 -79 24.5t-30 69.5q0 27 11 45t28.5 29t38 16t39.5 5h116v28q0 46 -24.5 63t-65.5 17q-25 0 -49 -6.5t-52 -24.5l-20 31q31 19 59.5 27t62.5 8q68 0 98.5 -29.5t30.5 -81.5v-216h-34zM253 430h-105q-13 0 -28.5 -2t-28.5 -8.5
t-22 -18.5t-9 -33q0 -30 22 -44.5t51 -14.5q28 0 61 14t59 30v77z" />
    <glyph glyph-name="guillemotleft" unicode="&#xab;" horiz-adv-x="407" 
d="M314 46l-117 173l118 172h44l-115 -172l115 -173h-45zM178 46l-116 173l118 172h44l-115 -172l115 -173h-46z" />
    <glyph glyph-name="logicalnot" unicode="&#xac;" horiz-adv-x="473" 
d="M442 67h-36v194h-376v38h413z" />
    <glyph glyph-name="sfthyphen" unicode="&#xad;" horiz-adv-x="370" 
d="M53 245v43h264v-43h-264z" />
    <glyph glyph-name="registered" unicode="&#xae;" horiz-adv-x="546" 
d="M479 492q0 -45 -15.5 -83.5t-43 -66.5t-65 -44t-80.5 -16t-80 16t-64.5 44t-43.5 66.5t-16 83.5t16 84t43.5 67t64.5 44t80 16t80.5 -16t65 -44t43 -67t15.5 -84zM453 492q0 40 -13.5 74t-37.5 59t-56.5 39.5t-70.5 14.5t-70.5 -14.5t-56.5 -39.5t-37.5 -59t-13.5 -74
t13.5 -74t37.5 -59t56.5 -39.5t70.5 -14.5t70.5 14.5t56.5 39.5t37.5 59t13.5 74zM286 479h-61v-109h-26v244h97q32 0 52.5 -17.5t20.5 -47.5q0 -26 -15 -44t-41 -23l59 -112h-30zM225 591v-88h66q23 0 37.5 11.5t14.5 34.5q0 22 -15.5 32t-35.5 10h-67z" />
    <glyph glyph-name="macron" unicode="&#xaf;" horiz-adv-x="474" 
d="M129 593v41h255v-41h-255z" />
    <glyph glyph-name="degree" unicode="&#xb0;" horiz-adv-x="361" 
d="M304 577q0 -26 -9.5 -48t-26 -38.5t-39 -26t-48.5 -9.5t-48.5 9.5t-39 26t-26 38.5t-9.5 48q0 25 10 47.5t26.5 39t39 26t47.5 9.5q26 0 48.5 -9.5t39 -26t26 -39t9.5 -47.5zM269 577q0 38 -25.5 64t-62.5 26q-38 0 -63 -26t-25 -64q0 -37 25 -63t63 -26q37 0 62.5 25
t25.5 64z" />
    <glyph glyph-name="plusminus" unicode="&#xb1;" horiz-adv-x="473" 
d="M255 271v-189h-37v189h-187v37h187v187h37v-187h186v-37h-186zM31 0v37h411v-37h-411z" />
    <glyph glyph-name="twosuperior" unicode="&#xb2;" horiz-adv-x="308" 
d="M286 679q0 -38 -28.5 -70.5t-69.5 -57.5q-19 -11 -41 -25t-40.5 -31t-31 -37.5t-12.5 -43.5v-10h223v-35h-265v40q0 29 11.5 52.5t30.5 43.5t43 36.5t49 31.5q17 10 33.5 21.5t29 24.5t20 27.5t7.5 30.5q0 19 -8 32.5t-21.5 22t-31 12.5t-35.5 4q-30 0 -56 -9.5
t-45 -23.5l-20 30q22 16 53.5 27.5t66.5 11.5q26 0 51 -5.5t44.5 -18t31 -32.5t11.5 -49z" />
    <glyph glyph-name="threesuperior" unicode="&#xb3;" horiz-adv-x="308" 
d="M141 783q23 0 45.5 -6t40.5 -19t29 -33t11 -48q0 -29 -16 -56t-51 -39q40 -12 55 -40t15 -57q0 -28 -11 -50.5t-30 -38t-44.5 -24t-53.5 -8.5q-40 0 -70.5 12t-51.5 29q1 1 4 5.5t7 9t7.5 8.5t4.5 6q18 -17 44 -25.5t54 -8.5q42 0 71 22t29 61t-23.5 59t-55.5 20h-53v36
h53q11 0 24 4.5t24.5 14.5t19.5 24.5t8 35.5q0 19 -8.5 32.5t-22 22t-29 12.5t-30.5 4q-26 0 -52 -9t-46 -24l-21 29q27 18 57.5 28.5t65.5 10.5z" />
    <glyph glyph-name="acute" unicode="&#xb4;" horiz-adv-x="482" 
d="M206 575l78 154l49 -19l-100 -147z" />
    <glyph glyph-name="mu" unicode="&#xb5;" horiz-adv-x="486" 
d="M395 0l-4 67q-34 -21 -60.5 -35.5t-48.5 -22.5t-40 -11.5t-35 -3.5q-78 0 -113 47v-244h-44q-1 174 -1 348v346h45v-317q0 -73 31 -104.5t87 -31.5q36 0 82 21.5t97 56.5v375h45v-491h-41z" />
    <glyph glyph-name="mu" unicode="&#x3bc;" horiz-adv-x="486" 
d="M395 0l-4 67q-34 -21 -60.5 -35.5t-48.5 -22.5t-40 -11.5t-35 -3.5q-78 0 -113 47v-244h-44q-1 174 -1 348v346h45v-317q0 -73 31 -104.5t87 -31.5q36 0 82 21.5t97 56.5v375h45v-491h-41z" />
    <glyph glyph-name="paragraph" unicode="&#xb6;" horiz-adv-x="459" 
d="M397 67q0 -42 -6.5 -74t-25 -54.5t-52.5 -36.5t-89 -20l-4 41q51 6 78.5 19.5t40 34t15 46t2.5 55.5v647h41v-658zM215 377q-38 0 -70 13.5t-55 37t-36 55.5t-13 68q0 35 13.5 66.5t36.5 55.5t55 38t69 14h90v-348h-90z" />
    <glyph glyph-name="periodcentered" unicode="&#xb7;" horiz-adv-x="184" 
d="M96 312q17 0 30.5 -12.5t13.5 -30.5t-12.5 -31t-31.5 -13t-32 13t-13 31t13 30.5t32 12.5z" />
    <glyph glyph-name="cedilla" unicode="&#xb8;" horiz-adv-x="414" 
d="M231 -163q21 0 41.5 9t20.5 35q0 13 -6.5 22.5t-17 15t-23.5 7.5t-26 0l-20 10q7 20 13 40t12 39q8 0 15 -0.5t14 -0.5l-19 -58q27 0 45 -8t29 -19.5t15.5 -24.5t4.5 -24t-5 -23.5t-16.5 -23.5t-30 -18t-45.5 -7q-11 0 -29.5 2.5t-43.5 10.5l10 26q17 -5 33 -7.5t29 -2.5
z" />
    <glyph glyph-name="onesuperior" unicode="&#xb9;" horiz-adv-x="258" 
d="M132 369v363l-70 -50l-23 30l96 68h36v-411h-39z" />
    <glyph glyph-name="ordmasculine" unicode="&#xba;" horiz-adv-x="331" 
d="M301 398q0 -56 -37 -90t-99 -34q-61 0 -98.5 34t-37.5 88v91q0 27 10.5 48.5t29.5 37.5t43.5 24.5t53.5 8.5q59 0 97 -32.5t38 -86.5v-89zM263 477q0 25 -8.5 43t-22.5 29t-31.5 16.5t-34.5 5.5q-18 0 -35.5 -5.5t-31.5 -16.5t-22.5 -29t-8.5 -43v-73q0 -25 8 -42.5
t21.5 -29t31.5 -17t37 -5.5q39 0 68 23t29 71v73z" />
    <glyph glyph-name="guillemotright" unicode="&#xbb;" horiz-adv-x="407" 
d="M63 46l114 173l-114 172h44l118 -172l-117 -173h-45zM198 46l115 173l-115 172h44l118 -172l-117 -173h-45z" />
    <glyph glyph-name="onequarter" unicode="&#xbc;" horiz-adv-x="760" 
d="M182 279v363l-70 -50l-23 30l96 68h36v-411h-39zM167 -17h-39l424 731h40zM628 65v-65h-37v65h-199v31q12 26 33 69t44 89t44 88.5t33 68.5h42l-152 -311h155v127h37v-127h43v-35h-43z" />
    <glyph glyph-name="onehalf" unicode="&#xbd;" horiz-adv-x="760" 
d="M161 279v363l-70 -50l-23 30l96 68h36v-411h-39zM138 -17h-39l424 731h40zM692 310q0 -38 -28.5 -70.5t-69.5 -57.5q-19 -11 -41 -24.5t-40.5 -31t-31 -37.5t-12.5 -43v-11h223v-35h-265v40q0 29 11.5 52.5t30.5 43.5t43 36.5t49 31.5q17 10 33.5 21.5t29 24.5t20 27.5
t7.5 30.5q0 19 -8 32.5t-21.5 22t-31 12.5t-35.5 4q-30 0 -56 -9.5t-45 -23.5l-20 30q22 16 53.5 27.5t66.5 11.5q26 0 51 -5.5t44.5 -18t31 -32.5t11.5 -49z" />
    <glyph glyph-name="threequarters" unicode="&#xbe;" horiz-adv-x="760" 
d="M176 693q23 0 45.5 -6t40.5 -19t29 -33t11 -48q0 -29 -16 -56t-51 -39q40 -12 55 -40t15 -57q0 -28 -11 -50.5t-30 -38t-44.5 -24t-53.5 -8.5q-40 0 -70.5 12t-51.5 29q1 1 4 5.5t7 9t7.5 8.5t4.5 6q18 -17 44 -25.5t54 -8.5q42 0 71 22t29 61t-23.5 59t-55.5 20h-53v36
h53q11 0 24 4.5t24.5 14.5t19.5 24.5t8 35.5q0 19 -8.5 32.5t-22 22t-29 12.5t-30.5 4q-26 0 -52 -9t-46 -24l-21 29q27 18 57.5 28.5t65.5 10.5zM672 65v-65h-37v65h-199v31q12 26 33 69t44 89t44 88.5t33 68.5h42l-152 -311h155v127h37v-127h43v-35h-43zM208 -17h-39
l424 731h40z" />
    <glyph glyph-name="questiondown" unicode="&#xbf;" horiz-adv-x="432" 
d="M225 -204q-42 0 -75.5 12t-56.5 34t-35 51.5t-12 64.5q0 42 22 80.5t51 73.5q32 38 53.5 76.5t21.5 81.5v64h42v-64q0 -29 -7 -52.5t-18 -44t-25.5 -39.5t-29.5 -38q-23 -29 -44 -62t-21 -73q0 -55 36.5 -90t103.5 -35q38 0 74 11t65 30l22 -35q-41 -25 -81 -35.5
t-86 -10.5zM251 458q0 -14 -10.5 -25t-27.5 -11t-28 11t-11 25q0 17 11 27.5t28 10.5t27.5 -10.5t10.5 -27.5z" />
    <glyph glyph-name="Agrave" unicode="&#xc0;" horiz-adv-x="568" 
d="M501 0q-14 42 -29 83t-30 83h-315q-14 -42 -28 -83t-28 -83h-51l238 689h54l240 -689h-51zM284 630q-4 -12 -14.5 -44.5t-25 -75t-30.5 -90.5t-30.5 -90.5t-25.5 -75t-15 -44.5h284q-4 12 -14.5 44.5t-25 75t-31 90.5t-31 91t-25.5 75t-15 44h-1zM300 729l-151 93l35 37
l136 -108z" />
    <glyph glyph-name="Aacute" unicode="&#xc1;" horiz-adv-x="568" 
d="M501 0q-14 42 -29 83t-30 83h-315q-14 -42 -28 -83t-28 -83h-51l238 689h54l240 -689h-51zM284 630q-4 -12 -14.5 -44.5t-25 -75t-30.5 -90.5t-30.5 -90.5t-25.5 -75t-15 -44.5h284q-4 12 -14.5 44.5t-25 75t-31 90.5t-31 91t-25.5 75t-15 44h-1zM250 751l136 108l35 -37
l-151 -93z" />
    <glyph glyph-name="Acircumflex" unicode="&#xc2;" horiz-adv-x="568" 
d="M501 0q-14 42 -29 83t-30 83h-315q-14 -42 -28 -83t-28 -83h-51l238 689h54l240 -689h-51zM284 630q-4 -12 -14.5 -44.5t-25 -75t-30.5 -90.5t-30.5 -90.5t-25.5 -75t-15 -44.5h284q-4 12 -14.5 44.5t-25 75t-31 90.5t-31 91t-25.5 75t-15 44h-1zM287 814l-130 -84
l-18 21l131 109h37l127 -108l-18 -21z" />
    <glyph glyph-name="Atilde" unicode="&#xc3;" horiz-adv-x="568" 
d="M501 0q-14 42 -29 83t-30 83h-315q-14 -42 -28 -83t-28 -83h-51l238 689h54l240 -689h-51zM284 630q-4 -12 -14.5 -44.5t-25 -75t-30.5 -90.5t-30.5 -90.5t-25.5 -75t-15 -44.5h284q-4 12 -14.5 44.5t-25 75t-31 90.5t-31 91t-25.5 75t-15 44h-1zM226 838q16 0 33 -6.5
t33.5 -14.5t32 -14.5t27.5 -6.5q16 0 28.5 9.5t27.5 31.5l30 -17q-19 -35 -40 -50t-45 -15q-15 0 -31 6t-32.5 13.5t-32.5 14t-30 6.5q-19 0 -33 -9.5t-30 -29.5l-30 18q19 31 42.5 47.5t49.5 16.5z" />
    <glyph glyph-name="Adieresis" unicode="&#xc4;" horiz-adv-x="568" 
d="M501 0q-14 42 -29 83t-30 83h-315q-14 -42 -28 -83t-28 -83h-51l238 689h54l240 -689h-51zM284 630q-4 -12 -14.5 -44.5t-25 -75t-30.5 -90.5t-30.5 -90.5t-25.5 -75t-15 -44.5h284q-4 12 -14.5 44.5t-25 75t-31 90.5t-31 91t-25.5 75t-15 44h-1zM403 785q0 -14 -9 -23
t-23 -9q-13 0 -22.5 9t-9.5 23q0 13 9.5 22.5t22.5 9.5q14 0 23 -9.5t9 -22.5zM235 785q0 -14 -9.5 -23t-23.5 -9q-12 0 -21.5 9t-9.5 23q0 13 9.5 22.5t21.5 9.5q14 0 23.5 -9.5t9.5 -22.5z" />
    <glyph glyph-name="Aring" unicode="&#xc5;" horiz-adv-x="568" 
d="M501 0q-14 42 -29 83t-30 83h-315q-14 -42 -28 -83t-28 -83h-51l238 689h54l240 -689h-51zM284 630q-4 -12 -14.5 -44.5t-25 -75t-30.5 -90.5t-30.5 -90.5t-25.5 -75t-15 -44.5h284q-4 12 -14.5 44.5t-25 75t-31 90.5t-31 91t-25.5 75t-15 44h-1zM377 811q0 -19 -7 -35.5
t-19.5 -29t-29.5 -19.5t-36 -7q-38 0 -65 26.5t-27 64.5q0 19 7.5 35.5t20 29t29 19.5t35.5 7t36 -7t29.5 -19.5t19.5 -29t7 -35.5zM348 811q0 26 -18 44.5t-45 18.5q-26 0 -44.5 -18.5t-18.5 -44.5t18.5 -44.5t44.5 -18.5q27 0 45 18.5t18 44.5z" />
    <glyph glyph-name="AE" unicode="&#xc6;" horiz-adv-x="920" 
d="M463 0v184h-291l-117 -184h-54l438 689h467v-44h-395v-274h339v-43h-339v-285h395v-43h-443zM199 226h264v417z" />
    <glyph glyph-name="Ccedilla" unicode="&#xc7;" horiz-adv-x="502" 
d="M276 -163q21 0 41.5 9t20.5 35q0 13 -6.5 22.5t-17 15t-23.5 7.5t-26 0l-20 10l18 59q-49 4 -88 22.5t-66.5 48.5t-42.5 70.5t-15 87.5v244q0 50 17.5 92t49.5 72t76.5 47t98.5 17q52 0 95.5 -12t82.5 -39l-26 -39q-32 23 -71 34.5t-81 11.5q-36 0 -71 -11t-62.5 -34.5
t-44 -60t-16.5 -87.5v-227q0 -51 17 -88t44 -61t61 -35.5t69 -11.5q88 0 157 49l25 -37q-27 -20 -73 -37.5t-106 -17.5h-1l-12 -37q27 0 45 -8t29 -19.5t15.5 -24.5t4.5 -24t-5 -23.5t-16.5 -23.5t-30 -18t-45.5 -7q-11 0 -29.5 2.5t-43.5 10.5l10 26q17 -5 33 -7.5t29 -2.5
z" />
    <glyph glyph-name="Egrave" unicode="&#xc8;" horiz-adv-x="532" 
d="M57 0v689h443v-44h-395v-274h340v-43h-340v-285h395v-43h-443zM306 729l-151 93l35 37l136 -108z" />
    <glyph glyph-name="Eacute" unicode="&#xc9;" horiz-adv-x="532" 
d="M57 0v689h443v-44h-395v-274h340v-43h-340v-285h395v-43h-443zM217 751l136 108l35 -37l-151 -93z" />
    <glyph glyph-name="Ecircumflex" unicode="&#xca;" horiz-adv-x="532" 
d="M57 0v689h443v-44h-395v-274h340v-43h-340v-285h395v-43h-443zM279 814l-130 -84l-18 21l131 109h37l127 -108l-18 -21z" />
    <glyph glyph-name="Edieresis" unicode="&#xcb;" horiz-adv-x="532" 
d="M57 0v689h443v-44h-395v-274h340v-43h-340v-285h395v-43h-443zM396 784q0 -13 -9 -22.5t-23 -9.5q-13 0 -22 9.5t-9 22.5q0 14 9 23t22 9q14 0 23 -9t9 -23zM228 784q0 -13 -9.5 -22.5t-22.5 -9.5t-22.5 9.5t-9.5 22.5q0 14 9.5 23t22.5 9t22.5 -9t9.5 -23z" />
    <glyph glyph-name="Igrave" unicode="&#xcc;" horiz-adv-x="216" 
d="M84 0v689h48v-689h-48zM120 729l-151 93l35 37l136 -108z" />
    <glyph glyph-name="Iacute" unicode="&#xcd;" horiz-adv-x="216" 
d="M84 0v689h48v-689h-48zM75 751l136 108l35 -37l-151 -93z" />
    <glyph glyph-name="Icircumflex" unicode="&#xce;" horiz-adv-x="216" 
d="M84 0v689h48v-689h-48zM109 814l-130 -84l-18 21l131 109h37l127 -108l-18 -21z" />
    <glyph glyph-name="Idieresis" unicode="&#xcf;" horiz-adv-x="216" 
d="M84 0v689h48v-689h-48zM225 785q0 -14 -9 -23t-23 -9q-13 0 -22.5 9t-9.5 23q0 13 9.5 22.5t22.5 9.5q14 0 23 -9.5t9 -22.5zM57 785q0 -14 -9.5 -23t-23.5 -9q-12 0 -21.5 9t-9.5 23q0 13 9.5 22.5t21.5 9.5q14 0 23.5 -9.5t9.5 -22.5z" />
    <glyph glyph-name="Eth" unicode="&#xd0;" horiz-adv-x="581" 
d="M6 380h50v309h255q51 0 92.5 -16.5t70 -46.5t44 -71.5t15.5 -91.5v-240q0 -50 -16 -91t-45.5 -70t-71 -45.5t-92.5 -16.5h-252v342h-50v38zM484 455q0 52 -16 88t-41 58.5t-57 33t-63 10.5h-203v-265h167v-38h-167v-300h191q34 0 67.5 10t60.5 32.5t44 58.5t17 89v223z
" />
    <glyph glyph-name="Ntilde" unicode="&#xd1;" horiz-adv-x="613" 
d="M505 0q-63 95 -125.5 189.5t-126.5 190.5q-37 56 -73.5 112.5t-75.5 111.5v-604h-48v689h48l256 -386q37 -56 73.5 -111.5t74.5 -110.5v608h48v-689h-51zM250 835q16 0 33 -6.5t33.5 -14.5t32 -14.5t27.5 -6.5q16 0 28.5 9.5t27.5 31.5l30 -17q-19 -35 -40 -50t-45 -15
q-15 0 -31 6t-32.5 13.5t-32.5 14t-30 6.5q-19 0 -33 -9.5t-30 -29.5l-30 18q19 31 42.5 47.5t49.5 16.5z" />
    <glyph glyph-name="Ograve" unicode="&#xd2;" horiz-adv-x="587" 
d="M536 220q0 -51 -17.5 -93t-49 -71.5t-76.5 -46t-100 -16.5q-56 0 -100.5 16.5t-76 47t-48.5 73t-17 93.5v245q0 50 16.5 92t48 72t76.5 47t101 17q55 0 100 -17t76.5 -47.5t49 -72.5t17.5 -91v-248zM488 459q0 49 -16 85.5t-43 60.5t-62 35.5t-74 11.5q-40 0 -75.5 -11.5
t-61.5 -35.5t-41.5 -60.5t-15.5 -85.5v-231q0 -51 17 -87t44.5 -59.5t62.5 -34.5t70 -11q40 0 75.5 11.5t62 35t42 59.5t15.5 86v231zM316 729l-151 93l35 37l136 -108z" />
    <glyph glyph-name="Oacute" unicode="&#xd3;" horiz-adv-x="587" 
d="M536 220q0 -51 -17.5 -93t-49 -71.5t-76.5 -46t-100 -16.5q-56 0 -100.5 16.5t-76 47t-48.5 73t-17 93.5v245q0 50 16.5 92t48 72t76.5 47t101 17q55 0 100 -17t76.5 -47.5t49 -72.5t17.5 -91v-248zM488 459q0 49 -16 85.5t-43 60.5t-62 35.5t-74 11.5q-40 0 -75.5 -11.5
t-61.5 -35.5t-41.5 -60.5t-15.5 -85.5v-231q0 -51 17 -87t44.5 -59.5t62.5 -34.5t70 -11q40 0 75.5 11.5t62 35t42 59.5t15.5 86v231zM251 751l136 108l35 -37l-151 -93z" />
    <glyph glyph-name="Ocircumflex" unicode="&#xd4;" horiz-adv-x="587" 
d="M536 220q0 -51 -17.5 -93t-49 -71.5t-76.5 -46t-100 -16.5q-56 0 -100.5 16.5t-76 47t-48.5 73t-17 93.5v245q0 50 16.5 92t48 72t76.5 47t101 17q55 0 100 -17t76.5 -47.5t49 -72.5t17.5 -91v-248zM488 459q0 49 -16 85.5t-43 60.5t-62 35.5t-74 11.5q-40 0 -75.5 -11.5
t-61.5 -35.5t-41.5 -60.5t-15.5 -85.5v-231q0 -51 17 -87t44.5 -59.5t62.5 -34.5t70 -11q40 0 75.5 11.5t62 35t42 59.5t15.5 86v231zM295 814l-130 -84l-18 21l131 109h37l127 -108l-18 -21z" />
    <glyph glyph-name="Otilde" unicode="&#xd5;" horiz-adv-x="587" 
d="M536 220q0 -51 -17.5 -93t-49 -71.5t-76.5 -46t-100 -16.5q-56 0 -100.5 16.5t-76 47t-48.5 73t-17 93.5v245q0 50 16.5 92t48 72t76.5 47t101 17q55 0 100 -17t76.5 -47.5t49 -72.5t17.5 -91v-248zM488 459q0 49 -16 85.5t-43 60.5t-62 35.5t-74 11.5q-40 0 -75.5 -11.5
t-61.5 -35.5t-41.5 -60.5t-15.5 -85.5v-231q0 -51 17 -87t44.5 -59.5t62.5 -34.5t70 -11q40 0 75.5 11.5t62 35t42 59.5t15.5 86v231zM238 827q16 0 33 -6.5t33.5 -14.5t32 -14.5t27.5 -6.5q16 0 28.5 9.5t27.5 31.5l30 -17q-19 -35 -40 -50t-45 -15q-15 0 -31 6t-32.5 13.5
t-32.5 14t-30 6.5q-19 0 -33 -9.5t-30 -29.5l-30 18q19 31 42.5 47.5t49.5 16.5z" />
    <glyph glyph-name="Odieresis" unicode="&#xd6;" horiz-adv-x="587" 
d="M536 220q0 -51 -17.5 -93t-49 -71.5t-76.5 -46t-100 -16.5q-56 0 -100.5 16.5t-76 47t-48.5 73t-17 93.5v245q0 50 16.5 92t48 72t76.5 47t101 17q55 0 100 -17t76.5 -47.5t49 -72.5t17.5 -91v-248zM488 459q0 49 -16 85.5t-43 60.5t-62 35.5t-74 11.5q-40 0 -75.5 -11.5
t-61.5 -35.5t-41.5 -60.5t-15.5 -85.5v-231q0 -51 17 -87t44.5 -59.5t62.5 -34.5t70 -11q40 0 75.5 11.5t62 35t42 59.5t15.5 86v231zM413 785q0 -14 -9 -23t-23 -9q-13 0 -22.5 9t-9.5 23q0 13 9.5 22.5t22.5 9.5q14 0 23 -9.5t9 -22.5zM245 785q0 -14 -9.5 -23t-23.5 -9
q-12 0 -21.5 9t-9.5 23q0 13 9.5 22.5t21.5 9.5q14 0 23.5 -9.5t9.5 -22.5z" />
    <glyph glyph-name="multiply" unicode="&#xd7;" horiz-adv-x="473" 
d="M263 273l158 -158l-26 -26l-158 157l-160 -160l-26 26l161 161l-157 157l26 26l157 -157l159 159l25 -26z" />
    <glyph glyph-name="Oslash" unicode="&#xd8;" horiz-adv-x="587" 
d="M536 220q0 -51 -17.5 -93t-49 -71.5t-76.5 -46t-100 -16.5t-98.5 16t-75.5 45l-42 -62l-27 18l46 69q-45 59 -45 144v245q0 50 16.5 92t48 72t76.5 47t101 17q54 0 98 -17t76 -46l43 63l27 -18l-47 -70q46 -58 46 -140v-248zM488 459q0 62 -27 106l-315 -470
q29 -31 67.5 -45t79.5 -14q40 0 75.5 11.5t62 35t42 59.5t15.5 86v231zM99 228q0 -32 7 -58.5t19 -46.5l316 470q-28 30 -66.5 44.5t-81.5 14.5q-40 0 -75.5 -11.5t-61.5 -35.5t-41.5 -60.5t-15.5 -85.5v-231z" />
    <glyph glyph-name="Ugrave" unicode="&#xd9;" horiz-adv-x="590" 
d="M539 219q0 -51 -18 -93t-50.5 -71.5t-77.5 -45.5t-98 -16q-54 0 -98.5 16t-76.5 46t-50 72t-18 93v469h49v-461q0 -51 16.5 -87t43.5 -59t62 -34t72 -11q38 0 73.5 11t62.5 34t43 59t16 87v461h49v-470zM325 729l-151 93l35 37l136 -108z" />
    <glyph glyph-name="Uacute" unicode="&#xda;" horiz-adv-x="590" 
d="M539 219q0 -51 -18 -93t-50.5 -71.5t-77.5 -45.5t-98 -16q-54 0 -98.5 16t-76.5 46t-50 72t-18 93v469h49v-461q0 -51 16.5 -87t43.5 -59t62 -34t72 -11q38 0 73.5 11t62.5 34t43 59t16 87v461h49v-470zM243 751l136 108l35 -37l-151 -93z" />
    <glyph glyph-name="Ucircumflex" unicode="&#xdb;" horiz-adv-x="590" 
d="M539 219q0 -51 -18 -93t-50.5 -71.5t-77.5 -45.5t-98 -16q-54 0 -98.5 16t-76.5 46t-50 72t-18 93v469h49v-461q0 -51 16.5 -87t43.5 -59t62 -34t72 -11q38 0 73.5 11t62.5 34t43 59t16 87v461h49v-470zM295 814l-130 -84l-18 21l131 109h37l127 -108l-18 -21z" />
    <glyph glyph-name="Udieresis" unicode="&#xdc;" horiz-adv-x="590" 
d="M539 219q0 -51 -18 -93t-50.5 -71.5t-77.5 -45.5t-98 -16q-54 0 -98.5 16t-76.5 46t-50 72t-18 93v469h49v-461q0 -51 16.5 -87t43.5 -59t62 -34t72 -11q38 0 73.5 11t62.5 34t43 59t16 87v461h49v-470zM415 785q0 -14 -9 -23t-23 -9q-13 0 -22.5 9t-9.5 23
q0 13 9.5 22.5t22.5 9.5q14 0 23 -9.5t9 -22.5zM247 785q0 -14 -9.5 -23t-23.5 -9q-12 0 -21.5 9t-9.5 23q0 13 9.5 22.5t21.5 9.5q14 0 23.5 -9.5t9.5 -22.5z" />
    <glyph glyph-name="Yacute" unicode="&#xdd;" horiz-adv-x="490" 
d="M269 0h-48v259q-52 109 -104 215t-105 215h53l78 -162l75 -160q8 -14 14.5 -27l13.5 -27l101 216l77 160h51q-51 -108 -102.5 -214.5t-103.5 -213.5v-261zM180 751l136 108l35 -37l-151 -93z" />
    <glyph glyph-name="Thorn" unicode="&#xde;" horiz-adv-x="539" 
d="M516 356q0 -36 -12.5 -70.5t-37 -62.5t-60 -45t-81.5 -17h-223v-161h-47v689h48v-135h222q48 0 84 -17.5t60 -45.5t35.5 -63.5t11.5 -71.5zM467 356q0 35 -12 63.5t-32.5 48.5t-48 30.5t-58.5 10.5h-214v-304h214q31 0 58.5 10t48 29.5t32.5 47.5t12 64z" />
    <glyph glyph-name="germandbls" unicode="&#xdf;" horiz-adv-x="479" 
d="M94 0h-44v528q0 42 13.5 76t37.5 58t57.5 37t72.5 13q51 0 85.5 -16t55 -40t29 -53t8.5 -54q0 -14 -3 -32.5t-11 -37.5t-23.5 -36.5t-39.5 -29.5q30 -8 50 -26t32 -40t16.5 -46.5t4.5 -46.5v-89q0 -83 -45.5 -127t-124.5 -44h-19.5t-21.5 2v38h37q71 0 100.5 38.5
t29.5 104.5v77q0 63 -34 96.5t-97 33.5h-18v40h12q30 0 51 12t34.5 30.5t19.5 40t6 39.5q0 21 -7 43.5t-23 41t-41.5 30.5t-62.5 12q-38 0 -64 -14t-42.5 -35.5t-23.5 -47.5t-7 -50v-526z" />
    <glyph glyph-name="agrave" unicode="&#xe0;" horiz-adv-x="466" 
d="M375 61h-1q-36 -23 -64.5 -36t-51 -20t-40.5 -9t-32 -2q-69 0 -111.5 35t-42.5 104q0 39 16 66t40 43.5t53 24t56 7.5h178v49q0 132 -139 132q-35 0 -72 -10t-75 -36l-24 36q42 28 84 39.5t90 11.5q51 0 85.5 -11.5t55.5 -33.5t30 -52.5t9 -68.5v-330h-36zM214 235
q-20 0 -43.5 -3t-44 -13.5t-34 -31t-13.5 -54.5q0 -26 9 -44.5t24.5 -30.5t36 -18t43.5 -6q22 0 45.5 6.5t47.5 16.5t47 22.5t43 24.5v131h-161zM249 563l-99 147l48 19l79 -154z" />
    <glyph glyph-name="aacute" unicode="&#xe1;" horiz-adv-x="466" 
d="M375 61h-1q-36 -23 -64.5 -36t-51 -20t-40.5 -9t-32 -2q-69 0 -111.5 35t-42.5 104q0 39 16 66t40 43.5t53 24t56 7.5h178v49q0 132 -139 132q-35 0 -72 -10t-75 -36l-24 36q42 28 84 39.5t90 11.5q51 0 85.5 -11.5t55.5 -33.5t30 -52.5t9 -68.5v-330h-36zM214 235
q-20 0 -43.5 -3t-44 -13.5t-34 -31t-13.5 -54.5q0 -26 9 -44.5t24.5 -30.5t36 -18t43.5 -6q22 0 45.5 6.5t47.5 16.5t47 22.5t43 24.5v131h-161zM222 575l78 154l49 -19l-100 -147z" />
    <glyph glyph-name="acircumflex" unicode="&#xe2;" horiz-adv-x="466" 
d="M375 61h-1q-36 -23 -64.5 -36t-51 -20t-40.5 -9t-32 -2q-69 0 -111.5 35t-42.5 104q0 39 16 66t40 43.5t53 24t56 7.5h178v49q0 132 -139 132q-35 0 -72 -10t-75 -36l-24 36q42 28 84 39.5t90 11.5q51 0 85.5 -11.5t55.5 -33.5t30 -52.5t9 -68.5v-330h-36zM214 235
q-20 0 -43.5 -3t-44 -13.5t-34 -31t-13.5 -54.5q0 -26 9 -44.5t24.5 -30.5t36 -18t43.5 -6q22 0 45.5 6.5t47.5 16.5t47 22.5t43 24.5v131h-161zM242 654l-127 -98l-21 21l132 124h37l126 -123l-21 -21z" />
    <glyph glyph-name="atilde" unicode="&#xe3;" horiz-adv-x="466" 
d="M375 61h-1q-36 -23 -64.5 -36t-51 -20t-40.5 -9t-32 -2q-69 0 -111.5 35t-42.5 104q0 39 16 66t40 43.5t53 24t56 7.5h178v49q0 132 -139 132q-35 0 -72 -10t-75 -36l-24 36q42 28 84 39.5t90 11.5q51 0 85.5 -11.5t55.5 -33.5t30 -52.5t9 -68.5v-330h-36zM214 235
q-20 0 -43.5 -3t-44 -13.5t-34 -31t-13.5 -54.5q0 -26 9 -44.5t24.5 -30.5t36 -18t43.5 -6q22 0 45.5 6.5t47.5 16.5t47 22.5t43 24.5v131h-161zM186 684q16 0 33 -6.5t33.5 -14.5t32 -14.5t27.5 -6.5q16 0 28.5 9.5t27.5 31.5l30 -17q-19 -35 -40 -50t-45 -15q-15 0 -31 6
t-32.5 13.5t-32.5 14t-30 6.5q-19 0 -33 -9.5t-30 -29.5l-30 18q19 31 42.5 47.5t49.5 16.5z" />
    <glyph glyph-name="adieresis" unicode="&#xe4;" horiz-adv-x="466" 
d="M375 61h-1q-36 -23 -64.5 -36t-51 -20t-40.5 -9t-32 -2q-69 0 -111.5 35t-42.5 104q0 39 16 66t40 43.5t53 24t56 7.5h178v49q0 132 -139 132q-35 0 -72 -10t-75 -36l-24 36q42 28 84 39.5t90 11.5q51 0 85.5 -11.5t55.5 -33.5t30 -52.5t9 -68.5v-330h-36zM214 235
q-20 0 -43.5 -3t-44 -13.5t-34 -31t-13.5 -54.5q0 -26 9 -44.5t24.5 -30.5t36 -18t43.5 -6q22 0 45.5 6.5t47.5 16.5t47 22.5t43 24.5v131h-161zM365 650q0 -13 -9 -22.5t-23 -9.5q-13 0 -22.5 9.5t-9.5 22.5q0 14 9.5 23t22.5 9q14 0 23 -9t9 -23zM197 650
q0 -13 -9.5 -22.5t-23.5 -9.5q-12 0 -21.5 9.5t-9.5 22.5q0 14 9.5 23t21.5 9q14 0 23.5 -9t9.5 -23z" />
    <glyph glyph-name="aring" unicode="&#xe5;" horiz-adv-x="466" 
d="M375 61h-1q-36 -23 -64.5 -36t-51 -20t-40.5 -9t-32 -2q-69 0 -111.5 35t-42.5 104q0 39 16 66t40 43.5t53 24t56 7.5h178v49q0 132 -139 132q-35 0 -72 -10t-75 -36l-24 36q42 28 84 39.5t90 11.5q51 0 85.5 -11.5t55.5 -33.5t30 -52.5t9 -68.5v-330h-36zM214 235
q-20 0 -43.5 -3t-44 -13.5t-34 -31t-13.5 -54.5q0 -26 9 -44.5t24.5 -30.5t36 -18t43.5 -6q22 0 45.5 6.5t47.5 16.5t47 22.5t43 24.5v131h-161zM342 643q0 -19 -7 -35.5t-19.5 -29t-29.5 -19.5t-36 -7q-38 0 -65 26.5t-27 64.5q0 19 7.5 35.5t20 29t29 19.5t35.5 7t36 -7
t29.5 -19.5t19.5 -29t7 -35.5zM313 643q0 26 -18 44.5t-45 18.5q-26 0 -44.5 -18.5t-18.5 -44.5t18.5 -44.5t44.5 -18.5q27 0 45 18.5t18 44.5z" />
    <glyph glyph-name="ae" unicode="&#xe6;" horiz-adv-x="792" 
d="M420 174q0 -39 13 -66t34 -43.5t48 -24t56 -7.5q41 0 74 13.5t59 38.5l28 -31q-32 -31 -72.5 -45.5t-90.5 -14.5q-55 0 -98.5 20t-72.5 63q-42 -29 -75 -45.5t-58.5 -24.5t-44.5 -10.5t-34 -2.5q-69 0 -111.5 35t-42.5 104q0 39 16 65t40.5 41t53.5 21.5t56 6.5h177v56
q0 37 -10 62.5t-28.5 41t-44.5 22t-57 6.5q-35 0 -71.5 -10t-74.5 -36l-24 36q42 28 83 39.5t89 11.5q69 0 108 -23.5t56 -63.5q24 41 66.5 64t99.5 23q41 0 75 -12.5t59 -35t38.5 -55.5t13.5 -73v-91h-333v-55zM213 229q-20 0 -43 -2t-43.5 -11.5t-34 -29t-13.5 -53.5
q0 -26 9 -44.5t24.5 -30.5t36.5 -18t44 -6q21 0 46 7t50.5 17.5t49 24t43.5 25.5q-3 14 -5 32t-2 38v51h-162zM567 456q-27 0 -53.5 -8.5t-47 -27t-33.5 -47t-13 -67.5v-39h287v40q0 40 -12 68.5t-32 46.5t-45 26t-51 8z" />
    <glyph glyph-name="ccedilla" unicode="&#xe7;" horiz-adv-x="410" 
d="M225 -163q21 0 41.5 9t20.5 35q0 13 -6.5 22.5t-17 15t-23.5 7.5t-26 0l-20 10l19 60q-38 4 -68.5 18.5t-51.5 37.5t-32.5 54t-11.5 67v148q0 40 14 72.5t39.5 55.5t60 36t76.5 13q38 0 78.5 -10.5t70.5 -36.5l-28 -36q-29 23 -60.5 32t-56.5 9q-28 0 -54.5 -8
t-47.5 -25.5t-33.5 -45.5t-12.5 -68v-125q0 -39 12.5 -67t33.5 -46t47.5 -26t53.5 -8q24 0 59 8.5t59 27.5l27 -34q-31 -23 -69 -33t-76 -11q-3 -10 -6.5 -19t-6.5 -20q27 0 45 -8t29 -19.5t15.5 -24.5t4.5 -24t-5 -23.5t-16.5 -23.5t-30 -18t-45.5 -7q-11 0 -29.5 2.5
t-43.5 10.5l10 26q17 -5 33 -7.5t29 -2.5z" />
    <glyph glyph-name="egrave" unicode="&#xe8;" horiz-adv-x="466" 
d="M94 227v-46q0 -41 13 -69t34 -45.5t48 -25.5t56 -8q41 0 74 14t59 39l28 -32q-31 -31 -72 -45.5t-91 -14.5q-42 0 -77.5 11.5t-61.5 34t-40.5 56t-14.5 77.5v139q0 42 14 76t39.5 58.5t61 37.5t77.5 13q41 0 75 -13.5t59 -37.5t38.5 -58t13.5 -74v-87h-333zM382 308
q0 40 -12.5 68t-32.5 46t-45 26t-51 8q-27 0 -53.5 -8.5t-47 -26.5t-33.5 -46.5t-13 -67.5v-41h288v42zM246 563l-99 147l48 19l79 -154z" />
    <glyph glyph-name="eacute" unicode="&#xe9;" horiz-adv-x="466" 
d="M94 227v-46q0 -41 13 -69t34 -45.5t48 -25.5t56 -8q41 0 74 14t59 39l28 -32q-31 -31 -72 -45.5t-91 -14.5q-42 0 -77.5 11.5t-61.5 34t-40.5 56t-14.5 77.5v139q0 42 14 76t39.5 58.5t61 37.5t77.5 13q41 0 75 -13.5t59 -37.5t38.5 -58t13.5 -74v-87h-333zM382 308
q0 40 -12.5 68t-32.5 46t-45 26t-51 8q-27 0 -53.5 -8.5t-47 -26.5t-33.5 -46.5t-13 -67.5v-41h288v42zM208 575l78 154l49 -19l-100 -147z" />
    <glyph glyph-name="ecircumflex" unicode="&#xea;" horiz-adv-x="466" 
d="M94 227v-46q0 -41 13 -69t34 -45.5t48 -25.5t56 -8q41 0 74 14t59 39l28 -32q-31 -31 -72 -45.5t-91 -14.5q-42 0 -77.5 11.5t-61.5 34t-40.5 56t-14.5 77.5v139q0 42 14 76t39.5 58.5t61 37.5t77.5 13q41 0 75 -13.5t59 -37.5t38.5 -58t13.5 -74v-87h-333zM382 308
q0 40 -12.5 68t-32.5 46t-45 26t-51 8q-27 0 -53.5 -8.5t-47 -26.5t-33.5 -46.5t-13 -67.5v-41h288v42zM235 654l-127 -98l-21 21l132 124h37l126 -123l-21 -21z" />
    <glyph glyph-name="edieresis" unicode="&#xeb;" horiz-adv-x="466" 
d="M94 227v-46q0 -41 13 -69t34 -45.5t48 -25.5t56 -8q41 0 74 14t59 39l28 -32q-31 -31 -72 -45.5t-91 -14.5q-42 0 -77.5 11.5t-61.5 34t-40.5 56t-14.5 77.5v139q0 42 14 76t39.5 58.5t61 37.5t77.5 13q41 0 75 -13.5t59 -37.5t38.5 -58t13.5 -74v-87h-333zM382 308
q0 40 -12.5 68t-32.5 46t-45 26t-51 8q-27 0 -53.5 -8.5t-47 -26.5t-33.5 -46.5t-13 -67.5v-41h288v42zM360 650q0 -13 -9 -22.5t-23 -9.5q-13 0 -22.5 9.5t-9.5 22.5q0 14 9.5 23t22.5 9q14 0 23 -9t9 -23zM192 650q0 -13 -9.5 -22.5t-23.5 -9.5q-12 0 -21.5 9.5t-9.5 22.5
q0 14 9.5 23t21.5 9q14 0 23.5 -9t9.5 -23z" />
    <glyph glyph-name="igrave" unicode="&#xec;" horiz-adv-x="205" 
d="M80 0v491h44v-491h-44zM91 563l-99 147l48 19l79 -154z" />
    <glyph glyph-name="iacute" unicode="&#xed;" horiz-adv-x="205" 
d="M80 0v491h44v-491h-44zM79 575l78 154l49 -19l-100 -147z" />
    <glyph glyph-name="icircumflex" unicode="&#xee;" horiz-adv-x="275" 
d="M116 0v491h44v-491h-44zM138 654l-127 -98l-21 21l132 124h37l126 -123l-21 -21z" />
    <glyph glyph-name="idieresis" unicode="&#xef;" horiz-adv-x="212" 
d="M84 0v491h44v-491h-44zM222 650q0 -13 -9 -22.5t-23 -9.5q-13 0 -22.5 9.5t-9.5 22.5q0 14 9.5 23t22.5 9q14 0 23 -9t9 -23zM54 650q0 -13 -9.5 -22.5t-23.5 -9.5q-12 0 -21.5 9.5t-9.5 22.5q0 14 9.5 23t21.5 9q14 0 23.5 -9t9.5 -23z" />
    <glyph glyph-name="eth" unicode="&#xf0;" horiz-adv-x="479" 
d="M405 404q-2 54 -8 102.5t-26 79.5q-20 -14 -39 -27.5t-39 -27.5l-17 25l77 55q-23 33 -59.5 51.5t-94.5 24.5q2 10 3.5 20t3.5 19q64 -5 110 -28.5t73 -61.5l77 55l18 -26l-77 -54q29 -52 35 -117t6 -147v-169q0 -84 -50.5 -134t-144.5 -50q-43 0 -78.5 12.5t-60.5 36
t-39 56t-14 72.5v123q0 40 14.5 73.5t40 57.5t61 37.5t77.5 13.5q47 0 87.5 -17.5t63.5 -54.5zM404 287q0 40 -12.5 68t-33 45.5t-47 25.5t-54.5 8q-29 0 -56 -8t-48 -26t-34 -46.5t-13 -68.5v-103q0 -40 12 -68t33 -46t48 -26t57 -8t57 8.5t47.5 26.5t32 46t11.5 67v105z
" />
    <glyph glyph-name="ntilde" unicode="&#xf1;" horiz-adv-x="480" 
d="M281 497q73 0 113 -41.5t40 -126.5v-329h-45v318q0 73 -30.5 104.5t-86.5 30.5q-36 0 -83 -21.5t-96 -54.5v-377h-45v491h37l8 -68q35 21 62.5 35.5t49.5 23t40.5 12t35.5 3.5zM168 684q16 0 33 -6.5t33.5 -14.5t32 -14.5t27.5 -6.5q16 0 28.5 9.5t27.5 31.5l30 -17
q-19 -35 -40 -50t-45 -15q-15 0 -31 6t-32.5 13.5t-32.5 14t-30 6.5q-19 0 -33 -9.5t-30 -29.5l-30 18q19 31 42.5 47.5t49.5 16.5z" />
    <glyph glyph-name="ograve" unicode="&#xf2;" horiz-adv-x="479" 
d="M433 173q0 -84 -53 -131.5t-141 -47.5q-43 0 -78.5 12.5t-61 36t-39.5 56t-14 73.5v150q0 40 15.5 72.5t42 55t61.5 35t75 12.5q41 0 76.5 -12.5t61.5 -35t40.5 -55t14.5 -72.5v-149zM389 308q0 40 -13.5 68t-34.5 45.5t-47.5 25.5t-52.5 8q-27 0 -54 -8t-48 -25.5
t-34.5 -45.5t-13.5 -68v-125q0 -41 12.5 -69t33 -45.5t47.5 -25.5t57 -8t56.5 8.5t47 26.5t32.5 46t12 67v125zM250 563l-99 147l48 19l79 -154z" />
    <glyph glyph-name="oacute" unicode="&#xf3;" horiz-adv-x="479" 
d="M433 173q0 -84 -53 -131.5t-141 -47.5q-43 0 -78.5 12.5t-61 36t-39.5 56t-14 73.5v150q0 40 15.5 72.5t42 55t61.5 35t75 12.5q41 0 76.5 -12.5t61.5 -35t40.5 -55t14.5 -72.5v-149zM389 308q0 40 -13.5 68t-34.5 45.5t-47.5 25.5t-52.5 8q-27 0 -54 -8t-48 -25.5
t-34.5 -45.5t-13.5 -68v-125q0 -41 12.5 -69t33 -45.5t47.5 -25.5t57 -8t56.5 8.5t47 26.5t32.5 46t12 67v125zM209 575l78 154l49 -19l-100 -147z" />
    <glyph glyph-name="ocircumflex" unicode="&#xf4;" horiz-adv-x="479" 
d="M433 173q0 -84 -53 -131.5t-141 -47.5q-43 0 -78.5 12.5t-61 36t-39.5 56t-14 73.5v150q0 40 15.5 72.5t42 55t61.5 35t75 12.5q41 0 76.5 -12.5t61.5 -35t40.5 -55t14.5 -72.5v-149zM389 308q0 40 -13.5 68t-34.5 45.5t-47.5 25.5t-52.5 8q-27 0 -54 -8t-48 -25.5
t-34.5 -45.5t-13.5 -68v-125q0 -41 12.5 -69t33 -45.5t47.5 -25.5t57 -8t56.5 8.5t47 26.5t32.5 46t12 67v125zM243 654l-127 -98l-21 21l132 124h37l126 -123l-21 -21z" />
    <glyph glyph-name="otilde" unicode="&#xf5;" horiz-adv-x="479" 
d="M433 173q0 -84 -53 -131.5t-141 -47.5q-43 0 -78.5 12.5t-61 36t-39.5 56t-14 73.5v150q0 40 15.5 72.5t42 55t61.5 35t75 12.5q41 0 76.5 -12.5t61.5 -35t40.5 -55t14.5 -72.5v-149zM389 308q0 40 -13.5 68t-34.5 45.5t-47.5 25.5t-52.5 8q-27 0 -54 -8t-48 -25.5
t-34.5 -45.5t-13.5 -68v-125q0 -41 12.5 -69t33 -45.5t47.5 -25.5t57 -8t56.5 8.5t47 26.5t32.5 46t12 67v125zM185 684q16 0 33 -6.5t33.5 -14.5t32 -14.5t27.5 -6.5q16 0 28.5 9.5t27.5 31.5l30 -17q-19 -35 -40 -50t-45 -15q-15 0 -31 6t-32.5 13.5t-32.5 14t-30 6.5
q-19 0 -33 -9.5t-30 -29.5l-30 18q19 31 42.5 47.5t49.5 16.5z" />
    <glyph glyph-name="odieresis" unicode="&#xf6;" horiz-adv-x="479" 
d="M433 173q0 -84 -53 -131.5t-141 -47.5q-43 0 -78.5 12.5t-61 36t-39.5 56t-14 73.5v150q0 40 15.5 72.5t42 55t61.5 35t75 12.5q41 0 76.5 -12.5t61.5 -35t40.5 -55t14.5 -72.5v-149zM389 308q0 40 -13.5 68t-34.5 45.5t-47.5 25.5t-52.5 8q-27 0 -54 -8t-48 -25.5
t-34.5 -45.5t-13.5 -68v-125q0 -41 12.5 -69t33 -45.5t47.5 -25.5t57 -8t56.5 8.5t47 26.5t32.5 46t12 67v125zM357 650q0 -13 -9 -22.5t-23 -9.5q-13 0 -22.5 9.5t-9.5 22.5q0 14 9.5 23t22.5 9q14 0 23 -9t9 -23zM189 650q0 -13 -9.5 -22.5t-23.5 -9.5q-12 0 -21.5 9.5
t-9.5 22.5q0 14 9.5 23t21.5 9q14 0 23.5 -9t9.5 -23z" />
    <glyph glyph-name="divide" unicode="&#xf7;" horiz-adv-x="473" 
d="M277 448q0 -16 -11 -27.5t-27 -11.5q-17 0 -28 11.5t-11 27.5q0 17 11.5 27t27.5 10q15 0 26.5 -10t11.5 -27zM28 261v37h416v-37h-416zM240 147q14 0 25.5 -10t11.5 -27q0 -16 -11 -27t-27 -11q-17 0 -28 11t-11 27q0 17 12 27t28 10z" />
    <glyph glyph-name="oslash" unicode="&#xf8;" horiz-adv-x="479" 
d="M433 173q0 -84 -53 -131.5t-141 -47.5q-42 0 -76 11.5t-59 32.5l-34 -45l-24 18l37 49q-37 45 -37 112v150q0 40 15.5 72.5t42 55t61.5 35t75 12.5q41 0 75 -12t60 -34l34 45l24 -17l-37 -49q17 -22 27 -49t10 -59v-149zM389 308q0 50 -22 83l-237 -317q21 -21 50 -30
t61 -9q30 0 56.5 8.5t47 26.5t32.5 46t12 67v125zM91 183q0 -51 20 -85l237 317q-22 21 -50 30.5t-57 9.5q-27 0 -54 -8t-48 -25.5t-34.5 -45.5t-13.5 -68v-125z" />
    <glyph glyph-name="ugrave" unicode="&#xf9;" horiz-adv-x="482" 
d="M395 0l-8 68q-34 -21 -60.5 -35t-48 -23t-39.5 -12.5t-35 -3.5q-76 0 -117 41.5t-41 126.5v329h45v-318q0 -73 31 -104.5t86 -31.5q36 0 83 21.5t96 56.5v376h46v-491h-38zM249 563l-99 147l48 19l79 -154z" />
    <glyph glyph-name="uacute" unicode="&#xfa;" horiz-adv-x="482" 
d="M395 0l-8 68q-34 -21 -60.5 -35t-48 -23t-39.5 -12.5t-35 -3.5q-76 0 -117 41.5t-41 126.5v329h45v-318q0 -73 31 -104.5t86 -31.5q36 0 83 21.5t96 56.5v376h46v-491h-38zM218 575l78 154l49 -19l-100 -147z" />
    <glyph glyph-name="ucircumflex" unicode="&#xfb;" horiz-adv-x="482" 
d="M395 0l-8 68q-34 -21 -60.5 -35t-48 -23t-39.5 -12.5t-35 -3.5q-76 0 -117 41.5t-41 126.5v329h45v-318q0 -73 31 -104.5t86 -31.5q36 0 83 21.5t96 56.5v376h46v-491h-38zM242 654l-127 -98l-21 21l132 124h37l126 -123l-21 -21z" />
    <glyph glyph-name="udieresis" unicode="&#xfc;" horiz-adv-x="482" 
d="M395 0l-8 68q-34 -21 -60.5 -35t-48 -23t-39.5 -12.5t-35 -3.5q-76 0 -117 41.5t-41 126.5v329h45v-318q0 -73 31 -104.5t86 -31.5q36 0 83 21.5t96 56.5v376h46v-491h-38zM356 650q0 -13 -9 -22.5t-23 -9.5q-13 0 -22.5 9.5t-9.5 22.5q0 14 9.5 23t22.5 9q14 0 23 -9
t9 -23zM188 650q0 -13 -9.5 -22.5t-23.5 -9.5q-12 0 -21.5 9.5t-9.5 22.5q0 14 9.5 23t21.5 9q14 0 23.5 -9t9.5 -23z" />
    <glyph glyph-name="yacute" unicode="&#xfd;" horiz-adv-x="428" 
d="M116 -198l72 200l-28 29l-153 459h47q20 -57 38 -114t38 -115l75 -222h1l81 222q21 58 42 115t41 114h47q-63 -174 -126.5 -344.5t-126.5 -343.5h-48zM179 575l78 154l49 -19l-100 -147z" />
    <glyph glyph-name="thorn" unicode="&#xfe;" horiz-adv-x="478" 
d="M93 689v-264q70 45 114 58.5t72 13.5q72 0 113.5 -41t41.5 -126v-166q0 -83 -45.5 -127t-126.5 -44q-30 0 -69.5 8t-99.5 38v-242h-44v892h44zM93 85q55 -28 94 -39t71 -11q66 0 99 33.5t33 105.5v145q0 73 -30 104t-83 31q-34 0 -84 -21t-100 -55v-293z" />
    <glyph glyph-name="ydieresis" unicode="&#xff;" horiz-adv-x="428" 
d="M116 -198l72 200l-28 29l-153 459h47q20 -57 38 -114t38 -115l75 -222h1l81 222q21 58 42 115t41 114h47q-63 -174 -126.5 -344.5t-126.5 -343.5h-48zM328 650q0 -13 -9 -22.5t-23 -9.5q-13 0 -22.5 9.5t-9.5 22.5q0 14 9.5 23t22.5 9q14 0 23 -9t9 -23zM160 650
q0 -13 -9.5 -22.5t-23.5 -9.5q-12 0 -21.5 9.5t-9.5 22.5q0 14 9.5 23t21.5 9q14 0 23.5 -9t9.5 -23z" />
    <glyph glyph-name="Amacron" unicode="&#x100;" horiz-adv-x="568" 
d="M501 0q-14 42 -29 83t-30 83h-315q-14 -42 -28 -83t-28 -83h-51l238 689h54l240 -689h-51zM284 630q-4 -12 -14.5 -44.5t-25 -75t-30.5 -90.5t-30.5 -90.5t-25.5 -75t-15 -44.5h284q-4 12 -14.5 44.5t-25 75t-31 90.5t-31 91t-25.5 75t-15 44h-1zM158 769v41h255v-41
h-255z" />
    <glyph glyph-name="amacron" unicode="&#x101;" horiz-adv-x="466" 
d="M375 61h-1q-36 -23 -64.5 -36t-51 -20t-40.5 -9t-32 -2q-69 0 -111.5 35t-42.5 104q0 39 16 66t40 43.5t53 24t56 7.5h178v49q0 132 -139 132q-35 0 -72 -10t-75 -36l-24 36q42 28 84 39.5t90 11.5q51 0 85.5 -11.5t55.5 -33.5t30 -52.5t9 -68.5v-330h-36zM214 235
q-20 0 -43.5 -3t-44 -13.5t-34 -31t-13.5 -54.5q0 -26 9 -44.5t24.5 -30.5t36 -18t43.5 -6q22 0 45.5 6.5t47.5 16.5t47 22.5t43 24.5v131h-161zM116 593v41h255v-41h-255z" />
    <glyph glyph-name="Abreve" unicode="&#x102;" horiz-adv-x="568" 
d="M501 0q-14 42 -29 83t-30 83h-315q-14 -42 -28 -83t-28 -83h-51l238 689h54l240 -689h-51zM284 630q-4 -12 -14.5 -44.5t-25 -75t-30.5 -90.5t-30.5 -90.5t-25.5 -75t-15 -44.5h284q-4 12 -14.5 44.5t-25 75t-31 90.5t-31 91t-25.5 75t-15 44h-1zM198 840q5 -29 29.5 -51
t59.5 -22q37 0 60.5 22t27.5 51h39q-3 -19 -11 -38.5t-23 -35.5t-38 -26t-55 -10t-55 10t-39 26t-24 35.5t-10 38.5h39z" />
    <glyph glyph-name="abreve" unicode="&#x103;" horiz-adv-x="466" 
d="M375 61h-1q-36 -23 -64.5 -36t-51 -20t-40.5 -9t-32 -2q-69 0 -111.5 35t-42.5 104q0 39 16 66t40 43.5t53 24t56 7.5h178v49q0 132 -139 132q-35 0 -72 -10t-75 -36l-24 36q42 28 84 39.5t90 11.5q51 0 85.5 -11.5t55.5 -33.5t30 -52.5t9 -68.5v-330h-36zM214 235
q-20 0 -43.5 -3t-44 -13.5t-34 -31t-13.5 -54.5q0 -26 9 -44.5t24.5 -30.5t36 -18t43.5 -6q22 0 45.5 6.5t47.5 16.5t47 22.5t43 24.5v131h-161zM159 674q6 -33 31.5 -53t57.5 -20q33 0 56.5 17.5t31.5 55.5h39q-3 -19 -11.5 -38.5t-23.5 -35.5t-38 -26t-54 -10
q-32 0 -55 10t-39 26t-24 35.5t-10 38.5h39z" />
    <glyph glyph-name="Aogonek" unicode="&#x104;" horiz-adv-x="568" 
d="M460 -93q0 20 9 44.5t32 48.5q-14 42 -29 83t-30 83h-315q-14 -42 -28 -83t-28 -83h-51l238 689h54l240 -689h-19q-18 -22 -26 -45.5t-8 -40.5q0 -27 15 -39.5t39 -12.5q26 0 58 16l13 -30q-15 -8 -35.5 -14.5t-43.5 -6.5q-40 0 -62.5 24t-22.5 56zM284 630
q-4 -12 -14.5 -44.5t-25 -75t-30.5 -90.5t-30.5 -90.5t-25.5 -75t-15 -44.5h284q-4 12 -14.5 44.5t-25 75t-31 90.5t-31 91t-25.5 75t-15 44h-1z" />
    <glyph glyph-name="aogonek" unicode="&#x105;" horiz-adv-x="466" 
d="M341 -93q0 20 9.5 44.5t32.5 49.5l-8 60h-1q-36 -23 -64.5 -36t-51 -20t-40.5 -9t-32 -2q-69 0 -111.5 35t-42.5 104q0 39 16 66t40 43.5t53 24t56 7.5h178v49q0 132 -139 132q-35 0 -72 -10t-75 -36l-24 36q42 28 84 39.5t90 11.5q51 0 85.5 -11.5t55.5 -33.5t30 -52.5
t9 -68.5v-330h-5q-18 -22 -26 -45.5t-8 -40.5q0 -27 15 -39.5t39 -12.5q26 0 58 16l13 -30q-15 -8 -35.5 -14.5t-43.5 -6.5q-40 0 -62.5 24t-22.5 56zM214 235q-20 0 -43.5 -3t-44 -13.5t-34 -31t-13.5 -54.5q0 -26 9 -44.5t24.5 -30.5t36 -18t43.5 -6q22 0 45.5 6.5
t47.5 16.5t47 22.5t43 24.5v131h-161z" />
    <glyph glyph-name="Cacute" unicode="&#x106;" horiz-adv-x="502" 
d="M293 696q52 0 95.5 -12t82.5 -39l-26 -39q-32 23 -71 34.5t-81 11.5q-36 0 -71 -11t-62.5 -34.5t-44 -60t-16.5 -87.5v-227q0 -51 17 -88t44 -61t61 -35.5t69 -11.5q88 0 157 49l25 -37q-27 -20 -73 -37.5t-106 -17.5q-55 0 -100 17t-76.5 48t-48.5 73t-17 93v244
q0 50 17.5 92t49.5 72t76.5 47t98.5 17zM230 751l136 108l35 -37l-151 -93z" />
    <glyph glyph-name="cacute" unicode="&#x107;" horiz-adv-x="410" 
d="M239 498q38 0 78.5 -10.5t70.5 -36.5l-28 -36q-29 23 -60.5 32t-56.5 9q-28 0 -54.5 -8t-47.5 -25.5t-33.5 -45.5t-12.5 -68v-125q0 -39 12.5 -67t33.5 -46t47.5 -26t53.5 -8q24 0 59 8.5t59 27.5l27 -34q-31 -23 -70 -33.5t-77 -10.5q-44 0 -79.5 13t-60.5 37t-38 56.5
t-13 71.5v148q0 40 14 72.5t39.5 55.5t60 36t76.5 13zM206 575l78 154l49 -19l-100 -147z" />
    <glyph glyph-name="Ccircumflex" unicode="&#x108;" horiz-adv-x="502" 
d="M293 696q52 0 95.5 -12t82.5 -39l-26 -39q-32 23 -71 34.5t-81 11.5q-36 0 -71 -11t-62.5 -34.5t-44 -60t-16.5 -87.5v-227q0 -51 17 -88t44 -61t61 -35.5t69 -11.5q88 0 157 49l25 -37q-27 -20 -73 -37.5t-106 -17.5q-55 0 -100 17t-76.5 48t-48.5 73t-17 93v244
q0 50 17.5 92t49.5 72t76.5 47t98.5 17zM292 814l-130 -84l-18 21l131 109h37l127 -108l-18 -21z" />
    <glyph glyph-name="ccircumflex" unicode="&#x109;" horiz-adv-x="410" 
d="M239 498q38 0 78.5 -10.5t70.5 -36.5l-28 -36q-29 23 -60.5 32t-56.5 9q-28 0 -54.5 -8t-47.5 -25.5t-33.5 -45.5t-12.5 -68v-125q0 -39 12.5 -67t33.5 -46t47.5 -26t53.5 -8q24 0 59 8.5t59 27.5l27 -34q-31 -23 -70 -33.5t-77 -10.5q-44 0 -79.5 13t-60.5 37t-38 56.5
t-13 71.5v148q0 40 14 72.5t39.5 55.5t60 36t76.5 13zM234 654l-127 -98l-21 21l132 124h37l126 -123l-21 -21z" />
    <glyph glyph-name="Cdotaccent" unicode="&#x10a;" horiz-adv-x="502" 
d="M293 696q52 0 95.5 -12t82.5 -39l-26 -39q-32 23 -71 34.5t-81 11.5q-36 0 -71 -11t-62.5 -34.5t-44 -60t-16.5 -87.5v-227q0 -51 17 -88t44 -61t61 -35.5t69 -11.5q88 0 157 49l25 -37q-27 -20 -73 -37.5t-106 -17.5q-55 0 -100 17t-76.5 48t-48.5 73t-17 93v244
q0 50 17.5 92t49.5 72t76.5 47t98.5 17zM247 807q0 13 9.5 23t23.5 10q16 0 25.5 -10t9.5 -23q0 -14 -9.5 -24.5t-25.5 -10.5q-14 0 -23.5 10t-9.5 25z" />
    <glyph glyph-name="cdotaccent" unicode="&#x10b;" horiz-adv-x="410" 
d="M239 498q38 0 78.5 -10.5t70.5 -36.5l-28 -36q-29 23 -60.5 32t-56.5 9q-28 0 -54.5 -8t-47.5 -25.5t-33.5 -45.5t-12.5 -68v-125q0 -39 12.5 -67t33.5 -46t47.5 -26t53.5 -8q24 0 59 8.5t59 27.5l27 -34q-31 -23 -70 -33.5t-77 -10.5q-44 0 -79.5 13t-60.5 37t-38 56.5
t-13 71.5v148q0 40 14 72.5t39.5 55.5t60 36t76.5 13zM193 637q0 13 9.5 23t23.5 10q16 0 25.5 -10t9.5 -23q0 -14 -9.5 -24.5t-25.5 -10.5q-14 0 -23.5 10t-9.5 25z" />
    <glyph glyph-name="Ccaron" unicode="&#x10c;" horiz-adv-x="502" 
d="M293 696q52 0 95.5 -12t82.5 -39l-26 -39q-32 23 -71 34.5t-81 11.5q-36 0 -71 -11t-62.5 -34.5t-44 -60t-16.5 -87.5v-227q0 -51 17 -88t44 -61t61 -35.5t69 -11.5q88 0 157 49l25 -37q-27 -20 -73 -37.5t-106 -17.5q-55 0 -100 17t-76.5 48t-48.5 73t-17 93v244
q0 50 17.5 92t49.5 72t76.5 47t98.5 17zM412 861l18 -21l-126 -109h-37l-131 110l17 21l130 -84z" />
    <glyph glyph-name="ccaron" unicode="&#x10d;" horiz-adv-x="410" 
d="M239 498q38 0 78.5 -10.5t70.5 -36.5l-28 -36q-29 23 -60.5 32t-56.5 9q-28 0 -54.5 -8t-47.5 -25.5t-33.5 -45.5t-12.5 -68v-125q0 -39 12.5 -67t33.5 -46t47.5 -26t53.5 -8q24 0 59 8.5t59 27.5l27 -34q-31 -23 -70 -33.5t-77 -10.5q-44 0 -79.5 13t-60.5 37t-38 56.5
t-13 71.5v148q0 40 14 72.5t39.5 55.5t60 36t76.5 13zM360 701l21 -20l-126 -124h-37l-132 124l21 21l127 -97z" />
    <glyph glyph-name="Dcaron" unicode="&#x10e;" horiz-adv-x="581" 
d="M533 223q0 -50 -16 -91t-45.5 -70t-71 -45.5t-92.5 -16.5h-252v689h255q51 0 92.5 -16.5t70 -46.5t44 -71.5t15.5 -91.5v-240zM484 455q0 52 -16 88t-41 58.5t-57 33t-63 10.5h-203v-603h191q34 0 67.5 10t60.5 32.5t44 58.5t17 89v223zM399 861l18 -21l-126 -109h-37
l-131 110l17 21l130 -84z" />
    <glyph glyph-name="dcaron" unicode="&#x10f;" horiz-adv-x="577" 
d="M491 686q0 17 11.5 27t28.5 10q21 0 33 -15t12 -39q0 -34 -20 -66t-49 -47l-15 20q37 30 39 73q-17 -1 -28.5 9.5t-11.5 27.5zM395 1l-8 64q-36 -23 -64 -36.5t-50.5 -21.5t-40 -10.5t-31.5 -2.5q-72 0 -113.5 40.5t-41.5 126.5v165q0 83 46.5 127t125.5 44q30 0 69.5 -8
t99.5 -37v263h44v-714h-36zM387 405q-53 26 -93 38t-72 12q-132 0 -132 -140v-144q0 -73 29.5 -104t83.5 -31q34 0 84 20.5t100 55.5v293z" />
    <glyph glyph-name="Dcroat" unicode="&#x110;" horiz-adv-x="581" 
d="M6 380h50v309h255q51 0 92.5 -16.5t70 -46.5t44 -71.5t15.5 -91.5v-240q0 -50 -16 -91t-45.5 -70t-71 -45.5t-92.5 -16.5h-252v342h-50v38zM484 455q0 52 -16 88t-41 58.5t-57 33t-63 10.5h-203v-265h167v-38h-167v-300h191q34 0 67.5 10t60.5 32.5t44 58.5t17 89v223z
" />
    <glyph glyph-name="dcroat" unicode="&#x111;" horiz-adv-x="480" 
d="M203 616h184v99h44v-99h48v-37h-48v-578h-36l-8 64q-36 -23 -64 -36.5t-50.5 -21.5t-40 -10.5t-31.5 -2.5q-72 0 -113.5 40.5t-41.5 126.5v165q0 83 46.5 127t125.5 44q30 0 69.5 -8t99.5 -37v127h-184v37zM387 405q-53 26 -93 38t-72 12q-132 0 -132 -140v-144
q0 -73 29.5 -104t83.5 -31q34 0 84 20.5t100 55.5v293z" />
    <glyph glyph-name="Emacron" unicode="&#x112;" horiz-adv-x="532" 
d="M57 0v689h443v-44h-395v-274h340v-43h-340v-285h395v-43h-443zM160 769v41h255v-41h-255z" />
    <glyph glyph-name="emacron" unicode="&#x113;" horiz-adv-x="466" 
d="M94 227v-46q0 -41 13 -69t34 -45.5t48 -25.5t56 -8q41 0 74 14t59 39l28 -32q-31 -31 -72 -45.5t-91 -14.5q-42 0 -77.5 11.5t-61.5 34t-40.5 56t-14.5 77.5v139q0 42 14 76t39.5 58.5t61 37.5t77.5 13q41 0 75 -13.5t59 -37.5t38.5 -58t13.5 -74v-87h-333zM382 308
q0 40 -12.5 68t-32.5 46t-45 26t-51 8q-27 0 -53.5 -8.5t-47 -26.5t-33.5 -46.5t-13 -67.5v-41h288v42zM117 593v41h255v-41h-255z" />
    <glyph glyph-name="Ebreve" unicode="&#x114;" horiz-adv-x="532" 
d="M57 0v689h443v-44h-395v-274h340v-43h-340v-285h395v-43h-443zM198 840q5 -29 29.5 -51t59.5 -22q37 0 60.5 22t27.5 51h39q-3 -19 -11 -38.5t-23 -35.5t-38 -26t-55 -10t-55 10t-39 26t-24 35.5t-10 38.5h39z" />
    <glyph glyph-name="ebreve" unicode="&#x115;" horiz-adv-x="466" 
d="M94 227v-46q0 -41 13 -69t34 -45.5t48 -25.5t56 -8q41 0 74 14t59 39l28 -32q-31 -31 -72 -45.5t-91 -14.5q-42 0 -77.5 11.5t-61.5 34t-40.5 56t-14.5 77.5v139q0 42 14 76t39.5 58.5t61 37.5t77.5 13q41 0 75 -13.5t59 -37.5t38.5 -58t13.5 -74v-87h-333zM382 308
q0 40 -12.5 68t-32.5 46t-45 26t-51 8q-27 0 -53.5 -8.5t-47 -26.5t-33.5 -46.5t-13 -67.5v-41h288v42zM152 674q6 -33 31.5 -53t57.5 -20q33 0 56.5 17.5t31.5 55.5h39q-3 -19 -11.5 -38.5t-23.5 -35.5t-38 -26t-54 -10q-32 0 -55 10t-39 26t-24 35.5t-10 38.5h39z" />
    <glyph glyph-name="Edotaccent" unicode="&#x116;" horiz-adv-x="532" 
d="M57 0v689h443v-44h-395v-274h340v-43h-340v-285h395v-43h-443zM245 807q0 13 9.5 23t23.5 10q16 0 25.5 -10t9.5 -23q0 -14 -9.5 -24.5t-25.5 -10.5q-14 0 -23.5 10t-9.5 25z" />
    <glyph glyph-name="edotaccent" unicode="&#x117;" horiz-adv-x="466" 
d="M94 227v-46q0 -41 13 -69t34 -45.5t48 -25.5t56 -8q41 0 74 14t59 39l28 -32q-31 -31 -72 -45.5t-91 -14.5q-42 0 -77.5 11.5t-61.5 34t-40.5 56t-14.5 77.5v139q0 42 14 76t39.5 58.5t61 37.5t77.5 13q41 0 75 -13.5t59 -37.5t38.5 -58t13.5 -74v-87h-333zM382 308
q0 40 -12.5 68t-32.5 46t-45 26t-51 8q-27 0 -53.5 -8.5t-47 -26.5t-33.5 -46.5t-13 -67.5v-41h288v42zM211 637q0 13 9.5 23t23.5 10q16 0 25.5 -10t9.5 -23q0 -14 -9.5 -24.5t-25.5 -10.5q-14 0 -23.5 10t-9.5 25z" />
    <glyph glyph-name="Eogonek" unicode="&#x118;" horiz-adv-x="532" 
d="M427 -93q0 20 9 44.5t32 48.5h-411v689h443v-44h-395v-274h340v-43h-340v-285h395v-43q-18 -22 -26 -45.5t-8 -40.5q0 -27 15 -39.5t39 -12.5q26 0 58 16l13 -30q-15 -8 -35.5 -14.5t-43.5 -6.5q-40 0 -62.5 24t-22.5 56z" />
    <glyph glyph-name="eogonek" unicode="&#x119;" horiz-adv-x="466" 
d="M316 -53q0 14 4 29t14 32q-44 -14 -91 -14q-42 0 -77.5 11.5t-61.5 34t-40.5 56t-14.5 77.5v139q0 42 14 76t39.5 58.5t61 37.5t77.5 13q41 0 75 -13.5t59 -37.5t38.5 -58t13.5 -74v-87h-333v-46q0 -41 13 -69t34 -45.5t48 -25.5t56 -8q41 0 74 14t59 39l28 -32
q-5 -5 -10 -9t-10 -9q-17 -21 -24 -43t-7 -39q0 -27 15 -39.5t39 -12.5q26 0 58 16l13 -30q-15 -8 -35.5 -14.5t-43.5 -6.5q-40 0 -62.5 24t-22.5 56zM382 308q0 40 -12.5 68t-32.5 46t-45 26t-51 8q-27 0 -53.5 -8.5t-47 -26.5t-33.5 -46.5t-13 -67.5v-41h288v42z" />
    <glyph glyph-name="Ecaron" unicode="&#x11a;" horiz-adv-x="532" 
d="M57 0v689h443v-44h-395v-274h340v-43h-340v-285h395v-43h-443zM411 861l18 -21l-126 -109h-37l-131 110l17 21l130 -84z" />
    <glyph glyph-name="ecaron" unicode="&#x11b;" horiz-adv-x="466" 
d="M94 227v-46q0 -41 13 -69t34 -45.5t48 -25.5t56 -8q41 0 74 14t59 39l28 -32q-31 -31 -72 -45.5t-91 -14.5q-42 0 -77.5 11.5t-61.5 34t-40.5 56t-14.5 77.5v139q0 42 14 76t39.5 58.5t61 37.5t77.5 13q41 0 75 -13.5t59 -37.5t38.5 -58t13.5 -74v-87h-333zM382 308
q0 40 -12.5 68t-32.5 46t-45 26t-51 8q-27 0 -53.5 -8.5t-47 -26.5t-33.5 -46.5t-13 -67.5v-41h288v42zM363 701l21 -20l-126 -124h-37l-132 124l21 21l127 -97z" />
    <glyph glyph-name="Gcircumflex" unicode="&#x11c;" horiz-adv-x="549" 
d="M501 72q-43 -41 -96.5 -60t-112.5 -19q-55 0 -100 17t-77 48t-49.5 73t-17.5 93v244q0 50 18 92t50.5 72t78 47t101.5 17q52 0 97 -12t83 -39l-26 -39q-32 23 -72 34.5t-82 11.5q-38 0 -73.5 -11t-64 -34.5t-45.5 -60t-17 -87.5v-227q0 -51 16.5 -88t44 -61t62.5 -35.5
t72 -11.5q12 0 30 1.5t39.5 7.5t45 17t47.5 30v205h-119v45h167v-270zM287 814l-130 -84l-18 21l131 109h37l127 -108l-18 -21z" />
    <glyph glyph-name="gcircumflex" unicode="&#x11d;" horiz-adv-x="479" 
d="M200 496q14 0 31 -1.5t39.5 -8t50.5 -19.5t64 -35l8 59h37v-530q0 -42 -15 -74t-41 -54t-63 -33t-80 -11q-40 0 -83.5 11.5t-75.5 37.5l29 35q24 -20 61.5 -31t69.5 -11q31 0 59 7.5t49 24.5t33 44.5t12 68.5v91q-35 -23 -63 -37t-50.5 -22t-41 -11t-33.5 -3
q-71 -2 -112 40.5t-41 126.5v168q0 84 44 125.5t112 41.5zM385 383q-51 35 -97.5 52.5t-83.5 17.5q-54 0 -84.5 -31t-30.5 -105v-144q0 -72 27.5 -104t83.5 -32q37 0 86.5 21.5t98.5 54.5v270zM244 654l-127 -98l-21 21l132 124h37l126 -123l-21 -21z" />
    <glyph glyph-name="Gbreve" unicode="&#x11e;" horiz-adv-x="549" 
d="M501 72q-43 -41 -96.5 -60t-112.5 -19q-55 0 -100 17t-77 48t-49.5 73t-17.5 93v244q0 50 18 92t50.5 72t78 47t101.5 17q52 0 97 -12t83 -39l-26 -39q-32 23 -72 34.5t-82 11.5q-38 0 -73.5 -11t-64 -34.5t-45.5 -60t-17 -87.5v-227q0 -51 16.5 -88t44 -61t62.5 -35.5
t72 -11.5q12 0 30 1.5t39.5 7.5t45 17t47.5 30v205h-119v45h167v-270zM203 840q5 -29 29.5 -51t59.5 -22q37 0 60.5 22t27.5 51h39q-3 -19 -11 -38.5t-23 -35.5t-38 -26t-55 -10t-55 10t-39 26t-24 35.5t-10 38.5h39z" />
    <glyph glyph-name="gbreve" unicode="&#x11f;" horiz-adv-x="479" 
d="M200 496q14 0 31 -1.5t39.5 -8t50.5 -19.5t64 -35l8 59h37v-530q0 -42 -15 -74t-41 -54t-63 -33t-80 -11q-40 0 -83.5 11.5t-75.5 37.5l29 35q24 -20 61.5 -31t69.5 -11q31 0 59 7.5t49 24.5t33 44.5t12 68.5v91q-35 -23 -63 -37t-50.5 -22t-41 -11t-33.5 -3
q-71 -2 -112 40.5t-41 126.5v168q0 84 44 125.5t112 41.5zM385 383q-51 35 -97.5 52.5t-83.5 17.5q-54 0 -84.5 -31t-30.5 -105v-144q0 -72 27.5 -104t83.5 -32q37 0 86.5 21.5t98.5 54.5v270zM169 674q6 -33 31.5 -53t57.5 -20q33 0 56.5 17.5t31.5 55.5h39
q-3 -19 -11.5 -38.5t-23.5 -35.5t-38 -26t-54 -10q-32 0 -55 10t-39 26t-24 35.5t-10 38.5h39z" />
    <glyph glyph-name="Gdotaccent" unicode="&#x120;" horiz-adv-x="549" 
d="M501 72q-43 -41 -96.5 -60t-112.5 -19q-55 0 -100 17t-77 48t-49.5 73t-17.5 93v244q0 50 18 92t50.5 72t78 47t101.5 17q52 0 97 -12t83 -39l-26 -39q-32 23 -72 34.5t-82 11.5q-38 0 -73.5 -11t-64 -34.5t-45.5 -60t-17 -87.5v-227q0 -51 16.5 -88t44 -61t62.5 -35.5
t72 -11.5q12 0 30 1.5t39.5 7.5t45 17t47.5 30v205h-119v45h167v-270zM255 807q0 13 9.5 23t23.5 10q16 0 25.5 -10t9.5 -23q0 -14 -9.5 -24.5t-25.5 -10.5q-14 0 -23.5 10t-9.5 25z" />
    <glyph glyph-name="gdotaccent" unicode="&#x121;" horiz-adv-x="479" 
d="M200 496q14 0 31 -1.5t39.5 -8t50.5 -19.5t64 -35l8 59h37v-530q0 -42 -15 -74t-41 -54t-63 -33t-80 -11q-40 0 -83.5 11.5t-75.5 37.5l29 35q24 -20 61.5 -31t69.5 -11q31 0 59 7.5t49 24.5t33 44.5t12 68.5v91q-35 -23 -63 -37t-50.5 -22t-41 -11t-33.5 -3
q-71 -2 -112 40.5t-41 126.5v168q0 84 44 125.5t112 41.5zM385 383q-51 35 -97.5 52.5t-83.5 17.5q-54 0 -84.5 -31t-30.5 -105v-144q0 -72 27.5 -104t83.5 -32q37 0 86.5 21.5t98.5 54.5v270zM221 637q0 13 9.5 23t23.5 10q16 0 25.5 -10t9.5 -23q0 -14 -9.5 -24.5
t-25.5 -10.5q-14 0 -23.5 10t-9.5 25z" />
    <glyph glyph-name="Gcommaaccent" unicode="&#x122;" horiz-adv-x="549" 
d="M501 72q-43 -41 -96.5 -60t-112.5 -19q-55 0 -100 17t-77 48t-49.5 73t-17.5 93v244q0 50 18 92t50.5 72t78 47t101.5 17q52 0 97 -12t83 -39l-26 -39q-32 23 -72 34.5t-82 11.5q-38 0 -73.5 -11t-64 -34.5t-45.5 -60t-17 -87.5v-227q0 -51 16.5 -88t44 -61t62.5 -35.5
t72 -11.5q12 0 30 1.5t39.5 7.5t45 17t47.5 30v205h-119v45h167v-270zM247 -110q0 17 11.5 27t28.5 10q21 0 33 -15t12 -39q0 -34 -20 -66t-49 -47l-15 20q37 30 39 73q-17 -1 -28.5 9.5t-11.5 27.5z" />
    <glyph glyph-name="gcommaaccent" unicode="&#x123;" horiz-adv-x="479" 
d="M44 328q0 85 43 126.5t112 41.5q14 0 31.5 -1.5t40 -8t50.5 -19.5t64 -35q2 15 4 29.5t4 29.5h36v-530q0 -42 -14.5 -74t-41 -54t-63 -33t-79.5 -11q-41 0 -84 11.5t-75 37.5l29 36q12 -10 27.5 -18t33.5 -13.5t36 -8.5t34 -3q31 0 59 7.5t49 24.5t33 45t12 69v90
q-36 -24 -65.5 -38.5t-52.5 -22t-42 -9.5t-34 -2q-69 0 -108 41.5t-39 123.5v168zM88 173q0 -73 28 -104.5t84 -31.5q37 0 86.5 21t98.5 54v270q-51 35 -98 53t-84 18q-53 0 -84 -31.5t-31 -105.5v-143zM299 692q-37 -30 -39 -74h4q16 0 26 -9.5t10 -26.5t-11.5 -27
t-28.5 -10q-21 0 -33 15t-12 39q0 34 20 66t49 47z" />
    <glyph glyph-name="Hcircumflex" unicode="&#x124;" horiz-adv-x="596" 
d="M492 0v329h-390v-329h-47v689h47v-317h390v317h50v-689h-50zM299 814l-130 -84l-18 21l131 109h37l127 -108l-18 -21z" />
    <glyph glyph-name="hcircumflex" unicode="&#x125;" horiz-adv-x="479" 
d="M303 497q150 0 150 -168v-329h-45v318q0 73 -28 104t-84 31q-18 0 -40.5 -6t-46.5 -16.5t-49 -23.5t-48 -28v-379h-45v716h45v-293q69 44 114.5 59t76.5 15zM92 814l-130 -84l-18 21l131 109h37l127 -108l-18 -21z" />
    <glyph glyph-name="Hbar" unicode="&#x126;" horiz-adv-x="596" 
d="M6 598h49v91h47v-91h390v91h50v-91h47v-37h-47v-561h-50v329h-390v-329h-47v561h-49v37zM492 372v189h-390v-189h390z" />
    <glyph glyph-name="hbar" unicode="&#x127;" horiz-adv-x="479" 
d="M285 497q150 0 150 -168v-329h-45v318q0 73 -28 104t-84 31q-18 0 -40.5 -6t-46.5 -16.5t-49 -23.5t-48 -28v-379h-45v580h-49v37h49v99h45v-99h243v-37h-243v-157q69 44 114.5 59t76.5 15z" />
    <glyph glyph-name="Itilde" unicode="&#x128;" horiz-adv-x="216" 
d="M84 0v689h48v-689h-48zM50 854q16 0 33 -6.5t33.5 -14.5t32 -14.5t27.5 -6.5q16 0 28.5 9.5t27.5 31.5l30 -17q-19 -35 -40 -50t-45 -15q-15 0 -31 6t-32.5 13.5t-32.5 14t-30 6.5q-19 0 -33 -9.5t-30 -29.5l-30 18q19 31 42.5 47.5t49.5 16.5z" />
    <glyph glyph-name="itilde" unicode="&#x129;" horiz-adv-x="284" 
d="M118 0v491h44v-491h-44zM82 684q16 0 33 -6.5t33.5 -14.5t32 -14.5t27.5 -6.5q16 0 28.5 9.5t27.5 31.5l30 -17q-19 -35 -40 -50t-45 -15q-15 0 -31 6t-32.5 13.5t-32.5 14t-30 6.5q-19 0 -33 -9.5t-30 -29.5l-30 18q19 31 42.5 47.5t49.5 16.5z" />
    <glyph glyph-name="Imacron" unicode="&#x12a;" horiz-adv-x="216" 
d="M84 0v689h48v-689h-48zM-19 769v41h255v-41h-255z" />
    <glyph glyph-name="imacron" unicode="&#x12b;" horiz-adv-x="235" 
d="M95 0v491h44v-491h-44zM-10 593v41h255v-41h-255z" />
    <glyph glyph-name="Ibreve" unicode="&#x12c;" horiz-adv-x="235" 
d="M29 839q5 -29 29.5 -51t59.5 -22q37 0 60.5 22t27.5 51h39q-3 -19 -11 -38.5t-23 -35.5t-38 -26t-55 -10t-55 10t-39 26t-24 35.5t-10 38.5h39zM94 0v689h48v-689h-48z" />
    <glyph glyph-name="ibreve" unicode="&#x12d;" horiz-adv-x="235" 
d="M94 0v491h44v-491h-44zM29 680q6 -33 31.5 -53t57.5 -20q33 0 56.5 17.5t31.5 55.5h39q-3 -19 -11.5 -38.5t-23.5 -35.5t-38 -26t-54 -10q-32 0 -55 10t-39 26t-24 35.5t-10 38.5h39z" />
    <glyph glyph-name="Iogonek" unicode="&#x12e;" horiz-adv-x="216" 
d="M52 -93q0 20 9 44.5t32 48.5h-9v689h48v-689h-7q-18 -22 -26 -45.5t-8 -40.5q0 -27 15 -39.5t39 -12.5q26 0 58 16l13 -30q-15 -8 -35.5 -14.5t-43.5 -6.5q-40 0 -62.5 24t-22.5 56z" />
    <glyph glyph-name="iogonek" unicode="&#x12f;" horiz-adv-x="185" 
d="M36 -92q0 20 8.5 44t31.5 48h-6v491h44v-491h-6q-18 -22 -25.5 -45t-7.5 -40q0 -27 15 -39.5t39 -12.5q26 0 58 16l13 -30q-15 -8 -35.5 -14.5t-43.5 -6.5q-40 0 -62.5 24t-22.5 56zM125 653q0 -14 -9.5 -23.5t-23.5 -9.5q-13 0 -22.5 9.5t-9.5 23.5t9.5 23t22.5 9
q14 0 23.5 -9t9.5 -23z" />
    <glyph glyph-name="Idotaccent" unicode="&#x130;" horiz-adv-x="216" 
d="M84 0v689h48v-689h-48zM76 807q0 13 9.5 23t23.5 10q16 0 25.5 -10t9.5 -23q0 -14 -9.5 -24.5t-25.5 -10.5q-14 0 -23.5 10t-9.5 25z" />
    <glyph glyph-name="dotlessi" unicode="&#x131;" horiz-adv-x="205" 
d="M80 0v491h44v-491h-44z" />
    <glyph glyph-name="IJ" unicode="&#x132;" horiz-adv-x="676" 
d="M84 0v689h48v-689h-48zM592 225q0 -51 -15.5 -93.5t-45.5 -73t-74.5 -48t-101.5 -17.5q-47 0 -87.5 12.5t-69.5 30.5l23 39q32 -19 64 -29t67 -10q41 0 76.5 11.5t61 36t40 62t14.5 88.5v456h48v-465z" />
    <glyph glyph-name="ij" unicode="&#x133;" horiz-adv-x="349" 
d="M125 653q0 -14 -9.5 -23.5t-23.5 -9.5q-13 0 -22.5 9.5t-9.5 23.5t9.5 23t22.5 9q14 0 23.5 -9t9.5 -23zM70 0v491h44v-491h-44zM289 653q0 -14 -9.5 -23.5t-23.5 -9.5q-13 0 -22.5 9.5t-9.5 23.5t9.5 23t22.5 9q14 0 23.5 -9t9.5 -23zM233 491h45v-578q0 -64 -27 -93
t-84 -29h-37v41h31q40 0 56 19t16 70v570z" />
    <glyph glyph-name="Jcircumflex" unicode="&#x134;" horiz-adv-x="504" 
d="M420 226q0 -51 -15.5 -93.5t-45.5 -73t-74.5 -48t-101.5 -17.5q-47 0 -87.5 12.5t-69.5 30.5l23 39q32 -19 64 -29t67 -10q41 0 76.5 11.5t61 36t40 62t14.5 88.5v456h48v-465zM397 816l-130 -84l-18 21l131 109h37l127 -108l-18 -21z" />
    <glyph glyph-name="jcircumflex" unicode="&#x135;" horiz-adv-x="284" 
d="M118 491h45v-578q0 -64 -27 -93t-84 -29h-37v40h31q40 0 56 19.5t16 70.5v570zM142 654l-126 -98l-21 21l131 124h37l126 -123l-21 -21z" />
    <glyph glyph-name="Kcommaaccent" unicode="&#x136;" horiz-adv-x="539" 
d="M293 423l245 -423h-56l-222 383q-39 -48 -78 -97t-79 -98v-188h-48v689h48v-427l346 427h58zM230 -90q0 17 11.5 27t28.5 10q21 0 33 -15t12 -39q0 -34 -20 -66t-49 -47l-15 20q37 30 39 73q-17 -1 -28.5 9.5t-11.5 27.5z" />
    <glyph glyph-name="kcommaaccent" unicode="&#x137;" horiz-adv-x="449" 
d="M49 0v716h44v-411h114q30 0 58.5 13t48.5 55l57 120h49l-57 -126q-13 -28 -30 -48.5t-49 -32.5q19 -3 33 -12.5t23.5 -22.5t16 -28.5t11.5 -31.5l66 -191h-49l-60 171q-10 29 -20 46.5t-22.5 27.5t-29 13t-40.5 3h-120v-261h-44zM183 -110q0 17 11.5 27t28.5 10
q21 0 33 -15t12 -39q0 -34 -20 -66t-49 -47l-15 20q37 30 39 73q-17 -1 -28.5 9.5t-11.5 27.5z" />
    <glyph glyph-name="kgreenlandic" unicode="&#x138;" horiz-adv-x="472" 
d="M65 0v492h45v-219h132q29 0 53.5 13t41.5 59l55 147h45l-52 -140q-13 -35 -27.5 -60.5t-43.5 -33.5q18 -4 29.5 -13t20 -21.5t15 -28.5t12.5 -34l56 -161h-47l-53 155q-8 24 -18 39.5t-22 24t-26 11.5t-32 3h-139v-233h-45z" />
    <glyph glyph-name="Lacute" unicode="&#x139;" horiz-adv-x="502" 
d="M58 0v689h48v-646h392v-43h-440zM67 751l136 108l35 -37l-151 -93z" />
    <glyph glyph-name="lacute" unicode="&#x13a;" horiz-adv-x="250" 
d="M135 113q0 -47 17.5 -61.5t59.5 -12.5l2 -41q-9 -2 -16.5 -2h-15.5q-51 0 -71 27.5t-20 82.5v610h44v-603zM91 767l136 108l35 -37l-151 -93z" />
    <glyph glyph-name="Lcommaaccent" unicode="&#x13b;" horiz-adv-x="502" 
d="M58 0v689h48v-646h392v-43h-440zM223 -110q0 17 11.5 27t28.5 10q21 0 33 -15t12 -39q0 -34 -20 -66t-49 -47l-15 20q37 30 39 73q-17 -1 -28.5 9.5t-11.5 27.5z" />
    <glyph glyph-name="lcommaaccent" unicode="&#x13c;" horiz-adv-x="250" 
d="M135 113q0 -47 17.5 -61.5t59.5 -12.5l2 -41q-9 -2 -16.5 -2h-15.5q-51 0 -71 27.5t-20 82.5v610h44v-603zM103 -110q0 17 11.5 27t28.5 10q21 0 33 -15t12 -39q0 -34 -20 -66t-49 -47l-15 20q37 30 39 73q-17 -1 -28.5 9.5t-11.5 27.5z" />
    <glyph glyph-name="Lcaron" unicode="&#x13d;" horiz-adv-x="502" 
d="M58 0v689h48v-646h392v-43h-440zM262 659q0 17 11.5 27t28.5 10q21 0 33 -15t12 -39q0 -34 -20 -66t-49 -47l-15 20q37 30 39 73q-17 -1 -28.5 9.5t-11.5 27.5z" />
    <glyph glyph-name="lcaron" unicode="&#x13e;" horiz-adv-x="269" 
d="M190 682q0 17 11.5 27t28.5 10q21 0 33 -15t12 -39q0 -34 -20 -66t-49 -47l-15 20q37 30 39 73q-17 -1 -28.5 9.5t-11.5 27.5zM135 113q0 -47 17.5 -61.5t59.5 -12.5l2 -41q-9 -2 -16.5 -2h-15.5q-51 0 -71 27.5t-20 82.5v610h44v-603z" />
    <glyph glyph-name="Ldot" unicode="&#x13f;" horiz-adv-x="502" 
d="M58 0v689h48v-646h392v-43h-440zM265 351q0 13 9.5 23t23.5 10q16 0 25.5 -10t9.5 -23q0 -14 -9.5 -24.5t-25.5 -10.5q-14 0 -23.5 10t-9.5 25z" />
    <glyph glyph-name="ldot" unicode="&#x140;" horiz-adv-x="272" 
d="M200 378q0 13 9.5 23t23.5 10q16 0 25.5 -10t9.5 -23q0 -14 -9.5 -24.5t-25.5 -10.5q-14 0 -23.5 10t-9.5 25zM135 113q0 -47 17.5 -61.5t59.5 -12.5l2 -41q-9 -2 -16.5 -2h-15.5q-51 0 -71 27.5t-20 82.5v610h44v-603z" />
    <glyph glyph-name="Lslash" unicode="&#x141;" horiz-adv-x="502" 
d="M58 0v251l-55 -32l-19 33l74 43v394h48v-366l161 93l19 -33l-180 -104v-236h392v-43h-440z" />
    <glyph glyph-name="lslash" unicode="&#x142;" horiz-adv-x="266" 
d="M196 -1q-50 0 -72.5 24.5t-22.5 83.5v212l-82 -47l-19 33l101 58v353h44v-328l99 57l19 -32l-118 -68v-232q0 -39 12.5 -56t46.5 -17h21v-41h-29z" />
    <glyph glyph-name="Nacute" unicode="&#x143;" horiz-adv-x="613" 
d="M505 0q-63 95 -125.5 189.5t-126.5 190.5q-37 56 -73.5 112.5t-75.5 111.5v-604h-48v689h48l256 -386q37 -56 73.5 -111.5t74.5 -110.5v608h48v-689h-51zM267 751l136 108l35 -37l-151 -93z" />
    <glyph glyph-name="nacute" unicode="&#x144;" horiz-adv-x="480" 
d="M281 497q73 0 113 -41.5t40 -126.5v-329h-45v318q0 73 -30.5 104.5t-86.5 30.5q-36 0 -83 -21.5t-96 -54.5v-377h-45v491h37l8 -68q35 21 62.5 35.5t49.5 23t40.5 12t35.5 3.5zM196 575l78 154l49 -19l-100 -147z" />
    <glyph glyph-name="Ncommaaccent" unicode="&#x145;" horiz-adv-x="613" 
d="M505 0q-63 95 -125.5 189.5t-126.5 190.5q-37 56 -73.5 112.5t-75.5 111.5v-604h-48v689h48l256 -386q37 -56 73.5 -111.5t74.5 -110.5v608h48v-689h-51zM263 -90q0 17 11.5 27t28.5 10q21 0 33 -15t12 -39q0 -34 -20 -66t-49 -47l-15 20q37 30 39 73q-17 -1 -28.5 9.5
t-11.5 27.5z" />
    <glyph glyph-name="ncommaaccent" unicode="&#x146;" horiz-adv-x="480" 
d="M281 497q73 0 113 -41.5t40 -126.5v-329h-45v318q0 73 -30.5 104.5t-86.5 30.5q-36 0 -83 -21.5t-96 -54.5v-377h-45v491h37l8 -68q35 21 62.5 35.5t49.5 23t40.5 12t35.5 3.5zM197 -110q0 17 11.5 27t28.5 10q21 0 33 -15t12 -39q0 -34 -20 -66t-49 -47l-15 20
q37 30 39 73q-17 -1 -28.5 9.5t-11.5 27.5z" />
    <glyph glyph-name="Ncaron" unicode="&#x147;" horiz-adv-x="613" 
d="M505 0q-63 95 -125.5 189.5t-126.5 190.5q-37 56 -73.5 112.5t-75.5 111.5v-604h-48v689h48l256 -386q37 -56 73.5 -111.5t74.5 -110.5v608h48v-689h-51zM440 861l18 -21l-126 -109h-37l-131 110l17 21l130 -84z" />
    <glyph glyph-name="ncaron" unicode="&#x148;" horiz-adv-x="480" 
d="M281 497q73 0 113 -41.5t40 -126.5v-329h-45v318q0 73 -30.5 104.5t-86.5 30.5q-36 0 -83 -21.5t-96 -54.5v-377h-45v491h37l8 -68q35 21 62.5 35.5t49.5 23t40.5 12t35.5 3.5zM344 701l21 -20l-126 -124h-37l-132 124l21 21l127 -97z" />
    <glyph glyph-name="napostrophe" unicode="&#x149;" horiz-adv-x="532" 
d="M333 497q73 0 113 -41.5t40 -126.5v-329h-45v318q0 73 -30.5 104.5t-86.5 30.5q-36 0 -83 -21.5t-96 -54.5v-377h-45v491h37l8 -68q35 21 62.5 35.5t49.5 23t40.5 12t35.5 3.5zM0 617q0 17 11.5 27t28.5 10q21 0 33 -15t12 -39q0 -34 -20 -66t-49 -47l-15 20q37 30 39 73
q-17 -1 -28.5 9.5t-11.5 27.5z" />
    <glyph glyph-name="Eng" unicode="&#x14a;" horiz-adv-x="613" 
d="M457 -124q53 0 53 59v60l-263 394l-105 160l-38 55v-604h-48v689h48l263 -397q26 -39 51.5 -78t51.5 -78l38 -55v608h48v-754q0 -54 -26.5 -77t-62.5 -23q-43 0 -76 21q4 8 7 17t7 18q30 -15 52 -15z" />
    <glyph glyph-name="eng" unicode="&#x14b;" horiz-adv-x="480" 
d="M281 497q73 0 113 -41.5t40 -126.5v-394q0 -54 -26 -77.5t-62 -23.5q-21 0 -40 5.5t-36 15.5l14 34q14 -7 27.5 -11t24.5 -4q53 0 53 60v384q0 73 -30.5 104t-86.5 31q-36 0 -83 -21.5t-96 -54.5v-377h-45v491h37l8 -68q35 21 62.5 35.5t49.5 23t40.5 12t35.5 3.5z" />
    <glyph glyph-name="Omacron" unicode="&#x14c;" horiz-adv-x="587" 
d="M536 220q0 -51 -17.5 -93t-49 -71.5t-76.5 -46t-100 -16.5q-56 0 -100.5 16.5t-76 47t-48.5 73t-17 93.5v245q0 50 16.5 92t48 72t76.5 47t101 17q55 0 100 -17t76.5 -47.5t49 -72.5t17.5 -91v-248zM488 459q0 49 -16 85.5t-43 60.5t-62 35.5t-74 11.5q-40 0 -75.5 -11.5
t-61.5 -35.5t-41.5 -60.5t-15.5 -85.5v-231q0 -51 17 -87t44.5 -59.5t62.5 -34.5t70 -11q40 0 75.5 11.5t62 35t42 59.5t15.5 86v231zM166 769v41h255v-41h-255z" />
    <glyph glyph-name="omacron" unicode="&#x14d;" horiz-adv-x="479" 
d="M433 173q0 -84 -53 -131.5t-141 -47.5q-43 0 -78.5 12.5t-61 36t-39.5 56t-14 73.5v150q0 40 15.5 72.5t42 55t61.5 35t75 12.5q41 0 76.5 -12.5t61.5 -35t40.5 -55t14.5 -72.5v-149zM389 308q0 40 -13.5 68t-34.5 45.5t-47.5 25.5t-52.5 8q-27 0 -54 -8t-48 -25.5
t-34.5 -45.5t-13.5 -68v-125q0 -41 12.5 -69t33 -45.5t47.5 -25.5t57 -8t56.5 8.5t47 26.5t32.5 46t12 67v125zM115 593v41h255v-41h-255z" />
    <glyph glyph-name="Obreve" unicode="&#x14e;" horiz-adv-x="587" 
d="M536 220q0 -51 -17.5 -93t-49 -71.5t-76.5 -46t-100 -16.5q-56 0 -100.5 16.5t-76 47t-48.5 73t-17 93.5v245q0 50 16.5 92t48 72t76.5 47t101 17q55 0 100 -17t76.5 -47.5t49 -72.5t17.5 -91v-248zM488 459q0 49 -16 85.5t-43 60.5t-62 35.5t-74 11.5q-40 0 -75.5 -11.5
t-61.5 -35.5t-41.5 -60.5t-15.5 -85.5v-231q0 -51 17 -87t44.5 -59.5t62.5 -34.5t70 -11q40 0 75.5 11.5t62 35t42 59.5t15.5 86v231zM200 840q5 -29 29.5 -51t59.5 -22q37 0 60.5 22t27.5 51h39q-3 -19 -11 -38.5t-23 -35.5t-38 -26t-55 -10t-55 10t-39 26t-24 35.5
t-10 38.5h39z" />
    <glyph glyph-name="obreve" unicode="&#x14f;" horiz-adv-x="479" 
d="M433 173q0 -84 -53 -131.5t-141 -47.5q-43 0 -78.5 12.5t-61 36t-39.5 56t-14 73.5v150q0 40 15.5 72.5t42 55t61.5 35t75 12.5q41 0 76.5 -12.5t61.5 -35t40.5 -55t14.5 -72.5v-149zM389 308q0 40 -13.5 68t-34.5 45.5t-47.5 25.5t-52.5 8q-27 0 -54 -8t-48 -25.5
t-34.5 -45.5t-13.5 -68v-125q0 -41 12.5 -69t33 -45.5t47.5 -25.5t57 -8t56.5 8.5t47 26.5t32.5 46t12 67v125zM152 674q6 -33 31.5 -53t57.5 -20q33 0 56.5 17.5t31.5 55.5h39q-3 -19 -11.5 -38.5t-23.5 -35.5t-38 -26t-54 -10q-32 0 -55 10t-39 26t-24 35.5t-10 38.5h39z
" />
    <glyph glyph-name="Ohungarumlaut" unicode="&#x150;" horiz-adv-x="587" 
d="M536 220q0 -51 -17.5 -93t-49 -71.5t-76.5 -46t-100 -16.5q-56 0 -100.5 16.5t-76 47t-48.5 73t-17 93.5v245q0 50 16.5 92t48 72t76.5 47t101 17q55 0 100 -17t76.5 -47.5t49 -72.5t17.5 -91v-248zM488 459q0 49 -16 85.5t-43 60.5t-62 35.5t-74 11.5q-40 0 -75.5 -11.5
t-61.5 -35.5t-41.5 -60.5t-15.5 -85.5v-231q0 -51 17 -87t44.5 -59.5t62.5 -34.5t70 -11q40 0 75.5 11.5t62 35t42 59.5t15.5 86v231zM310 751l136 108l35 -37l-151 -93zM193 751l135 108l36 -37l-152 -93z" />
    <glyph glyph-name="ohungarumlaut" unicode="&#x151;" horiz-adv-x="479" 
d="M433 173q0 -84 -53 -131.5t-141 -47.5q-43 0 -78.5 12.5t-61 36t-39.5 56t-14 73.5v150q0 40 15.5 72.5t42 55t61.5 35t75 12.5q41 0 76.5 -12.5t61.5 -35t40.5 -55t14.5 -72.5v-149zM389 308q0 40 -13.5 68t-34.5 45.5t-47.5 25.5t-52.5 8q-27 0 -54 -8t-48 -25.5
t-34.5 -45.5t-13.5 -68v-125q0 -41 12.5 -69t33 -45.5t47.5 -25.5t57 -8t56.5 8.5t47 26.5t32.5 46t12 67v125zM163 575l79 154l48 -19l-99 -147zM264 575l79 154l48 -19l-99 -147z" />
    <glyph glyph-name="OE" unicode="&#x152;" horiz-adv-x="839" 
d="M364 0q-17 -3 -34.5 -5t-36.5 -2q-56 0 -100.5 16.5t-76 47t-48.5 73t-17 93.5v245q0 50 16.5 92t48 72t76.5 47t101 17q19 0 36.5 -2t34.5 -5h443v-44h-395v-274h339v-43h-339v-285h395v-43h-443zM293 36q19 0 36.5 2t34.5 7v597q-33 10 -71 10q-40 0 -75.5 -11.5
t-61.5 -35.5t-41.5 -60.5t-15.5 -85.5v-231q0 -51 17 -87t44.5 -59.5t62.5 -34.5t70 -11z" />
    <glyph glyph-name="oe" unicode="&#x153;" horiz-adv-x="805" 
d="M434 227v-46q0 -41 12.5 -69t33.5 -45.5t48 -25.5t56 -8q42 0 74.5 14t58.5 39l29 -32q-32 -31 -73 -45.5t-91 -14.5q-60 0 -104.5 23t-67.5 68q-22 -44 -65.5 -67.5t-105.5 -23.5q-43 0 -78.5 12.5t-61 36t-39.5 56t-14 73.5v150q0 40 15.5 72.5t42 55t61.5 35t75 12.5
q59 0 104 -24.5t68 -69.5q23 44 66.5 69t101.5 25q41 0 75.5 -12.5t59 -35.5t38 -56t13.5 -73v-93h-332zM388 316q0 36 -13.5 62.5t-35 43.5t-47.5 25t-51 8q-27 0 -54 -8t-48 -25.5t-34.5 -45.5t-13.5 -68v-125q0 -41 12.5 -69t33 -45.5t47.5 -25.5t57 -8q28 0 54 8
t46.5 24.5t33.5 41.5t13 58v149zM721 308q0 40 -12 68t-32 46t-45.5 26t-51.5 8q-27 0 -53 -8.5t-47 -26.5t-33.5 -46.5t-12.5 -67.5v-41h287v42z" />
    <glyph glyph-name="Racute" unicode="&#x154;" horiz-adv-x="555" 
d="M104 0h-48v689h270q49 0 85.5 -17.5t60.5 -45.5t36 -63.5t12 -71.5q0 -29 -8.5 -58t-26 -54.5t-43.5 -45t-60 -28.5l134 -305h-53l-129 296h-230v-296zM104 644v-304h215q31 0 58.5 10t48.5 29.5t33 47.5t12 64q0 35 -12 63.5t-33 48.5t-48.5 30.5t-58.5 10.5h-215z
M211 751l136 108l35 -37l-151 -93z" />
    <glyph glyph-name="racute" unicode="&#x155;" horiz-adv-x="296" 
d="M293 445q-67 -7 -111 -29t-69 -39v-377h-46v491h39l7 -73h1q15 13 35.5 26.5t44.5 25t49.5 18.5t49.5 9v-52zM121 575l78 154l49 -19l-100 -147z" />
    <glyph glyph-name="Rcommaaccent" unicode="&#x156;" horiz-adv-x="555" 
d="M104 0h-48v689h270q49 0 85.5 -17.5t60.5 -45.5t36 -63.5t12 -71.5q0 -29 -8.5 -58t-26 -54.5t-43.5 -45t-60 -28.5l134 -305h-53l-129 296h-230v-296zM104 644v-304h215q31 0 58.5 10t48.5 29.5t33 47.5t12 64q0 35 -12 63.5t-33 48.5t-48.5 30.5t-58.5 10.5h-215z
M221 -90q0 17 11.5 27t28.5 10q21 0 33 -15t12 -39q0 -34 -20 -66t-49 -47l-15 20q37 30 39 73q-17 -1 -28.5 9.5t-11.5 27.5z" />
    <glyph glyph-name="rcommaaccent" unicode="&#x157;" horiz-adv-x="296" 
d="M293 445q-67 -7 -111 -29t-69 -39v-377h-46v491h39l7 -73h1q15 13 35.5 26.5t44.5 25t49.5 18.5t49.5 9v-52zM46 -110q0 17 11.5 27t28.5 10q21 0 33 -15t12 -39q0 -34 -20 -66t-49 -47l-15 20q37 30 39 73q-17 -1 -28.5 9.5t-11.5 27.5z" />
    <glyph glyph-name="Rcaron" unicode="&#x158;" horiz-adv-x="555" 
d="M104 0h-48v689h270q49 0 85.5 -17.5t60.5 -45.5t36 -63.5t12 -71.5q0 -29 -8.5 -58t-26 -54.5t-43.5 -45t-60 -28.5l134 -305h-53l-129 296h-230v-296zM104 644v-304h215q31 0 58.5 10t48.5 29.5t33 47.5t12 64q0 35 -12 63.5t-33 48.5t-48.5 30.5t-58.5 10.5h-215z
M384 861l18 -21l-126 -109h-37l-131 110l17 21l130 -84z" />
    <glyph glyph-name="rcaron" unicode="&#x159;" horiz-adv-x="296" 
d="M293 445q-67 -7 -111 -29t-69 -39v-377h-46v491h39l7 -73h1q15 13 35.5 26.5t44.5 25t49.5 18.5t49.5 9v-52zM267 701l21 -20l-126 -124h-37l-132 124l21 21l127 -97z" />
    <glyph glyph-name="Sacute" unicode="&#x15a;" horiz-adv-x="536" 
d="M504 181q0 -44 -17 -78.5t-48 -58.5t-74.5 -37t-97.5 -13q-68 0 -126 17.5t-111 50.5l27 37q46 -28 100 -45t111 -17q39 0 73 9.5t59 27.5t39.5 45t14.5 62q0 40 -16.5 65.5t-43 41.5t-60.5 25t-68 16q-40 7 -79.5 19.5t-70.5 33.5t-50.5 53t-19.5 79q0 41 15 75t43 58
t68.5 37.5t90.5 13.5q55 0 107 -10t98 -35l-22 -42q-43 23 -91 33t-96 10q-32 0 -61.5 -8t-52 -25.5t-36.5 -44.5t-14 -64q0 -36 16.5 -59.5t43.5 -39t60.5 -24.5t66.5 -16q47 -10 87.5 -23t70.5 -34t47 -53.5t17 -81.5zM214 751l136 108l35 -37l-151 -93z" />
    <glyph glyph-name="sacute" unicode="&#x15b;" horiz-adv-x="439" 
d="M227 31q22 0 46 5t43 17t31.5 31.5t12.5 48.5q0 42 -33 63.5t-111 34.5q-30 5 -60 12.5t-54.5 21t-40 36t-15.5 57.5q0 61 45.5 100t123.5 39q51 0 91 -9.5t74 -32.5l-23 -34q-62 37 -139 37q-58 0 -93 -27t-35 -73q0 -21 10.5 -36t29 -25t44 -16.5t55.5 -11.5
t61.5 -12.5t57 -22t41.5 -39t16 -64.5q0 -60 -47 -98.5t-133 -38.5q-48 0 -95 10t-92 42l24 35q37 -26 77 -38t88 -12zM200 575l78 154l49 -19l-100 -147z" />
    <glyph glyph-name="Scircumflex" unicode="&#x15c;" horiz-adv-x="536" 
d="M504 181q0 -44 -17 -78.5t-48 -58.5t-74.5 -37t-97.5 -13q-68 0 -126 17.5t-111 50.5l27 37q46 -28 100 -45t111 -17q39 0 73 9.5t59 27.5t39.5 45t14.5 62q0 40 -16.5 65.5t-43 41.5t-60.5 25t-68 16q-40 7 -79.5 19.5t-70.5 33.5t-50.5 53t-19.5 79q0 41 15 75t43 58
t68.5 37.5t90.5 13.5q55 0 107 -10t98 -35l-22 -42q-43 23 -91 33t-96 10q-32 0 -61.5 -8t-52 -25.5t-36.5 -44.5t-14 -64q0 -36 16.5 -59.5t43.5 -39t60.5 -24.5t66.5 -16q47 -10 87.5 -23t70.5 -34t47 -53.5t17 -81.5zM264 814l-130 -84l-18 21l131 109h37l127 -108
l-18 -21z" />
    <glyph glyph-name="scircumflex" unicode="&#x15d;" horiz-adv-x="439" 
d="M227 31q22 0 46 5t43 17t31.5 31.5t12.5 48.5q0 42 -33 63.5t-111 34.5q-30 5 -60 12.5t-54.5 21t-40 36t-15.5 57.5q0 61 45.5 100t123.5 39q51 0 91 -9.5t74 -32.5l-23 -34q-62 37 -139 37q-58 0 -93 -27t-35 -73q0 -21 10.5 -36t29 -25t44 -16.5t55.5 -11.5
t61.5 -12.5t57 -22t41.5 -39t16 -64.5q0 -60 -47 -98.5t-133 -38.5q-48 0 -95 10t-92 42l24 35q37 -26 77 -38t88 -12zM218 654l-127 -98l-21 21l132 124h37l126 -123l-21 -21z" />
    <glyph glyph-name="Scedilla" unicode="&#x15e;" horiz-adv-x="536" 
d="M259 -163q21 0 41.5 9t20.5 35q0 13 -6.5 22.5t-17 15t-23.5 7.5t-26 0l-20 10l18 59q-61 2 -114.5 19t-101.5 48l27 37q46 -28 100 -45t111 -17q39 0 73 9.5t59 27.5t39.5 45t14.5 62q0 40 -16.5 65.5t-43 41.5t-60.5 25t-68 16q-40 7 -79.5 19.5t-70.5 33.5t-50.5 53
t-19.5 79q0 41 15 75t43 58t68.5 37.5t90.5 13.5q55 0 107 -10t98 -35l-22 -42q-43 23 -91 33t-96 10q-32 0 -61.5 -8t-52 -25.5t-36.5 -44.5t-14 -64q0 -36 16.5 -59.5t43.5 -39t60.5 -24.5t66.5 -16q47 -10 87.5 -23t70.5 -34t47 -53.5t17 -81.5q0 -43 -16 -77t-46 -58
t-72 -37.5t-94 -14.5l-13 -38q27 0 45 -8t29 -19.5t15.5 -24.5t4.5 -24t-5 -23.5t-16.5 -23.5t-30 -18t-45.5 -7q-11 0 -29.5 2.5t-43.5 10.5l10 26q17 -5 33 -7.5t29 -2.5z" />
    <glyph glyph-name="scedilla" unicode="&#x15f;" horiz-adv-x="439" 
d="M217 -163q21 0 41.5 9t20.5 35q0 13 -6.5 22.5t-17 15t-23.5 7.5t-26 0l-20 10l18 58q-43 2 -85 12.5t-81 39.5l24 35q37 -26 77 -38t88 -12q22 0 46 5t43 17t31.5 31.5t12.5 48.5q0 42 -33 63.5t-111 34.5q-30 5 -60 12.5t-54.5 21t-40 36t-15.5 57.5q0 61 45.5 100
t123.5 39q51 0 91 -9.5t74 -32.5l-23 -34q-62 37 -139 37q-58 0 -93 -27t-35 -73q0 -21 10.5 -36t29 -25t44 -16.5t55.5 -11.5t61.5 -12.5t57 -22t41.5 -39t16 -64.5q0 -29 -11.5 -53.5t-33.5 -42.5t-54 -29t-72 -12l-13 -38q27 0 45 -8t29 -19.5t15.5 -24.5t4.5 -24
t-5 -23.5t-16.5 -23.5t-30 -18t-45.5 -7q-11 0 -29.5 2.5t-43.5 10.5l10 26q17 -5 33 -7.5t29 -2.5z" />
    <glyph glyph-name="Scaron" unicode="&#x160;" horiz-adv-x="536" 
d="M504 181q0 -44 -17 -78.5t-48 -58.5t-74.5 -37t-97.5 -13q-68 0 -126 17.5t-111 50.5l27 37q46 -28 100 -45t111 -17q39 0 73 9.5t59 27.5t39.5 45t14.5 62q0 40 -16.5 65.5t-43 41.5t-60.5 25t-68 16q-40 7 -79.5 19.5t-70.5 33.5t-50.5 53t-19.5 79q0 41 15 75t43 58
t68.5 37.5t90.5 13.5q55 0 107 -10t98 -35l-22 -42q-43 23 -91 33t-96 10q-32 0 -61.5 -8t-52 -25.5t-36.5 -44.5t-14 -64q0 -36 16.5 -59.5t43.5 -39t60.5 -24.5t66.5 -16q47 -10 87.5 -23t70.5 -34t47 -53.5t17 -81.5zM400 861l18 -21l-126 -109h-37l-131 110l17 21
l130 -84z" />
    <glyph glyph-name="scaron" unicode="&#x161;" horiz-adv-x="439" 
d="M227 31q22 0 46 5t43 17t31.5 31.5t12.5 48.5q0 42 -33 63.5t-111 34.5q-30 5 -60 12.5t-54.5 21t-40 36t-15.5 57.5q0 61 45.5 100t123.5 39q51 0 91 -9.5t74 -32.5l-23 -34q-62 37 -139 37q-58 0 -93 -27t-35 -73q0 -21 10.5 -36t29 -25t44 -16.5t55.5 -11.5
t61.5 -12.5t57 -22t41.5 -39t16 -64.5q0 -60 -47 -98.5t-133 -38.5q-48 0 -95 10t-92 42l24 35q37 -26 77 -38t88 -12zM351 701l21 -20l-126 -124h-37l-132 124l21 21l127 -97z" />
    <glyph glyph-name="Tcommaaccent" unicode="&#x162;" horiz-adv-x="513" 
d="M281 644v-644h-48v644h-216v45h478v-45h-214zM213 -110q0 17 11.5 27t28.5 10q21 0 33 -15t12 -39q0 -34 -20 -66t-49 -47l-15 20q37 30 39 73q-17 -1 -28.5 9.5t-11.5 27.5z" />
    <glyph glyph-name="tcommaaccent" unicode="&#x163;" horiz-adv-x="334" 
d="M318 5q-23 -7 -46.5 -8.5t-35.5 -1.5q-73 0 -101.5 33.5t-28.5 109.5v312h-75v42h76l12 116h32v-116h146v-42h-146v-299q0 -63 20.5 -88.5t70.5 -25.5q13 0 31 1.5t38 5.5zM118 -110q0 17 11.5 27t28.5 10q21 0 33 -15t12 -39q0 -34 -20 -66t-49 -47l-15 20q37 30 39 73
q-17 -1 -28.5 9.5t-11.5 27.5z" />
    <glyph glyph-name="Tcaron" unicode="&#x164;" horiz-adv-x="513" 
d="M281 644v-644h-48v644h-216v45h478v-45h-214zM385 861l18 -21l-126 -109h-37l-131 110l17 21l130 -84z" />
    <glyph glyph-name="tcaron" unicode="&#x165;" horiz-adv-x="353" 
d="M264 676q0 17 11.5 27t28.5 10q21 0 33 -15t12 -39q0 -34 -20 -66t-49 -47l-15 20q37 30 39 73q-17 -1 -28.5 9.5t-11.5 27.5zM318 5q-23 -7 -46.5 -8.5t-35.5 -1.5q-73 0 -101.5 33.5t-28.5 109.5v312h-75v42h76l12 116h32v-116h146v-42h-146v-299q0 -63 20.5 -88.5
t70.5 -25.5q13 0 31 1.5t38 5.5z" />
    <glyph glyph-name="Tbar" unicode="&#x166;" horiz-adv-x="513" 
d="M281 644v-253h155v-38h-155v-353h-48v353h-156v38h156v253h-216v45h478v-45h-214z" />
    <glyph glyph-name="tbar" unicode="&#x167;" horiz-adv-x="334" 
d="M318 5q-23 -7 -44.5 -8.5t-34.5 -1.5q-72 0 -102.5 34.5t-30.5 110.5v123h-75v37h75v150h-75v42h76l12 116h32v-116h146v-42h-146v-150h146v-37h-146v-112q0 -62 19.5 -88t73.5 -26q11 0 28 1.5t37 6.5z" />
    <glyph glyph-name="Utilde" unicode="&#x168;" horiz-adv-x="590" 
d="M539 219q0 -51 -18 -93t-50.5 -71.5t-77.5 -45.5t-98 -16q-54 0 -98.5 16t-76.5 46t-50 72t-18 93v469h49v-461q0 -51 16.5 -87t43.5 -59t62 -34t72 -11q38 0 73.5 11t62.5 34t43 59t16 87v461h49v-470zM237 854q16 0 33 -6.5t33.5 -14.5t32 -14.5t27.5 -6.5
q16 0 28.5 9.5t27.5 31.5l30 -17q-19 -35 -40 -50t-45 -15q-15 0 -31 6t-32.5 13.5t-32.5 14t-30 6.5q-19 0 -33 -9.5t-30 -29.5l-30 18q19 31 42.5 47.5t49.5 16.5z" />
    <glyph glyph-name="utilde" unicode="&#x169;" horiz-adv-x="482" 
d="M395 0l-8 68q-34 -21 -60.5 -35t-48 -23t-39.5 -12.5t-35 -3.5q-76 0 -117 41.5t-41 126.5v329h45v-318q0 -73 31 -104.5t86 -31.5q36 0 83 21.5t96 56.5v376h46v-491h-38zM183 684q16 0 33 -6.5t33.5 -14.5t32 -14.5t27.5 -6.5q16 0 28.5 9.5t27.5 31.5l30 -17
q-19 -35 -40 -50t-45 -15q-15 0 -31 6t-32.5 13.5t-32.5 14t-30 6.5q-19 0 -33 -9.5t-30 -29.5l-30 18q19 31 42.5 47.5t49.5 16.5z" />
    <glyph glyph-name="Umacron" unicode="&#x16a;" horiz-adv-x="590" 
d="M539 219q0 -51 -18 -93t-50.5 -71.5t-77.5 -45.5t-98 -16q-54 0 -98.5 16t-76.5 46t-50 72t-18 93v469h49v-461q0 -51 16.5 -87t43.5 -59t62 -34t72 -11q38 0 73.5 11t62.5 34t43 59t16 87v461h49v-470zM166 769v41h255v-41h-255z" />
    <glyph glyph-name="umacron" unicode="&#x16b;" horiz-adv-x="482" 
d="M395 0l-8 68q-34 -21 -60.5 -35t-48 -23t-39.5 -12.5t-35 -3.5q-76 0 -117 41.5t-41 126.5v329h45v-318q0 -73 31 -104.5t86 -31.5q36 0 83 21.5t96 56.5v376h46v-491h-38zM115 593v41h255v-41h-255z" />
    <glyph glyph-name="Ubreve" unicode="&#x16c;" horiz-adv-x="590" 
d="M539 219q0 -51 -18 -93t-50.5 -71.5t-77.5 -45.5t-98 -16q-54 0 -98.5 16t-76.5 46t-50 72t-18 93v469h49v-461q0 -51 16.5 -87t43.5 -59t62 -34t72 -11q38 0 73.5 11t62.5 34t43 59t16 87v461h49v-470zM212 824q6 -33 31.5 -53t57.5 -20q33 0 56.5 17.5t31.5 55.5h39
q-3 -19 -11.5 -38.5t-23.5 -35.5t-38 -26t-54 -10q-32 0 -55 10t-39 26t-24 35.5t-10 38.5h39z" />
    <glyph glyph-name="ubreve" unicode="&#x16d;" horiz-adv-x="482" 
d="M395 0l-8 68q-34 -21 -60.5 -35t-48 -23t-39.5 -12.5t-35 -3.5q-76 0 -117 41.5t-41 126.5v329h45v-318q0 -73 31 -104.5t86 -31.5q36 0 83 21.5t96 56.5v376h46v-491h-38zM159 674q6 -33 31.5 -53t57.5 -20q33 0 56.5 17.5t31.5 55.5h39q-3 -19 -11.5 -38.5t-23.5 -35.5
t-38 -26t-54 -10q-32 0 -55 10t-39 26t-24 35.5t-10 38.5h39z" />
    <glyph glyph-name="Uring" unicode="&#x16e;" horiz-adv-x="590" 
d="M539 219q0 -51 -18 -93t-50.5 -71.5t-77.5 -45.5t-98 -16q-54 0 -98.5 16t-76.5 46t-50 72t-18 93v469h49v-461q0 -51 16.5 -87t43.5 -59t62 -34t72 -11q38 0 73.5 11t62.5 34t43 59t16 87v461h49v-470zM394 805q0 -19 -7 -35.5t-19.5 -29t-29.5 -19.5t-36 -7
q-38 0 -65 26.5t-27 64.5q0 19 7.5 35.5t20 29t29 19.5t35.5 7t36 -7t29.5 -19.5t19.5 -29t7 -35.5zM365 805q0 26 -18 44.5t-45 18.5q-26 0 -44.5 -18.5t-18.5 -44.5t18.5 -44.5t44.5 -18.5q27 0 45 18.5t18 44.5z" />
    <glyph glyph-name="uring" unicode="&#x16f;" horiz-adv-x="482" 
d="M395 0l-8 68q-34 -21 -60.5 -35t-48 -23t-39.5 -12.5t-35 -3.5q-76 0 -117 41.5t-41 126.5v329h45v-318q0 -73 31 -104.5t86 -31.5q36 0 83 21.5t96 56.5v376h46v-491h-38zM335 643q0 -19 -7 -35.5t-19.5 -29t-29.5 -19.5t-36 -7q-38 0 -65 26.5t-27 64.5q0 19 7.5 35.5
t20 29t29 19.5t35.5 7t36 -7t29.5 -19.5t19.5 -29t7 -35.5zM306 643q0 26 -18 44.5t-45 18.5q-26 0 -44.5 -18.5t-18.5 -44.5t18.5 -44.5t44.5 -18.5q27 0 45 18.5t18 44.5z" />
    <glyph glyph-name="Uhungarumlaut" unicode="&#x170;" horiz-adv-x="590" 
d="M539 219q0 -51 -18 -93t-50.5 -71.5t-77.5 -45.5t-98 -16q-54 0 -98.5 16t-76.5 46t-50 72t-18 93v469h49v-461q0 -51 16.5 -87t43.5 -59t62 -34t72 -11q38 0 73.5 11t62.5 34t43 59t16 87v461h49v-470zM314 751l136 108l35 -37l-151 -93zM197 751l135 108l36 -37
l-152 -93z" />
    <glyph glyph-name="uhungarumlaut" unicode="&#x171;" horiz-adv-x="482" 
d="M395 0l-8 68q-34 -21 -60.5 -35t-48 -23t-39.5 -12.5t-35 -3.5q-76 0 -117 41.5t-41 126.5v329h45v-318q0 -73 31 -104.5t86 -31.5q36 0 83 21.5t96 56.5v376h46v-491h-38zM170 575l79 154l48 -19l-99 -147zM271 575l79 154l48 -19l-99 -147z" />
    <glyph glyph-name="Uogonek" unicode="&#x172;" horiz-adv-x="590" 
d="M250 -91q0 18 7.5 39.5t25.5 44.5q-51 2 -93.5 19t-73 46.5t-47.5 70.5t-17 91v469h49v-461q0 -51 16.5 -87t43.5 -59t62 -34t72 -11q38 0 73.5 11t62.5 34t43 59t16 87v461h49v-470q0 -49 -16.5 -89t-46 -69.5t-70.5 -46.5t-90 -20q-14 -20 -20.5 -41t-6.5 -37
q0 -27 15 -39.5t39 -12.5q26 0 58 16l13 -30q-15 -8 -35.5 -14.5t-43.5 -6.5q-40 0 -62.5 24t-22.5 56z" />
    <glyph glyph-name="uogonek" unicode="&#x173;" horiz-adv-x="482" 
d="M354 -93q0 20 9 44.5t32 48.5l-8 68q-34 -21 -60.5 -35t-48 -23t-39.5 -12.5t-35 -3.5q-76 0 -117 41.5t-41 126.5v329h45v-318q0 -73 31 -104.5t86 -31.5q36 0 83 21.5t96 56.5v376h46v-491h-6q-18 -22 -26 -45.5t-8 -40.5q0 -27 15 -39.5t39 -12.5q26 0 58 16l13 -30
q-15 -8 -35.5 -14.5t-43.5 -6.5q-40 0 -62.5 24t-22.5 56z" />
    <glyph glyph-name="Wcircumflex" unicode="&#x174;" horiz-adv-x="838" 
d="M538 315l66 -250h2l64 251l97 373h51q-47 -174 -92.5 -344.5t-91.5 -344.5h-59l-96 362l-64 245l-88 -333l-74 -274h-58l-185 689h52l96 -372q16 -63 32 -126.5t33 -126.5h1l67 254l98 371h51zM416 814l-130 -84l-18 21l131 109h37l127 -108l-18 -21z" />
    <glyph glyph-name="wcircumflex" unicode="&#x175;" horiz-adv-x="671" 
d="M425 256l65 -193h1q18 60 36 120.5t35 121.5l53 186h46l-144 -491h-48l-77 225l-56 163h-1l-57 -170l-74 -218h-48l-147 491h47q14 -45 27 -91t26 -91l72 -246h1q23 67 45.5 134t45.5 135q11 29 20 57.5t19 57.5h48zM348 654l-127 -98l-21 21l132 124h37l126 -123
l-21 -21z" />
    <glyph glyph-name="Ycircumflex" unicode="&#x176;" horiz-adv-x="490" 
d="M269 0h-48v259q-52 109 -104 215t-105 215h53l78 -162l75 -160q8 -14 14.5 -27l13.5 -27l101 216l77 160h51q-51 -108 -102.5 -214.5t-103.5 -213.5v-261zM247 814l-130 -84l-18 21l131 109h37l127 -108l-18 -21z" />
    <glyph glyph-name="ycircumflex" unicode="&#x177;" horiz-adv-x="428" 
d="M116 -198l72 200l-28 29l-153 459h47q20 -57 38 -114t38 -115l75 -222h1l81 222q21 58 42 115t41 114h47q-63 -174 -126.5 -344.5t-126.5 -343.5h-48zM209 654l-127 -98l-21 21l132 124h37l126 -123l-21 -21z" />
    <glyph glyph-name="Ydieresis" unicode="&#x178;" horiz-adv-x="490" 
d="M269 0h-48v259q-52 109 -104 215t-105 215h53l78 -162l75 -160q8 -14 14.5 -27l13.5 -27l101 216l77 160h51q-51 -108 -102.5 -214.5t-103.5 -213.5v-261zM362 785q0 -14 -9 -23t-23 -9q-13 0 -22.5 9t-9.5 23q0 13 9.5 22.5t22.5 9.5q14 0 23 -9.5t9 -22.5zM194 785
q0 -14 -9.5 -23t-23.5 -9q-12 0 -21.5 9t-9.5 23q0 13 9.5 22.5t21.5 9.5q14 0 23.5 -9.5t9.5 -22.5z" />
    <glyph glyph-name="Zacute" unicode="&#x179;" horiz-adv-x="516" 
d="M478 646l-380 -603h379v-43h-437v42l381 603h-365v44h422v-43zM209 751l136 108l35 -37l-151 -93z" />
    <glyph glyph-name="zacute" unicode="&#x17a;" horiz-adv-x="420" 
d="M30 0v37l297 415h-281v39h334v-37l-295 -414h295v-40h-350zM185 575l78 154l49 -19l-100 -147z" />
    <glyph glyph-name="Zdotaccent" unicode="&#x17b;" horiz-adv-x="516" 
d="M478 646l-380 -603h379v-43h-437v42l381 603h-365v44h422v-43zM239 807q0 13 9.5 23t23.5 10q16 0 25.5 -10t9.5 -23q0 -14 -9.5 -24.5t-25.5 -10.5q-14 0 -23.5 10t-9.5 25z" />
    <glyph glyph-name="zdotaccent" unicode="&#x17c;" horiz-adv-x="420" 
d="M30 0v37l297 415h-281v39h334v-37l-295 -414h295v-40h-350zM181 637q0 13 9.5 23t23.5 10q16 0 25.5 -10t9.5 -23q0 -14 -9.5 -24.5t-25.5 -10.5q-14 0 -23.5 10t-9.5 25z" />
    <glyph glyph-name="Zcaron" unicode="&#x17d;" horiz-adv-x="516" 
d="M478 646l-380 -603h379v-43h-437v42l381 603h-365v44h422v-43zM389 861l18 -21l-126 -109h-37l-131 110l17 21l130 -84z" />
    <glyph glyph-name="zcaron" unicode="&#x17e;" horiz-adv-x="420" 
d="M30 0v37l297 415h-281v39h334v-37l-295 -414h295v-40h-350zM339 701l21 -20l-126 -124h-37l-132 124l21 21l127 -97z" />
    <glyph glyph-name="florin" unicode="&#x192;" horiz-adv-x="467" 
d="M125 407h97q8 58 16.5 111.5t26.5 94t50 64.5t86 24q38 0 73 -11q-2 -6 -4.5 -15t-7.5 -26q-30 10 -62 10q-37 0 -59 -16.5t-35.5 -48.5t-21.5 -79t-16 -108h111v-38h-116l-34 -243q-7 -50 -17.5 -90.5t-29 -69t-47 -44t-70.5 -15.5q-16 0 -37.5 3.5t-38.5 8.5l12 39
q33 -11 61 -11q48 0 76.5 34t39.5 114l39 274h-92v38z" />
    <glyph glyph-name="Ohorn" unicode="&#x1a0;" horiz-adv-x="587" 
d="M536 220q0 -51 -17.5 -93t-49 -71.5t-76.5 -46t-100 -16.5q-56 0 -100.5 16.5t-76 47t-48.5 73t-17 93.5v245q0 50 16.5 92t48 72t76.5 47t101 17q49 0 89.5 -13.5t71.5 -37.5h5q38 0 57.5 24t19.5 75v26h42v-28q0 -49 -19.5 -85.5t-68.5 -47.5q46 -58 46 -141v-248z
M488 459q0 49 -16 85.5t-43 60.5t-62 35.5t-74 11.5q-40 0 -75.5 -11.5t-61.5 -35.5t-41.5 -60.5t-15.5 -85.5v-231q0 -51 17 -87t44.5 -59.5t62.5 -34.5t70 -11q40 0 75.5 11.5t62 35t42 59.5t15.5 86v231z" />
    <glyph glyph-name="ohorn" unicode="&#x1a1;" horiz-adv-x="509" 
d="M433 173q0 -84 -53 -131.5t-141 -47.5q-43 0 -78.5 12.5t-61 36t-39.5 56t-14 73.5v150q0 40 15.5 72.5t42 55t61.5 35t75 12.5q45 0 82.5 -14.5t63.5 -40.5q37 0 57 24t20 75v26h41v-28q0 -50 -20.5 -87t-70.5 -47q20 -37 20 -83v-149zM389 308q0 40 -13.5 68
t-34.5 45.5t-47.5 25.5t-52.5 8q-27 0 -54 -8t-48 -25.5t-34.5 -45.5t-13.5 -68v-125q0 -41 12.5 -69t33 -45.5t47.5 -25.5t57 -8t56.5 8.5t47 26.5t32.5 46t12 67v125z" />
    <glyph glyph-name="Uhorn" unicode="&#x1af;" horiz-adv-x="644" 
d="M539 219q0 -51 -18 -93t-50.5 -71.5t-77.5 -45.5t-98 -16q-54 0 -98.5 16t-76.5 46t-50 72t-18 93v469h49v-461q0 -51 16.5 -87t43.5 -59t62 -34t72 -11q38 0 73.5 11t62.5 34t43 59t16 87v461h49v-44q68 5 68 99v26h42v-28q0 -27 -5.5 -51t-18.5 -42t-34 -29.5
t-52 -13.5v-387v0z" />
    <glyph glyph-name="uhorn" unicode="&#x1b0;" horiz-adv-x="540" 
d="M395 0l-8 68q-34 -21 -60.5 -35t-48 -23t-39.5 -12.5t-35 -3.5q-76 0 -117 41.5t-41 126.5v329h45v-318q0 -73 31 -104.5t86 -31.5q36 0 83 21.5t96 56.5v376h46v-49q32 3 50 27t18 72v26h41v-28q0 -27 -5.5 -51t-18.5 -42t-34 -29.5t-51 -13.5v-403h-38z" />
    <glyph glyph-name="AEacute" unicode="&#x1fc;" horiz-adv-x="920" 
d="M463 0v184h-291l-117 -184h-54l438 689h467v-44h-395v-274h339v-43h-339v-285h395v-43h-443zM199 226h264v417zM600 751l136 108l35 -37l-151 -93z" />
    <glyph glyph-name="aeacute" unicode="&#x1fd;" horiz-adv-x="792" 
d="M420 174q0 -39 13 -66t34 -43.5t48 -24t56 -7.5q41 0 74 13.5t59 38.5l28 -31q-32 -31 -72.5 -45.5t-90.5 -14.5q-55 0 -98.5 20t-72.5 63q-42 -29 -75 -45.5t-58.5 -24.5t-44.5 -10.5t-34 -2.5q-69 0 -111.5 35t-42.5 104q0 39 16 65t40.5 41t53.5 21.5t56 6.5h177v56
q0 37 -10 62.5t-28.5 41t-44.5 22t-57 6.5q-35 0 -71.5 -10t-74.5 -36l-24 36q42 28 83 39.5t89 11.5q69 0 108 -23.5t56 -63.5q24 41 66.5 64t99.5 23q41 0 75 -12.5t59 -35t38.5 -55.5t13.5 -73v-91h-333v-55zM213 229q-20 0 -43 -2t-43.5 -11.5t-34 -29t-13.5 -53.5
q0 -26 9 -44.5t24.5 -30.5t36.5 -18t44 -6q21 0 46 7t50.5 17.5t49 24t43.5 25.5q-3 14 -5 32t-2 38v51h-162zM567 456q-27 0 -53.5 -8.5t-47 -27t-33.5 -47t-13 -67.5v-39h287v40q0 40 -12 68.5t-32 46.5t-45 26t-51 8zM390 575l78 154l49 -19l-100 -147z" />
    <glyph glyph-name="Oslashacute" unicode="&#x1fe;" horiz-adv-x="587" 
d="M536 220q0 -51 -17.5 -93t-49 -71.5t-76.5 -46t-100 -16.5t-98.5 16t-75.5 45l-42 -62l-27 18l46 69q-45 59 -45 144v245q0 50 16.5 92t48 72t76.5 47t101 17q54 0 98 -17t76 -46l43 63l27 -18l-47 -70q46 -58 46 -140v-248zM488 459q0 62 -27 106l-315 -470
q29 -31 67.5 -45t79.5 -14q40 0 75.5 11.5t62 35t42 59.5t15.5 86v231zM99 228q0 -32 7 -58.5t19 -46.5l316 470q-28 30 -66.5 44.5t-81.5 14.5q-40 0 -75.5 -11.5t-61.5 -35.5t-41.5 -60.5t-15.5 -85.5v-231zM257 751l136 108l35 -37l-151 -93z" />
    <glyph glyph-name="oslashacute" unicode="&#x1ff;" horiz-adv-x="479" 
d="M433 173q0 -84 -53 -131.5t-141 -47.5q-42 0 -76 11.5t-59 32.5l-34 -45l-23 18l36 48q-37 46 -37 113v150q0 40 15.5 72.5t42 55t61.5 35t75 12.5q41 0 75.5 -12t60.5 -34l34 45l23 -17l-37 -49q17 -22 27 -49t10 -59v-149zM389 308q0 50 -22 83l-237 -317
q21 -21 50 -30t61 -9q30 0 56.5 8.5t47 26.5t32.5 46t12 67v125zM91 183q0 -27 5.5 -48t15.5 -38l237 317q-22 22 -50.5 31.5t-57.5 9.5q-27 0 -54 -8t-48 -25.5t-34.5 -45.5t-13.5 -68v-125zM213 575l79 154l48 -19l-99 -147z" />
    <glyph glyph-name="Scommaaccent" unicode="&#x218;" horiz-adv-x="536" 
d="M504 181q0 -44 -17 -78.5t-48 -58.5t-74.5 -37t-97.5 -13q-68 0 -126 17.5t-111 50.5l27 37q46 -28 100 -45t111 -17q39 0 73 9.5t59 27.5t39.5 45t14.5 62q0 40 -16.5 65.5t-43 41.5t-60.5 25t-68 16q-40 7 -79.5 19.5t-70.5 33.5t-50.5 53t-19.5 79q0 41 15 75t43 58
t68.5 37.5t90.5 13.5q55 0 107 -10t98 -35l-22 -42q-43 23 -91 33t-96 10q-32 0 -61.5 -8t-52 -25.5t-36.5 -44.5t-14 -64q0 -36 16.5 -59.5t43.5 -39t60.5 -24.5t66.5 -16q47 -10 87.5 -23t70.5 -34t47 -53.5t17 -81.5zM225 -110q0 17 11.5 27t28.5 10q21 0 33 -15t12 -39
q0 -34 -20 -66t-49 -47l-15 20q37 30 39 73q-17 -1 -28.5 9.5t-11.5 27.5z" />
    <glyph glyph-name="scommaaccent" unicode="&#x219;" horiz-adv-x="439" 
d="M227 31q22 0 46 5t43 17t31.5 31.5t12.5 48.5q0 42 -33 63.5t-111 34.5q-30 5 -60 12.5t-54.5 21t-40 36t-15.5 57.5q0 61 45.5 100t123.5 39q51 0 91 -9.5t74 -32.5l-23 -34q-62 37 -139 37q-58 0 -93 -27t-35 -73q0 -21 10.5 -36t29 -25t44 -16.5t55.5 -11.5
t61.5 -12.5t57 -22t41.5 -39t16 -64.5q0 -60 -47 -98.5t-133 -38.5q-48 0 -95 10t-92 42l24 35q37 -26 77 -38t88 -12zM177 -110q0 17 11.5 27t28.5 10q21 0 33 -15t12 -39q0 -34 -20 -66t-49 -47l-15 20q37 30 39 73q-17 -1 -28.5 9.5t-11.5 27.5z" />
    <glyph glyph-name="schwa" unicode="&#x259;" horiz-adv-x="466" 
d="M380 263v47q0 41 -11.5 69t-31 45.5t-45 25t-54.5 7.5q-42 0 -78 -13.5t-62 -38.5l-27 31q33 32 75 46.5t93 14.5q42 0 76 -11.5t59 -34t38.5 -56.5t13.5 -78v-139q0 -42 -14.5 -76t-40 -58t-60.5 -37t-77 -13q-41 0 -75.5 12.5t-59 35.5t-38 55.5t-13.5 73.5v92h332z
M93 183q0 -41 12 -69t32 -46t45.5 -26t51.5 -8q27 0 53 8.5t47 27t33.5 47t12.5 67.5v41h-287v-42z" />
    <glyph glyph-name="primemod" unicode="&#x2b9;" horiz-adv-x="194" 
d="M187 671l-123 -248l-33 8l94 255z" />
    <glyph glyph-name="circumflex" unicode="&#x2c6;" horiz-adv-x="482" 
d="M242 654l-127 -98l-21 21l132 124h37l126 -123l-21 -21z" />
    <glyph glyph-name="caron" unicode="&#x2c7;" horiz-adv-x="482" 
d="M368 701l21 -20l-126 -124h-37l-132 124l21 21l127 -97z" />
    <glyph glyph-name="breve" unicode="&#x2d8;" horiz-adv-x="498" 
d="M165 674q6 -33 31.5 -53t57.5 -20q33 0 56.5 17.5t31.5 55.5h39q-3 -19 -11.5 -38.5t-23.5 -35.5t-38 -26t-54 -10q-32 0 -55 10t-39 26t-24 35.5t-10 38.5h39z" />
    <glyph glyph-name="dotaccent" unicode="&#x2d9;" horiz-adv-x="474" 
d="M211 637q0 13 9.5 23t23.5 10q16 0 25.5 -10t9.5 -23q0 -14 -9.5 -24.5t-25.5 -10.5q-14 0 -23.5 10t-9.5 25z" />
    <glyph glyph-name="ring" unicode="&#x2da;" horiz-adv-x="474" 
d="M342 643q0 -19 -7 -35.5t-19.5 -29t-29.5 -19.5t-36 -7q-38 0 -65 26.5t-27 64.5q0 19 7.5 35.5t20 29t29 19.5t35.5 7t36 -7t29.5 -19.5t19.5 -29t7 -35.5zM313 643q0 26 -18 44.5t-45 18.5q-26 0 -44.5 -18.5t-18.5 -44.5t18.5 -44.5t44.5 -18.5q27 0 45 18.5t18 44.5z
" />
    <glyph glyph-name="ogonek" unicode="&#x2db;" horiz-adv-x="404" 
d="M123 -93q0 20 9.5 44.5t32.5 49.5h30l1 -1q-18 -22 -26 -45.5t-8 -40.5q0 -27 15 -39.5t39 -12.5q26 0 58 16l13 -30q-15 -8 -35.5 -14.5t-43.5 -6.5q-40 0 -62.5 24t-22.5 56z" />
    <glyph glyph-name="tilde" unicode="&#x2dc;" horiz-adv-x="482" 
d="M186 684q16 0 33 -6.5t33.5 -14.5t32 -14.5t27.5 -6.5q16 0 28.5 9.5t27.5 31.5l30 -17q-19 -35 -40 -50t-45 -15q-15 0 -31 6t-32.5 13.5t-32.5 14t-30 6.5q-19 0 -33 -9.5t-30 -29.5l-30 18q19 31 42.5 47.5t49.5 16.5z" />
    <glyph glyph-name="hungarumlaut" unicode="&#x2dd;" horiz-adv-x="497" 
d="M177 575l79 154l48 -19l-99 -147zM278 575l79 154l48 -19l-99 -147z" />
    <glyph glyph-name="tonos" unicode="&#x384;" horiz-adv-x="482" 
d="M206 575l78 154l49 -19l-100 -147z" />
    <glyph glyph-name="dieresistonos" unicode="&#x385;" horiz-adv-x="466" 
d="M362 650q0 -13 -9.5 -22.5t-22.5 -9.5t-22.5 9.5t-9.5 22.5q0 14 9.5 23t22.5 9t22.5 -9t9.5 -23zM175 650q0 -13 -9 -22.5t-23 -9.5q-13 0 -22 9.5t-9 22.5q0 14 9 23t22 9q14 0 23 -9t9 -23zM179 586l79 153l48 -19l-99 -146z" />
    <glyph glyph-name="Alphatonos" unicode="&#x386;" horiz-adv-x="568" 
d="M501 0q-14 42 -29 83t-30 83h-315q-14 -42 -28 -83t-28 -83h-51l238 689h54l240 -689h-51zM284 630q-4 -12 -14.5 -44.5t-25 -75t-30.5 -90.5t-30.5 -90.5t-25.5 -75t-15 -44.5h284q-4 12 -14.5 44.5t-25 75t-31 90.5t-31 91t-25.5 75t-15 44h-1zM7 552l78 154l49 -19
l-100 -147z" />
    <glyph glyph-name="anoteleia" unicode="&#x387;" horiz-adv-x="199" 
d="M58 357q0 16 11 27.5t29 11.5q17 0 29 -11.5t12 -27.5q0 -17 -11 -28.5t-29 -11.5q-19 0 -30 11.5t-11 28.5z" />
    <glyph glyph-name="Epsilontonos" unicode="&#x388;" horiz-adv-x="532" 
d="M57 0v689h443v-44h-395v-274h340v-43h-340v-285h395v-43h-443zM-121 552l78 154l49 -19l-100 -147z" />
    <glyph glyph-name="Etatonos" unicode="&#x389;" horiz-adv-x="596" 
d="M492 0v329h-390v-329h-47v689h47v-317h390v317h50v-689h-50zM-127 552l78 154l49 -19l-100 -147z" />
    <glyph glyph-name="Iotatonos" unicode="&#x38a;" horiz-adv-x="216" 
d="M84 0v689h48v-689h-48zM-104 552l78 154l49 -19l-100 -147z" />
    <glyph glyph-name="Omicrontonos" unicode="&#x38c;" horiz-adv-x="587" 
d="M536 220q0 -51 -17.5 -93t-49 -71.5t-76.5 -46t-100 -16.5q-56 0 -100.5 16.5t-76 47t-48.5 73t-17 93.5v245q0 50 16.5 92t48 72t76.5 47t101 17q55 0 100 -17t76.5 -47.5t49 -72.5t17.5 -91v-248zM488 459q0 49 -16 85.5t-43 60.5t-62 35.5t-74 11.5q-40 0 -75.5 -11.5
t-61.5 -35.5t-41.5 -60.5t-15.5 -85.5v-231q0 -51 17 -87t44.5 -59.5t62.5 -34.5t70 -11q40 0 75.5 11.5t62 35t42 59.5t15.5 86v231zM-89 552l78 154l49 -19l-100 -147z" />
    <glyph glyph-name="Upsilontonos" unicode="&#x38e;" horiz-adv-x="490" 
d="M269 0h-48v259q-52 109 -104 215t-105 215h53l78 -162l75 -160q8 -14 14.5 -27l13.5 -27l101 216l77 160h51q-51 -108 -102.5 -214.5t-103.5 -213.5v-261zM-131 552l78 154l49 -19l-100 -147z" />
    <glyph glyph-name="Omegatonos" unicode="&#x38f;" horiz-adv-x="587" 
d="M360 0v51q28 7 52 23t42 39.5t28 54.5t10 70v221q0 49 -16.5 85.5t-44 60.5t-63.5 35.5t-74 11.5q-40 0 -76 -11.5t-63 -35.5t-42.5 -60.5t-15.5 -85.5v-221q0 -39 11.5 -70t30.5 -54t43 -38.5t49 -23.5v-52h-196v44h119q-50 28 -77.5 77t-27.5 112v236q0 50 17.5 91.5
t50 71.5t77.5 47t100 17q54 0 99 -17t78 -47t51 -72t18 -91v-238q0 -63 -27 -112.5t-77 -74.5h121v-44h-197zM-91 552l78 154l49 -19l-100 -147z" />
    <glyph glyph-name="iotadieresistonos" unicode="&#x390;" horiz-adv-x="184" 
d="M70 0v491h44v-491h-44zM229 650q0 -13 -9.5 -22.5t-22.5 -9.5t-22.5 9.5t-9.5 22.5q0 14 9.5 23t22.5 9t22.5 -9t9.5 -23zM42 650q0 -13 -9 -22.5t-23 -9.5q-13 0 -22 9.5t-9 22.5q0 14 9 23t22 9q14 0 23 -9t9 -23zM46 586l79 153l48 -19l-99 -146z" />
    <glyph glyph-name="Alpha" unicode="&#x391;" horiz-adv-x="568" 
d="M501 0q-14 42 -29 83t-30 83h-315q-14 -42 -28 -83t-28 -83h-51l238 689h54l240 -689h-51zM284 630q-4 -12 -14.5 -44.5t-25 -75t-30.5 -90.5t-30.5 -90.5t-25.5 -75t-15 -44.5h284q-4 12 -14.5 44.5t-25 75t-31 90.5t-31 91t-25.5 75t-15 44h-1z" />
    <glyph glyph-name="Beta" unicode="&#x392;" horiz-adv-x="574" 
d="M529 188q0 -37 -12.5 -71t-36.5 -60t-59.5 -41.5t-80.5 -15.5h-284v689l272 -1q48 0 83.5 -14t59.5 -37.5t35.5 -55t11.5 -66.5q0 -21 -5 -43t-17.5 -42.5t-33.5 -38t-52 -28.5q34 -11 56.5 -30.5t36.5 -44t20 -50.5t6 -50zM468 514q0 36 -12.5 60.5t-33.5 40.5t-48.5 23
t-57.5 7h-212v-260h224q26 0 51.5 8t45 24t31.5 40t12 57zM481 188q0 35 -12.5 63t-33 48t-47.5 31t-57 11h-227v-298h225q32 0 59.5 9t48 27t32.5 45.5t12 63.5z" />
    <glyph glyph-name="Gamma" unicode="&#x393;" horiz-adv-x="502" 
d="M107 645v-645h-47v689h443v-44h-396z" />
    <glyph glyph-name="Delta" unicode="&#x394;" horiz-adv-x="568" 
d="M14 0l243 689h54q62 -174 123 -344.5t122 -344.5h-542zM283 629q-25 -72 -49.5 -144.5t-50.5 -145.5l-103 -296h409l-102 293l-64 186z" />
    <glyph glyph-name="Delta" unicode="&#x2206;" horiz-adv-x="568" 
d="M14 0l243 689h54q62 -174 123 -344.5t122 -344.5h-542zM283 629q-25 -72 -49.5 -144.5t-50.5 -145.5l-103 -296h409l-102 293l-64 186z" />
    <glyph glyph-name="Epsilon" unicode="&#x395;" horiz-adv-x="532" 
d="M57 0v689h443v-44h-395v-274h340v-43h-340v-285h395v-43h-443z" />
    <glyph glyph-name="Zeta" unicode="&#x396;" horiz-adv-x="516" 
d="M478 646l-380 -603h379v-43h-437v42l381 603h-365v44h422v-43z" />
    <glyph glyph-name="Eta" unicode="&#x397;" horiz-adv-x="596" 
d="M492 0v329h-390v-329h-47v689h47v-317h390v317h50v-689h-50z" />
    <glyph glyph-name="Theta" unicode="&#x398;" horiz-adv-x="581" 
d="M443 327h-303v46h303v-46zM536 220q0 -51 -17.5 -93t-49.5 -71.5t-76.5 -46t-99.5 -16.5q-56 0 -101 16.5t-76.5 47t-48.5 73t-17 93.5v245q0 50 17 92t48.5 72t76.5 47t101 17q55 0 99.5 -17t76.5 -47.5t49.5 -72.5t17.5 -91v-248zM487 459q0 49 -16 85.5t-43 60.5
t-62 35.5t-73 11.5q-41 0 -76.5 -11.5t-61.5 -35.5t-41.5 -60.5t-15.5 -85.5v-231q0 -51 17 -87t45 -59.5t62.5 -34.5t70.5 -11q40 0 75 11.5t61.5 35t42 59.5t15.5 86v231z" />
    <glyph glyph-name="Iota" unicode="&#x399;" horiz-adv-x="216" 
d="M84 0v689h48v-689h-48z" />
    <glyph glyph-name="Kappa" unicode="&#x39a;" horiz-adv-x="539" 
d="M293 423l245 -423h-56l-222 383q-39 -48 -78 -97t-79 -98v-188h-48v689h48v-427l346 427h58z" />
    <glyph glyph-name="Lambda" unicode="&#x39b;" horiz-adv-x="561" 
d="M494 0q-32 93 -63.5 184.5t-63.5 185.5q-23 65 -45.5 134t-44.5 134l-87 -267l-126 -371h-51q60 174 119 344.5t119 344.5h54l240 -689h-51v0z" />
    <glyph glyph-name="Mu" unicode="&#x39c;" horiz-adv-x="707" 
d="M603 577h-1q-29 -62 -55.5 -118t-52.5 -110q-31 -62 -59.5 -120.5t-57.5 -118.5h-40l-122 245l-110 223h-2v-578h-48v689h48q38 -79 76.5 -156.5t76.5 -155.5q25 -52 49.5 -103.5t50.5 -102.5l36 72l63 134q38 78 76.5 156.5t74.5 155.5h45v-689h-48v577z" />
    <glyph glyph-name="Nu" unicode="&#x39d;" horiz-adv-x="613" 
d="M505 0q-63 95 -125.5 189.5t-126.5 190.5q-37 56 -73.5 112.5t-75.5 111.5v-604h-48v689h48l256 -386q37 -56 73.5 -111.5t74.5 -110.5v608h48v-689h-51v0z" />
    <glyph glyph-name="Xi" unicode="&#x39e;" horiz-adv-x="517" 
d="M41 0v43h189v284h-132v44h132v273h-189v46h432v-46h-198v-273h141v-44h-141v-284h198v-43h-432z" />
    <glyph glyph-name="Omicron" unicode="&#x39f;" horiz-adv-x="587" 
d="M536 220q0 -51 -17.5 -93t-49 -71.5t-76.5 -46t-100 -16.5q-56 0 -100.5 16.5t-76 47t-48.5 73t-17 93.5v245q0 50 16.5 92t48 72t76.5 47t101 17q55 0 100 -17t76.5 -47.5t49 -72.5t17.5 -91v-248zM488 459q0 49 -16 85.5t-43 60.5t-62 35.5t-74 11.5q-40 0 -75.5 -11.5
t-61.5 -35.5t-41.5 -60.5t-15.5 -85.5v-231q0 -51 17 -87t44.5 -59.5t62.5 -34.5t70 -11q40 0 75.5 11.5t62 35t42 59.5t15.5 86v231z" />
    <glyph glyph-name="Pi" unicode="&#x3a0;" horiz-adv-x="590" 
d="M490 0v645h-390v-645h-48v689h487v-689h-49z" />
    <glyph glyph-name="Rho" unicode="&#x3a1;" horiz-adv-x="539" 
d="M516 492q0 -36 -12.5 -71t-37 -63t-60 -45t-81.5 -17h-223v-296h-47v689h270q48 0 84 -17.5t60 -45.5t35.5 -63t11.5 -71zM467 492q0 35 -12 63t-32.5 48t-48 31t-58.5 11h-214v-304h214q31 0 58.5 10t48 29.5t32.5 47.5t12 64z" />
    <glyph glyph-name="Sigma" unicode="&#x3a3;" horiz-adv-x="488" 
d="M32 0v46l184 313l-184 286v45h415v-46h-359l183 -285l-188 -316h372v-43h-423z" />
    <glyph glyph-name="Tau" unicode="&#x3a4;" horiz-adv-x="513" 
d="M281 644v-644h-48v644h-216v45h478v-45h-214z" />
    <glyph glyph-name="Upsilon" unicode="&#x3a5;" horiz-adv-x="490" 
d="M269 0h-48v259q-52 109 -104 215t-105 215h53l78 -162l75 -160q8 -14 14.5 -27l13.5 -27l101 216l77 160h51q-51 -108 -102.5 -214.5t-103.5 -213.5v-261z" />
    <glyph glyph-name="Phi" unicode="&#x3a6;" horiz-adv-x="726" 
d="M101 316q0 -50 18 -89.5t49.5 -67t75.5 -42.5t95 -15v519q-55 0 -99 -15.5t-75 -43.5t-47.5 -68t-16.5 -89v-89zM624 405q0 49 -16.5 89t-47.5 68t-75 43.5t-99 15.5v-519q51 0 95 15t75.5 42.5t49.5 67t18 89.5v89zM386 0h-47v58q-70 1 -123.5 22.5t-89.5 56t-54.5 80.5
t-18.5 97v99q0 49 18 94.5t53.5 80t89 55.5t125.5 23v30h47v-30q72 -1 125.5 -22t89 -56t53.5 -80.5t18 -94.5v-99q0 -51 -18.5 -96.5t-54.5 -80.5t-89.5 -56.5t-123.5 -22.5v-58z" />
    <glyph glyph-name="Chi" unicode="&#x3a7;" horiz-adv-x="501" 
d="M433 0l-183 311l-183 -311h-56l213 354l-198 335h56l168 -293l168 293h56l-198 -335l213 -354h-56z" />
    <glyph glyph-name="Psi" unicode="&#x3a8;" horiz-adv-x="692" 
d="M641 376q0 -51 -22 -93t-59.5 -72.5t-86.5 -48.5t-103 -20v-142h-48v143q-54 1 -102.5 18.5t-86 48.5t-59.5 73.5t-22 93.5v312h48v-305q0 -50 21 -87t53.5 -61t72 -36t75.5 -13v508h48v-508q36 1 75.5 12.5t72 35.5t54 61t21.5 87v306h48v-313v0z" />
    <glyph glyph-name="Omega" unicode="&#x3a9;" horiz-adv-x="587" 
d="M360 0v51q28 7 52 23t42 39.5t28 54.5t10 70v221q0 49 -16.5 85.5t-44 60.5t-63.5 35.5t-74 11.5q-40 0 -76 -11.5t-63 -35.5t-42.5 -60.5t-15.5 -85.5v-221q0 -39 11.5 -70t30.5 -54t43 -38.5t49 -23.5v-52h-196v44h119q-50 28 -77.5 77t-27.5 112v236q0 50 17.5 91.5
t50 71.5t77.5 47t100 17q54 0 99 -17t78 -47t51 -72t18 -91v-238q0 -63 -27 -112.5t-77 -74.5h121v-44h-197z" />
    <glyph glyph-name="Iotadieresis" unicode="&#x3aa;" horiz-adv-x="216" 
d="M84 0v689h48v-689h-48zM227 804q0 -13 -9 -22.5t-23 -9.5q-13 0 -22.5 9.5t-9.5 22.5q0 14 9.5 23t22.5 9q14 0 23 -9t9 -23zM59 804q0 -13 -9.5 -22.5t-23.5 -9.5q-12 0 -21.5 9.5t-9.5 22.5q0 14 9.5 23t21.5 9q14 0 23.5 -9t9.5 -23z" />
    <glyph glyph-name="Upsilondieresis" unicode="&#x3ab;" horiz-adv-x="490" 
d="M269 0h-48v259q-52 109 -104 215t-105 215h53l78 -162l75 -160q8 -14 14.5 -27l13.5 -27l101 216l77 160h51q-51 -108 -102.5 -214.5t-103.5 -213.5v-261zM361 804q0 -13 -9 -22.5t-23 -9.5q-13 0 -22.5 9.5t-9.5 22.5q0 14 9.5 23t22.5 9q14 0 23 -9t9 -23zM193 804
q0 -13 -9.5 -22.5t-23.5 -9.5q-12 0 -21.5 9.5t-9.5 22.5q0 14 9.5 23t21.5 9q14 0 23.5 -9t9.5 -23z" />
    <glyph glyph-name="alphatonos" unicode="&#x3ac;" horiz-adv-x="480" 
d="M394 0l-8 65q-36 -24 -65 -38t-51.5 -21.5t-40 -9.5t-31.5 -2q-72 0 -112.5 41t-40.5 126v169q0 84 43.5 125.5t111.5 41.5q14 0 31.5 -2t39.5 -8.5t50.5 -19t64.5 -33.5l8 56h36v-490h-36zM386 387q-51 34 -100 51t-82 17q-56 0 -85.5 -33.5t-29.5 -103.5v-145
q0 -71 28.5 -104t84.5 -32q35 0 83.5 19t100.5 57v274zM210 575l78 154l49 -19l-100 -147z" />
    <glyph glyph-name="epsilontonos" unicode="&#x3ad;" horiz-adv-x="417" 
d="M394 47q-38 -29 -79 -40.5t-86 -11.5q-43 0 -76.5 11t-56 30.5t-34.5 46t-12 56.5q0 10 3 26t11.5 33t24.5 33t42 25q-26 10 -40.5 23.5t-21.5 28.5t-8.5 29t-1.5 24q0 24 11 48.5t33 44t54.5 31.5t76.5 12q43 0 83.5 -13t72.5 -40l-28 -34q-53 45 -126 45q-27 0 -51 -7
t-42 -20t-28.5 -30.5t-10.5 -38.5q0 -42 27.5 -63t74.5 -21h82v-40h-90q-21 0 -39.5 -6t-33 -18.5t-23 -31t-8.5 -43.5q0 -46 38.5 -73.5t98.5 -27.5q39 0 75 11.5t62 32.5zM194 575l78 154l49 -19l-100 -147z" />
    <glyph glyph-name="etatonos" unicode="&#x3ae;" horiz-adv-x="480" 
d="M281 497q73 0 113 -41.5t40 -126.5v-329h-45v318q0 73 -30.5 104.5t-86.5 30.5q-36 0 -83 -21.5t-96 -54.5v-377h-45v491h37l8 -68q35 21 62.5 35.5t49.5 23t40.5 12t35.5 3.5zM186 575l78 154l49 -19l-100 -147z" />
    <glyph glyph-name="iotatonos" unicode="&#x3af;" horiz-adv-x="184" 
d="M70 0v491h44v-491h-44zM76 575l78 154l49 -19l-100 -147z" />
    <glyph glyph-name="upsilondieresistonos" unicode="&#x3b0;" horiz-adv-x="481" 
d="M434 173q0 -44 -15.5 -77t-42.5 -55.5t-62 -34t-74 -11.5t-74 12t-61.5 35t-42 55.5t-15.5 74.5v320h45v-308q0 -40 13.5 -68t34.5 -45.5t48 -25.5t54 -8t53.5 8t47.5 25.5t34 45.5t13 68v308h44v-319zM364 650q0 -13 -9.5 -22.5t-22.5 -9.5t-22.5 9.5t-9.5 22.5
q0 14 9.5 23t22.5 9t22.5 -9t9.5 -23zM177 650q0 -13 -9 -22.5t-23 -9.5q-13 0 -22 9.5t-9 22.5q0 14 9 23t22 9q14 0 23 -9t9 -23zM181 586l79 153l48 -19l-99 -146z" />
    <glyph glyph-name="alpha" unicode="&#x3b1;" horiz-adv-x="480" 
d="M394 0l-8 65q-36 -24 -65 -38t-51.5 -21.5t-40 -9.5t-31.5 -2q-72 0 -112.5 41t-40.5 126v169q0 84 43.5 125.5t111.5 41.5q14 0 31.5 -2t39.5 -8.5t50.5 -19t64.5 -33.5l8 56h36v-490h-36zM386 387q-51 34 -100 51t-82 17q-56 0 -85.5 -33.5t-29.5 -103.5v-145
q0 -71 28.5 -104t84.5 -32q35 0 83.5 19t100.5 57v274z" />
    <glyph glyph-name="beta" unicode="&#x3b2;" horiz-adv-x="479" 
d="M435 165q0 -83 -41 -127t-120 -44q-29 0 -74.5 13t-104.5 49l-8 -56h-37v528q0 42 13.5 76t37.5 58t57.5 37t72.5 13q51 0 85.5 -16t55 -40t29 -53t8.5 -54q0 -14 -3 -32.5t-11 -37.5t-23.5 -36.5t-39.5 -29.5q30 -8 50 -26t32 -40t16.5 -46.5t4.5 -46.5v-89zM391 254
q0 63 -34 96.5t-97 33.5h-73v40h67q30 0 51 12t34.5 30.5t19.5 40t6 39.5q0 21 -7 43.5t-23 41t-41.5 30.5t-62.5 12q-38 0 -64 -14t-42.5 -35.5t-23.5 -47.5t-7 -50v-423q48 -29 96 -48t87 -19q61 0 87.5 35t26.5 98v85z" />
    <glyph glyph-name="gamma" unicode="&#x3b3;" horiz-adv-x="430" 
d="M93 444q32 -88 64.5 -184.5t64.5 -184.5h2q38 100 77 208t77 207h49q-46 -114 -91 -236.5t-91 -236.5v-221h-45v216q-39 101 -64 169t-41 113.5t-25.5 74t-17.5 51.5q-8 22 -15 27.5t-21 5.5h-4.5t-4.5 -1l-4 38q20 5 31 5q22 0 35.5 -11t23.5 -40z" />
    <glyph glyph-name="delta" unicode="&#x3b4;" horiz-adv-x="478" 
d="M433 170q0 -40 -14.5 -72.5t-40.5 -55.5t-61.5 -35.5t-77.5 -12.5t-77.5 12.5t-61 36t-40 56t-14.5 72.5v120q0 71 36 118.5t94 65.5q-27 12 -44 26t-26.5 29t-12.5 29t-3 26q0 57 41.5 93.5t122.5 36.5q42 0 78.5 -10t65.5 -27l-22 -37q-29 16 -57 24.5t-63 8.5
q-48 0 -82.5 -20.5t-34.5 -66.5q0 -34 34 -59.5t92 -42.5q40 -12 71.5 -27.5t53 -38t32.5 -54t11 -74.5v-121zM389 277q0 41 -10 70t-30.5 48.5t-51 32.5t-72.5 22q-71 -17 -102.5 -61.5t-31.5 -113.5v-92q0 -41 13 -69.5t34.5 -46.5t48 -26t53.5 -8q29 0 56 8t47.5 26
t33 46.5t12.5 69.5v94z" />
    <glyph glyph-name="epsilon" unicode="&#x3b5;" horiz-adv-x="417" 
d="M394 47q-38 -29 -79 -40.5t-86 -11.5q-43 0 -76.5 11t-56 30.5t-34.5 46t-12 56.5q0 10 3 26t11.5 33t24.5 33t42 25q-26 10 -40.5 23.5t-21.5 28.5t-8.5 29t-1.5 24q0 24 11 48.5t33 44t54.5 31.5t76.5 12q43 0 83.5 -13t72.5 -40l-28 -34q-53 45 -126 45q-27 0 -51 -7
t-42 -20t-28.5 -30.5t-10.5 -38.5q0 -42 27.5 -63t74.5 -21h82v-40h-90q-21 0 -39.5 -6t-33 -18.5t-23 -31t-8.5 -43.5q0 -46 38.5 -73.5t98.5 -27.5q39 0 75 11.5t62 32.5l26 -32v0z" />
    <glyph glyph-name="zeta" unicode="&#x3b6;" horiz-adv-x="386" 
d="M417 666q-73 -58 -134.5 -118t-106 -119.5t-69 -115.5t-23.5 -105q1 -58 27 -92.5t65.5 -52.5t87.5 -23.5t93 -5.5h17q1 -2 3.5 -8t5.5 -12t6 -11.5t4 -7.5q-11 -16 -22 -38.5t-20 -46.5t-16.5 -48.5t-12.5 -45.5l-41 9q3 16 9.5 38.5t15 46.5t18.5 47t21 39
q-56 -1 -110.5 7.5t-97.5 31.5t-70 62.5t-28 100.5q-1 46 16.5 99.5t56.5 113t100 123t147 131.5h-298v38h356v-37v0z" />
    <glyph glyph-name="eta" unicode="&#x3b7;" horiz-adv-x="480" 
d="M281 497q73 0 113 -41.5t40 -126.5v-329h-45v318q0 73 -30.5 104.5t-86.5 30.5q-36 0 -83 -21.5t-96 -54.5v-377h-45v491h37l8 -68q35 21 62.5 35.5t49.5 23t40.5 12t35.5 3.5z" />
    <glyph glyph-name="theta" unicode="&#x3b8;" horiz-adv-x="476" 
d="M432 172q0 -42 -14.5 -75t-40 -56t-61 -35t-78.5 -12q-42 0 -77 12.5t-61 35.5t-40.5 55.5t-14.5 72.5v367q0 40 16 72t43 54.5t62 34.5t73 12q39 0 74 -12t61.5 -34.5t42 -54.5t15.5 -72v-365zM388 521q0 40 -13.5 68.5t-34.5 46t-47.5 25.5t-52.5 8q-27 0 -54 -8
t-48 -25.5t-34.5 -46t-13.5 -68.5v-129h298v129zM90 353v-170q0 -41 13 -69t34 -45.5t48 -25.5t55 -8q30 0 56.5 8.5t47 26.5t32.5 46t12 67v170h-298z" />
    <glyph glyph-name="iota" unicode="&#x3b9;" horiz-adv-x="184" 
d="M70 0v491h44v-491h-44z" />
    <glyph glyph-name="kappa" unicode="&#x3ba;" horiz-adv-x="472" 
d="M65 0v492h45v-219h132q29 0 53.5 13t41.5 59l55 147h45l-52 -140q-13 -35 -27.5 -60.5t-43.5 -33.5q18 -4 29.5 -13t20 -21.5t15 -28.5t12.5 -34l56 -161h-47l-53 155q-8 24 -18 39.5t-22 24t-26 11.5t-32 3h-139v-233h-45z" />
    <glyph glyph-name="lambda" unicode="&#x3bb;" horiz-adv-x="483" 
d="M388 0v377q-53 26 -93 38t-72 12q-132 0 -132 -140v-283h-45v294q0 83 47.5 127t126.5 44q29 0 68.5 -8t99.5 -37v99q0 75 -33 110.5t-102 35.5q-36 0 -73 -13t-63 -28l-20 36q36 22 79 35t81 13q93 0 134.5 -46.5t41.5 -134.5v-531h-45z" />
    <glyph glyph-name="nu" unicode="&#x3bd;" horiz-adv-x="431" 
d="M213 59q3 8 7 18.5t13 35.5t25 69.5t42 121.5q17 47 34 93.5t32 93.5h50q-45 -123 -89.5 -246t-89.5 -245h-48q-46 122 -89 245t-88 246h49l66 -186q22 -62 42.5 -122.5t43.5 -123.5z" />
    <glyph glyph-name="xi" unicode="&#x3be;" horiz-adv-x="416" 
d="M403 641q-34 17 -68.5 23t-64.5 6q-31 0 -59 -8.5t-50 -24.5t-35 -39.5t-14 -53.5q-1 -35 13 -59.5t37.5 -41t53 -24t59.5 -7.5h94v-39h-112q-38 0 -68 -13.5t-52 -37t-33.5 -54t-11.5 -64.5q0 -57 27 -91t68.5 -51.5t91.5 -23t96 -5.5h20l21 -35q-12 -17 -23 -39
t-20.5 -46.5t-17 -49t-11.5 -45.5l-42 10q3 15 8.5 36t13 43.5t17.5 45t22 40.5q-65 -1 -122 9t-100 34.5t-67.5 65t-24.5 101.5q0 20 5.5 47t20 54.5t40.5 51.5t67 38q-37 10 -59.5 29t-35 41t-16.5 43.5t-4 37.5q0 36 15 66t41.5 52.5t64 35t83.5 12.5q14 0 32 -1.5t38 -5
t41 -9.5t40 -15z" />
    <glyph glyph-name="omicron" unicode="&#x3bf;" horiz-adv-x="479" 
d="M433 173q0 -84 -53 -131.5t-141 -47.5q-43 0 -78.5 12.5t-61 36t-39.5 56t-14 73.5v150q0 40 15.5 72.5t42 55t61.5 35t75 12.5q41 0 76.5 -12.5t61.5 -35t40.5 -55t14.5 -72.5v-149zM389 308q0 40 -13.5 68t-34.5 45.5t-47.5 25.5t-52.5 8q-27 0 -54 -8t-48 -25.5
t-34.5 -45.5t-13.5 -68v-125q0 -41 12.5 -69t33 -45.5t47.5 -25.5t57 -8t56.5 8.5t47 26.5t32.5 46t12 67v125z" />
    <glyph glyph-name="pi" unicode="&#x3c0;" horiz-adv-x="483" 
d="M390 0v450h-296v-450h-44v491h384v-491h-44z" />
    <glyph glyph-name="rho" unicode="&#x3c1;" horiz-adv-x="477" 
d="M432 166q0 -83 -46 -127.5t-124 -44.5q-27 0 -69 8t-102 38v-244h-44v528q0 40 16 72t42.5 54.5t61 34.5t71.5 12t72 -12t62 -34.5t43.5 -54.5t16.5 -72v-158zM239 455q-26 0 -52 -8t-48 -25.5t-35.5 -45.5t-13.5 -68l1 -222q54 -29 95 -39.5t73 -10.5q129 -1 129 142
l-1 130q0 40 -13.5 68t-35 45.5t-48 25.5t-51.5 8z" />
    <glyph glyph-name="sigma1" unicode="&#x3c2;" horiz-adv-x="439" 
d="M227 31q22 0 46 5t43 17t31.5 31.5t12.5 48.5q0 21 -7.5 35.5t-20 25t-29.5 17t-36 11.5l-51 9q-30 5 -60 12.5t-54.5 21.5t-40 36t-15.5 57q0 61 45.5 99.5t123.5 38.5q51 0 91 -9t74 -32l-23 -34q-62 37 -139 37q-58 0 -93 -27t-35 -73q0 -21 10.5 -36t29 -25t44 -16.5
t55.5 -11.5t61.5 -12.5t57 -22t41.5 -39t16 -64.5q0 -60 -47 -98.5t-133 -38.5q-48 0 -95 10t-92 42l24 35q37 -26 77 -38t88 -12z" />
    <glyph glyph-name="sigma" unicode="&#x3c3;" horiz-adv-x="494" 
d="M358 450q38 -20 56.5 -56t18.5 -74v-144q0 -46 -16.5 -80t-43.5 -56.5t-62 -33.5t-73 -11t-73 12t-61.5 34t-42.5 54t-16 73v152q0 40 16 72t43 54.5t62 34.5t72 12h244v-43h-124zM388 304q0 40 -13 68t-34 45.5t-48 25.5t-54 8q-26 0 -52.5 -8t-48 -25.5t-35 -45.5
t-13.5 -68v-120q0 -40 14 -68.5t35.5 -46.5t48 -26t51.5 -8t51.5 8t48.5 26t35.5 46.5t13.5 68.5v120z" />
    <glyph glyph-name="tau" unicode="&#x3c4;" horiz-adv-x="351" 
d="M169 151q0 -63 21 -88.5t73 -25.5q13 0 29 1.5t36 5.5l8 -39q-23 -7 -45 -8.5t-34 -1.5q-73 0 -103 33.5t-30 109.5l-1 312h-106v42h301v-42h-149v-299z" />
    <glyph glyph-name="upsilon" unicode="&#x3c5;" horiz-adv-x="481" 
d="M434 173q0 -44 -15.5 -77t-42.5 -55.5t-62 -34t-74 -11.5t-74 12t-61.5 35t-42 55.5t-15.5 74.5v320h45v-308q0 -40 13.5 -68t34.5 -45.5t48 -25.5t54 -8t53.5 8t47.5 25.5t34 45.5t13 68v308h44v-319v0z" />
    <glyph glyph-name="phi" unicode="&#x3c6;" horiz-adv-x="602" 
d="M555 183q0 -45 -19 -80t-52 -59.5t-76 -37t-89 -12.5v-198h-44v198q-50 0 -92 13.5t-72 37.5t-47 58t-17 75v145q0 31 9.5 58t26.5 49t39 37t48 21q3 -10 5.5 -20t4.5 -21q-39 -14 -63.5 -48.5t-24.5 -91.5v-111q0 -71 46.5 -115t136.5 -45v424q39 20 69.5 28t54.5 8
q69 0 112.5 -41t43.5 -126v-146zM510 317q0 74 -30.5 103.5t-82.5 29.5q-14 0 -36 -6.5t-42 -14.5v-393q91 2 141 43t50 117v121z" />
    <glyph glyph-name="chi" unicode="&#x3c7;" horiz-adv-x="401" 
d="M333 0l-135 214l-135 -214h-55l164 251l-156 240h55l127 -203l129 203h55l-158 -239l165 -252h-56z" />
    <glyph glyph-name="psi" unicode="&#x3c8;" horiz-adv-x="599" 
d="M550 193q0 -47 -17 -83.5t-47 -62.5t-72 -39.5t-93 -13.5v-198h-45v198q-51 0 -93 15t-72 41t-46 62.5t-16 78.5v299h45v-285q0 -36 11.5 -66.5t34 -53.5t57 -36.5t79.5 -13.5v455h45v-455q48 1 82.5 14t57 35.5t33.5 53.5t11 67v285h45v-297v0z" />
    <glyph glyph-name="omega" unicode="&#x3c9;" horiz-adv-x="742" 
d="M698 172q0 -41 -13 -73.5t-36.5 -55.5t-56 -35.5t-70.5 -12.5q-51 0 -90.5 24.5t-59.5 74.5q-21 -50 -61.5 -74.5t-91.5 -24.5q-38 0 -69.5 13t-55 36t-36.5 56t-13 74v144q0 69 38 113t97 58l9 -40q-47 -15 -73.5 -48.5t-26.5 -98.5v-112q0 -40 11 -69t29 -47.5
t41.5 -27.5t49.5 -9q25 0 48.5 9t41.5 27.5t28.5 47.5t10.5 69l1 179h45v-179q0 -31 7.5 -59t23 -49t40 -33t58.5 -12q25 0 48.5 8t41.5 26t29 46.5t11 69.5v115q0 64 -27 97.5t-67 48.5l8 40q56 -15 93 -59t37 -111v-146v0z" />
    <glyph glyph-name="iotadieresis" unicode="&#x3ca;" horiz-adv-x="184" 
d="M70 0v491h44v-491h-44zM210 650q0 -13 -9 -22.5t-23 -9.5q-13 0 -22.5 9.5t-9.5 22.5q0 14 9.5 23t22.5 9q14 0 23 -9t9 -23zM42 650q0 -13 -9.5 -22.5t-23.5 -9.5q-12 0 -21.5 9.5t-9.5 22.5q0 14 9.5 23t21.5 9q14 0 23.5 -9t9.5 -23z" />
    <glyph glyph-name="upsilondieresis" unicode="&#x3cb;" horiz-adv-x="481" 
d="M434 173q0 -44 -15.5 -77t-42.5 -55.5t-62 -34t-74 -11.5t-74 12t-61.5 35t-42 55.5t-15.5 74.5v320h45v-308q0 -40 13.5 -68t34.5 -45.5t48 -25.5t54 -8t53.5 8t47.5 25.5t34 45.5t13 68v308h44v-319zM356 650q0 -13 -9 -22.5t-23 -9.5q-13 0 -22.5 9.5t-9.5 22.5
q0 14 9.5 23t22.5 9q14 0 23 -9t9 -23zM188 650q0 -13 -9.5 -22.5t-23.5 -9.5q-12 0 -21.5 9.5t-9.5 22.5q0 14 9.5 23t21.5 9q14 0 23.5 -9t9.5 -23z" />
    <glyph glyph-name="omicrontonos" unicode="&#x3cc;" horiz-adv-x="479" 
d="M213 575l79 154l48 -19l-99 -147zM433 173q0 -84 -53 -131.5t-141 -47.5q-43 0 -78.5 12.5t-61 36t-39.5 56t-14 73.5v150q0 40 15.5 72.5t42 55t61.5 35t75 12.5q41 0 76.5 -12.5t61.5 -35t40.5 -55t14.5 -72.5v-149zM389 308q0 40 -13.5 68t-34.5 45.5t-47.5 25.5
t-52.5 8q-27 0 -54 -8t-48 -25.5t-34.5 -45.5t-13.5 -68v-125q0 -41 12.5 -69t33 -45.5t47.5 -25.5t57 -8t56.5 8.5t47 26.5t32.5 46t12 67v125z" />
    <glyph glyph-name="upsilontonos" unicode="&#x3cd;" horiz-adv-x="481" 
d="M434 173q0 -44 -15.5 -77t-42.5 -55.5t-62 -34t-74 -11.5t-74 12t-61.5 35t-42 55.5t-15.5 74.5v320h45v-308q0 -40 13.5 -68t34.5 -45.5t48 -25.5t54 -8t53.5 8t47.5 25.5t34 45.5t13 68v308h44v-319zM212 575l78 154l49 -19l-100 -147z" />
    <glyph glyph-name="omegatonos" unicode="&#x3ce;" horiz-adv-x="742" 
d="M698 172q0 -41 -13 -73.5t-36.5 -55.5t-56 -35.5t-70.5 -12.5q-51 0 -90.5 24.5t-59.5 74.5q-21 -50 -61.5 -74.5t-91.5 -24.5q-38 0 -69.5 13t-55 36t-36.5 56t-13 74v144q0 69 38 113t97 58l9 -40q-47 -15 -73.5 -48.5t-26.5 -98.5v-112q0 -40 11 -69t29 -47.5
t41.5 -27.5t49.5 -9q25 0 48.5 9t41.5 27.5t28.5 47.5t10.5 69l1 179h45v-179q0 -31 7.5 -59t23 -49t40 -33t58.5 -12q25 0 48.5 8t41.5 26t29 46.5t11 69.5v115q0 64 -27 97.5t-67 48.5l8 40q56 -15 93 -59t37 -111v-146zM337 575l78 154l49 -19l-100 -147z" />
    <glyph glyph-name="afii10023" unicode="&#x401;" horiz-adv-x="532" 
d="M57 0v689h443v-44h-395v-274h340v-43h-340v-285h395v-43h-443zM396 785q0 -14 -9 -23t-23 -9q-13 0 -22.5 9t-9.5 23q0 13 9.5 22.5t22.5 9.5q14 0 23 -9.5t9 -22.5zM228 785q0 -14 -9.5 -23t-23.5 -9q-12 0 -21.5 9t-9.5 23q0 13 9.5 22.5t21.5 9.5q14 0 23.5 -9.5
t9.5 -22.5z" />
    <glyph glyph-name="afii10051" unicode="&#x402;" horiz-adv-x="683" 
d="M395 -24q40 0 75 11.5t61.5 34.5t42 59t15.5 86v108q0 81 -37.5 116.5t-109.5 35.5q-46 0 -98 -20.5t-98 -53.5v-353h-48v644h-189v45h518v-45h-281v-241q63 42 115.5 56t88.5 14q91 0 139 -46.5t48 -138.5v-129q0 -51 -17.5 -93t-49 -71.5t-76 -46t-99.5 -16.5v44z" />
    <glyph glyph-name="afii10052" unicode="&#x403;" horiz-adv-x="502" 
d="M107 645v-645h-47v689h443v-44h-396zM226 751l136 108l35 -37l-151 -93z" />
    <glyph glyph-name="afii10053" unicode="&#x404;" horiz-adv-x="497" 
d="M293 696q52 0 95.5 -12t82.5 -39l-26 -39q-32 23 -71 34.5t-81 11.5q-36 0 -71 -11t-62.5 -34.5t-44 -60t-16.5 -87.5v-84h275v-43h-275v-100q0 -51 17 -88t44 -61t61 -35.5t69 -11.5q88 0 157 49l25 -37q-27 -20 -73 -37.5t-106 -17.5q-57 0 -101.5 17t-76 48t-48 73
t-16.5 93v244q0 50 17.5 92t49.5 72t76.5 47t98.5 17z" />
    <glyph glyph-name="afii10054" unicode="&#x405;" horiz-adv-x="536" 
d="M504 181q0 -44 -17 -78.5t-48 -58.5t-74.5 -37t-97.5 -13q-68 0 -126 17.5t-111 50.5l27 37q46 -28 100 -45t111 -17q39 0 73 9.5t59 27.5t39.5 45t14.5 62q0 40 -16.5 65.5t-43 41.5t-60.5 25t-68 16q-40 7 -79.5 19.5t-70.5 33.5t-50.5 53t-19.5 79q0 41 15 75t43 58
t68.5 37.5t90.5 13.5q55 0 107 -10t98 -35l-22 -42q-43 23 -91 33t-96 10q-32 0 -61.5 -8t-52 -25.5t-36.5 -44.5t-14 -64q0 -36 16.5 -59.5t43.5 -39t60.5 -24.5t66.5 -16q47 -10 87.5 -23t70.5 -34t47 -53.5t17 -81.5z" />
    <glyph glyph-name="afii10055" unicode="&#x406;" horiz-adv-x="216" 
d="M84 0v689h48v-689h-48z" />
    <glyph glyph-name="afii10056" unicode="&#x407;" horiz-adv-x="216" 
d="M84 0v689h48v-689h-48zM225 829q0 -13 -9 -22.5t-23 -9.5q-13 0 -22.5 9.5t-9.5 22.5q0 14 9.5 23t22.5 9q14 0 23 -9t9 -23zM57 829q0 -13 -9.5 -22.5t-23.5 -9.5q-12 0 -21.5 9.5t-9.5 22.5q0 14 9.5 23t21.5 9q14 0 23.5 -9t9.5 -23z" />
    <glyph glyph-name="afii10057" unicode="&#x408;" horiz-adv-x="504" 
d="M420 225q0 -51 -15.5 -93.5t-45.5 -73t-74.5 -48t-101.5 -17.5q-47 0 -87.5 12.5t-69.5 30.5l23 39q32 -19 64 -29t67 -10q41 0 76.5 11.5t61 36t40 62t14.5 88.5v456h48v-465v0z" />
    <glyph glyph-name="afii10058" unicode="&#x409;" horiz-adv-x="904" 
d="M881 188q0 -92 -57 -140t-150 -48h-256v645h-227v-278q0 -83 -10 -145.5t-29 -109t-46.5 -79t-62.5 -55.5l-25 38q31 22 54.5 50.5t39.5 71t24.5 104t8.5 148.5v299h321v-314h217q50 0 87 -16.5t62 -42.5t37 -60t12 -68zM832 188q0 62 -42 102.5t-117 40.5h-207v-287h207
q33 0 62 8.5t50.5 26t34 44.5t12.5 65z" />
    <glyph glyph-name="afii10059" unicode="&#x40a;" horiz-adv-x="895" 
d="M871 188q0 -92 -56.5 -140t-150.5 -48h-256v330h-306v-330h-47v689h47v-316h306v316h48v-316h217q50 0 87 -16t62 -42t37 -59.5t12 -67.5zM822 188q0 62 -42 102t-117 40h-207v-286h208q33 0 62 8.5t50.5 26t33.5 44.5t12 65z" />
    <glyph glyph-name="afii10060" unicode="&#x40b;" horiz-adv-x="683" 
d="M589 0v270q0 82 -34 119.5t-109 37.5q-45 0 -99.5 -20.5t-100.5 -53.5v-353h-48v644h-189v45h518v-45h-281v-240q61 41 115 55t90 14q95 0 140.5 -49t45.5 -140v-284h-48z" />
    <glyph glyph-name="afii10061" unicode="&#x40c;" horiz-adv-x="534" 
d="M56 0v689h47v-309h148q19 0 38 4.5t36.5 16.5t33 33t26.5 53l69 202h45l-64 -194q-17 -50 -40.5 -85.5t-61.5 -46.5q24 -6 41.5 -18t30 -29.5t21.5 -40t17 -47.5l70 -228h-50l-69 225q-11 34 -24.5 56t-30 35t-36 17.5t-40.5 4.5h-160v-338h-47zM199 751l136 108l35 -37
l-151 -93z" />
    <glyph glyph-name="afii10062" unicode="&#x40e;" horiz-adv-x="487" 
d="M258 139q-17 -43 -33.5 -71t-34.5 -45t-38.5 -24t-45.5 -7h-37v46h29q30 0 54 15t44 62l21 50l-204 524h50l179 -466h3l179 466h49zM160 811q6 -33 31.5 -53t57.5 -20q33 0 56.5 17.5t31.5 55.5h39q-3 -19 -11.5 -38.5t-23.5 -35.5t-38 -26t-54 -10q-32 0 -55 10t-39 26
t-24 35.5t-10 38.5h39z" />
    <glyph glyph-name="afii10145" unicode="&#x40f;" horiz-adv-x="590" 
d="M539 689v-689h-222v-159h-51v159h-214v689h48v-646h390v646h49z" />
    <glyph glyph-name="afii10017" unicode="&#x410;" horiz-adv-x="568" 
d="M501 0q-14 42 -29 83t-30 83h-315q-14 -42 -28 -83t-28 -83h-51l238 689h54l240 -689h-51zM284 630q-4 -12 -14.5 -44.5t-25 -75t-30.5 -90.5t-30.5 -90.5t-25.5 -75t-15 -44.5h284q-4 12 -14.5 44.5t-25 75t-31 90.5t-31 91t-25.5 75t-15 44h-1z" />
    <glyph glyph-name="afii10018" unicode="&#x411;" horiz-adv-x="542" 
d="M518 188q0 -92 -57 -140t-150 -48h-256v689h394v-45h-347v-269h218q51 0 88.5 -16.5t61.5 -42.5t36 -60t12 -68zM469 188q0 62 -42 102.5t-117 40.5h-208v-287h208q33 0 62 8.5t50.5 26t34 44.5t12.5 65z" />
    <glyph glyph-name="afii10019" unicode="&#x412;" horiz-adv-x="574" 
d="M529 188q0 -37 -12.5 -71t-36.5 -60t-59.5 -41.5t-80.5 -15.5h-284v689l272 -1q48 0 83.5 -14t59.5 -37.5t35.5 -55t11.5 -66.5q0 -21 -5 -43t-17.5 -42.5t-33.5 -38t-52 -28.5q34 -11 56.5 -30.5t36.5 -44t20 -50.5t6 -50zM468 514q0 36 -12.5 60.5t-33.5 40.5t-48.5 23
t-57.5 7h-212v-260h224q26 0 51.5 8t45 24t31.5 40t12 57zM481 188q0 35 -12.5 63t-33 48t-47.5 31t-57 11h-227v-298h225q32 0 59.5 9t48 27t32.5 45.5t12 63.5z" />
    <glyph glyph-name="afii10020" unicode="&#x413;" horiz-adv-x="502" 
d="M107 645v-645h-47v689h443v-44h-396z" />
    <glyph glyph-name="afii10021" unicode="&#x414;" horiz-adv-x="667" 
d="M60 46q25 27 43.5 56t31.5 68.5t20 94.5t10 133l11 291h410v-644h51v-192h-47v147h-534v-147h-46v193h50zM220 645l-10 -267q-3 -68 -10 -120t-18.5 -91.5t-27.5 -68.5t-36 -53h419v600h-317z" />
    <glyph glyph-name="afii10022" unicode="&#x415;" horiz-adv-x="532" 
d="M57 0v689h443v-44h-395v-274h340v-43h-340v-285h395v-43h-443z" />
    <glyph glyph-name="afii10024" unicode="&#x416;" horiz-adv-x="838" 
d="M395 338h-127q-21 0 -40.5 -4.5t-36 -17t-30.5 -34.5t-24 -57l-65 -225h-50l67 227q15 51 38 88t71 48q-38 11 -62 45.5t-39 85.5l-61 195h46l65 -202q10 -33 25.5 -53.5t33.5 -32.5t37 -16.5t38 -4.5h114v309h48v-309h114q19 0 38 4.5t37 16.5t33 32.5t26 53.5l65 202
h46l-61 -195q-16 -51 -40 -85.5t-62 -45.5q24 -6 41.5 -18t30.5 -30t21.5 -40.5t16.5 -47.5l67 -227h-50l-66 225q-10 35 -23.5 57t-30 34.5t-36 17t-41.5 4.5h-126v-338h-48v338z" />
    <glyph glyph-name="afii10025" unicode="&#x417;" horiz-adv-x="503" 
d="M244 698q38 0 74.5 -10t65 -31.5t45.5 -54t17 -77.5q0 -26 -7 -51.5t-21.5 -47.5t-36 -38.5t-50.5 -25.5q32 -10 54.5 -29t36.5 -42.5t20 -49t6 -48.5q0 -48 -18.5 -85.5t-50 -63t-73 -38.5t-88.5 -13q-69 0 -119 20.5t-82 44.5l28 36q31 -25 76 -42t95 -17
q37 0 70.5 10.5t59 30.5t40 48.5t14.5 63.5q0 36 -12 63.5t-31.5 47t-44.5 29.5t-51 10h-82v42h82q20 0 43.5 8.5t44 26t34.5 44.5t14 64q0 36 -14.5 61t-37 41t-51 23.5t-56.5 7.5q-47 0 -93 -15.5t-75 -39.5l-28 36q47 32 93.5 46.5t108.5 14.5z" />
    <glyph glyph-name="afii10026" unicode="&#x418;" horiz-adv-x="613" 
d="M378 414l-271 -414h-51v689h48v-615l128 193l276 422h49v-689h-48v612z" />
    <glyph glyph-name="afii10027" unicode="&#x419;" horiz-adv-x="613" 
d="M378 414l-271 -414h-51v689h48v-615l128 193l276 422h49v-689h-48v612zM202 825q6 -33 31.5 -53t57.5 -20q33 0 56.5 17.5t31.5 55.5h39q-3 -19 -11.5 -38.5t-23.5 -35.5t-38 -26t-54 -10q-32 0 -55 10t-39 26t-24 35.5t-10 38.5h39z" />
    <glyph glyph-name="afii10028" unicode="&#x41a;" horiz-adv-x="534" 
d="M56 0v689h47v-309h148q19 0 38 4.5t36.5 16.5t33 33t26.5 53l69 202h45l-64 -194q-17 -50 -40.5 -85.5t-61.5 -46.5q24 -6 41.5 -18t30 -29.5t21.5 -40t17 -47.5l70 -228h-50l-69 225q-11 34 -24.5 56t-30 35t-36 17.5t-40.5 4.5h-160v-338h-47z" />
    <glyph glyph-name="afii10029" unicode="&#x41b;" horiz-adv-x="590" 
d="M175 645v-278q0 -83 -10 -145.5t-29.5 -109t-47 -79t-63.5 -55.5l-24 40q30 22 53 50t39.5 70.5t25 103.5t8.5 148v299h408v-689h-49v645h-311z" />
    <glyph glyph-name="afii10030" unicode="&#x41c;" horiz-adv-x="707" 
d="M603 577h-1q-29 -62 -55.5 -118t-52.5 -110q-31 -62 -59.5 -120.5t-57.5 -118.5h-40l-122 245l-110 223h-2v-578h-48v689h48q38 -79 76.5 -156.5t76.5 -155.5q25 -52 49.5 -103.5t50.5 -102.5l36 72l63 134q38 78 76.5 156.5t74.5 155.5h45v-689h-48v577z" />
    <glyph glyph-name="afii10031" unicode="&#x41d;" horiz-adv-x="596" 
d="M492 0v329h-390v-329h-47v689h47v-317h390v317h50v-689h-50z" />
    <glyph glyph-name="afii10032" unicode="&#x41e;" horiz-adv-x="587" 
d="M536 220q0 -51 -17.5 -93t-49 -71.5t-76.5 -46t-100 -16.5q-56 0 -100.5 16.5t-76 47t-48.5 73t-17 93.5v245q0 50 16.5 92t48 72t76.5 47t101 17q55 0 100 -17t76.5 -47.5t49 -72.5t17.5 -91v-248zM488 459q0 49 -16 85.5t-43 60.5t-62 35.5t-74 11.5q-40 0 -75.5 -11.5
t-61.5 -35.5t-41.5 -60.5t-15.5 -85.5v-231q0 -51 17 -87t44.5 -59.5t62.5 -34.5t70 -11q40 0 75.5 11.5t62 35t42 59.5t15.5 86v231z" />
    <glyph glyph-name="afii10033" unicode="&#x41f;" horiz-adv-x="590" 
d="M490 0v645h-390v-645h-48v689h487v-689h-49z" />
    <glyph glyph-name="afii10034" unicode="&#x420;" horiz-adv-x="539" 
d="M516 492q0 -36 -12.5 -71t-37 -63t-60 -45t-81.5 -17h-223v-296h-47v689h270q48 0 84 -17.5t60 -45.5t35.5 -63t11.5 -71zM467 492q0 35 -12 63t-32.5 48t-48 31t-58.5 11h-214v-304h214q31 0 58.5 10t48 29.5t32.5 47.5t12 64z" />
    <glyph glyph-name="afii10035" unicode="&#x421;" horiz-adv-x="502" 
d="M293 696q52 0 95.5 -12t82.5 -39l-26 -39q-32 23 -71 34.5t-81 11.5q-36 0 -71 -11t-62.5 -34.5t-44 -60t-16.5 -87.5v-227q0 -51 17 -88t44 -61t61 -35.5t69 -11.5q88 0 157 49l25 -37q-27 -20 -73 -37.5t-106 -17.5q-55 0 -100 17t-76.5 48t-48.5 73t-17 93v244
q0 50 17.5 92t49.5 72t76.5 47t98.5 17z" />
    <glyph glyph-name="afii10036" unicode="&#x422;" horiz-adv-x="513" 
d="M281 644v-644h-48v644h-216v45h478v-45h-214z" />
    <glyph glyph-name="afii10037" unicode="&#x423;" horiz-adv-x="487" 
d="M258 139q-17 -43 -33.5 -71t-34.5 -45t-38.5 -24t-45.5 -7h-37v46h29q30 0 54 15t44 62l21 50l-204 524h50l179 -466h3l179 466h49z" />
    <glyph glyph-name="afii10038" unicode="&#x424;" horiz-adv-x="726" 
d="M101 316q0 -50 18 -89.5t49.5 -67t75.5 -42.5t95 -15v519q-55 0 -99 -15.5t-75 -43.5t-47.5 -68t-16.5 -89v-89zM624 405q0 49 -16.5 89t-47.5 68t-75 43.5t-99 15.5v-519q51 0 95 15t75.5 42.5t49.5 67t18 89.5v89zM386 0h-47v58q-70 1 -123.5 22.5t-89.5 56t-54.5 80.5
t-18.5 97v99q0 49 18 94.5t53.5 80t89 55.5t125.5 23v30h47v-30q72 -1 125.5 -22t89 -56t53.5 -80.5t18 -94.5v-99q0 -51 -18.5 -96.5t-54.5 -80.5t-89.5 -56.5t-123.5 -22.5v-58z" />
    <glyph glyph-name="afii10039" unicode="&#x425;" horiz-adv-x="501" 
d="M433 0l-183 311l-183 -311h-56l213 354l-198 335h56l168 -293l168 293h56l-198 -335l213 -354h-56z" />
    <glyph glyph-name="afii10040" unicode="&#x426;" horiz-adv-x="611" 
d="M545 0h-490v689h47v-646h390v646h50v-645h51v-191h-48v147z" />
    <glyph glyph-name="afii10041" unicode="&#x427;" horiz-adv-x="545" 
d="M80 689v-194q0 -44 7.5 -77.5t25.5 -56.5t47.5 -35t74.5 -12q53 0 107.5 18.5t98.5 47.5v309h48v-689h-48v331q-53 -33 -109.5 -47t-98.5 -14q-48 0 -85 11.5t-63 37t-39.5 66t-13.5 98.5v206h48z" />
    <glyph glyph-name="afii10042" unicode="&#x428;" horiz-adv-x="899" 
d="M844 689v-689h-789v689h48v-646h322v646h47v-646h324v646h48z" />
    <glyph glyph-name="afii10043" unicode="&#x429;" horiz-adv-x="913" 
d="M472 43h323v646h49v-645h51v-191h-47v147h-793v689h48v-646h322v646h47v-646z" />
    <glyph glyph-name="afii10044" unicode="&#x42a;" horiz-adv-x="689" 
d="M661 188q0 -92 -56.5 -140t-149.5 -48h-257v644h-192v45h240v-314h217q50 0 87.5 -16.5t62 -42.5t36.5 -60t12 -68zM612 188q0 31 -11 57t-31 45t-50 30t-67 11h-207v-287h208q33 0 62 8.5t50.5 26t33.5 44.5t12 65z" />
    <glyph glyph-name="afii10045" unicode="&#x42b;" horiz-adv-x="699" 
d="M520 188q0 -92 -57 -140t-150 -48h-256v689h47v-314h218q50 0 87 -16.5t62 -42.5t37 -60t12 -68zM471 188q0 62 -42 102.5t-117 40.5h-208v-287h208q33 0 62 8.5t50.5 26t34 44.5t12.5 65zM591 0v689h48v-689h-48z" />
    <glyph glyph-name="afii10046" unicode="&#x42c;" horiz-adv-x="543" 
d="M520 188q0 -92 -57 -140t-150 -48h-256v689h47v-314h218q50 0 87 -16.5t62 -42.5t37 -60t12 -68zM471 188q0 62 -42 102.5t-117 40.5h-208v-287h208q33 0 62 8.5t50.5 26t34 44.5t12.5 65z" />
    <glyph glyph-name="afii10047" unicode="&#x42d;" horiz-adv-x="499" 
d="M217 697q59 0 102 -16t70.5 -46t41 -72.5t13.5 -94.5v-240q0 -51 -17 -94t-49 -74.5t-78 -49t-104 -17.5q-60 0 -105.5 17.5t-73.5 37.5l25 38q70 -49 158 -49q39 0 74.5 12t62.5 37t43 62t16 88v100h-281v43h281v80q0 102 -49.5 147.5t-130.5 45.5q-42 0 -83.5 -12
t-73.5 -35l-25 38q79 54 183 54z" />
    <glyph glyph-name="afii10048" unicode="&#x42e;" horiz-adv-x="721" 
d="M670 220q0 -51 -15.5 -93t-44.5 -71.5t-72 -46t-98 -16.5q-56 0 -98.5 16.5t-71.5 47t-44 73t-15 93.5v106h-106v-329h-48v689h48v-317h106v96q0 50 14.5 92t43.5 72t72 47t99 17q55 0 97.5 -17t72 -47.5t45 -72.5t15.5 -91v-248zM622 459q0 49 -14 85.5t-38.5 60.5
t-57.5 35.5t-72 11.5q-40 0 -73.5 -11.5t-57.5 -35.5t-37 -60.5t-13 -85.5v-231q0 -51 15 -87t40 -59.5t57.5 -34.5t68.5 -11q40 0 73.5 11.5t57.5 35t37.5 59.5t13.5 86v231z" />
    <glyph glyph-name="afii10049" unicode="&#x42f;" horiz-adv-x="576" 
d="M58 492q0 38 11.5 73.5t35 63t59.5 44t84 16.5h274v-689h-48v310h-195q-21 0 -40.5 -5t-36.5 -17.5t-32 -34t-25 -55.5l-58 -198h-49l60 206q13 43 31 72.5t56 43.5q-34 9 -58 26t-39.5 39.5t-22.5 49t-7 55.5zM105 492q0 -36 12.5 -62.5t34 -43.5t50 -25.5t60.5 -8.5
h212v293h-220q-65 0 -107 -40.5t-42 -112.5z" />
    <glyph glyph-name="afii10065" unicode="&#x430;" horiz-adv-x="466" 
d="M375 61h-1q-36 -23 -64.5 -36t-51 -20t-40.5 -9t-32 -2q-69 0 -111.5 35t-42.5 104q0 39 16 66t40 43.5t53 24t56 7.5h178v49q0 132 -139 132q-35 0 -72 -10t-75 -36l-24 36q42 28 84 39.5t90 11.5q51 0 85.5 -11.5t55.5 -33.5t30 -52.5t9 -68.5v-330h-36zM214 235
q-20 0 -43.5 -3t-44 -13.5t-34 -31t-13.5 -54.5q0 -26 9 -44.5t24.5 -30.5t36 -18t43.5 -6q22 0 45.5 6.5t47.5 16.5t47 22.5t43 24.5v131h-161z" />
    <glyph glyph-name="afii10066" unicode="&#x431;" horiz-adv-x="479" 
d="M393 683q-38 -16 -61.5 -24t-48.5 -18q-53 -20 -87.5 -41.5t-55.5 -49t-31 -64.5t-16 -89q1 0 1.5 -0.5t1.5 -0.5q13 20 31.5 34.5t39.5 24.5t42.5 14.5t40.5 4.5q88 0 135.5 -46.5t47.5 -128.5v-125q0 -42 -14.5 -75t-40.5 -56.5t-62.5 -36t-80.5 -12.5q-90 0 -140 49
t-50 130v126q0 39 2 76t8 71.5t18 66t32 60.5q21 30 54.5 51t71 37.5t76 30t69.5 28.5zM389 285q0 40 -11 68t-30.5 45.5t-46.5 25.5t-58 8q-27 0 -54 -9t-48.5 -28t-35.5 -48.5t-14 -69.5v-95q0 -40 11.5 -68t31.5 -46t46.5 -26t56.5 -8q32 0 60 8.5t48.5 26.5t32 46
t11.5 67v103z" />
    <glyph glyph-name="afii10067" unicode="&#x432;" horiz-adv-x="464" 
d="M424 137q0 -27 -9.5 -52t-28 -44t-46 -30t-63.5 -11h-229v491h221q39 0 66.5 -10.5t45.5 -27.5t26.5 -40.5t8.5 -48.5q0 -14 -3.5 -29.5t-12 -29.5t-23 -26.5t-36.5 -20.5q23 -9 39 -23t25.5 -30.5t14 -34.5t4.5 -33zM379 137q0 22 -9 40.5t-24 32t-34.5 20.5t-41.5 7
h-177v-197h174q49 0 80.5 24.5t31.5 72.5zM370 363q0 24 -9 40.5t-24.5 27t-35 15t-40.5 4.5h-168v-171h174q19 0 38 5t33 15.5t23 26t9 37.5z" />
    <glyph glyph-name="afii10068" unicode="&#x433;" horiz-adv-x="392" 
d="M94 449v-449h-45v491h341v-42h-296z" />
    <glyph glyph-name="afii10069" unicode="&#x434;" horiz-adv-x="536" 
d="M503 39v-161h-42v122h-408v-122h-42v160h18.5t18.5 1q17 14 30.5 33.5t23 47.5t15 66.5t8.5 91.5q2 54 4.5 106.5t5.5 106.5h330v-452h38zM421 451h-246l-9 -179q-5 -84 -17.5 -141t-40.5 -92h313v412z" />
    <glyph glyph-name="afii10070" unicode="&#x435;" horiz-adv-x="466" 
d="M94 227v-46q0 -41 13 -69t34 -45.5t48 -25.5t56 -8q41 0 74 14t59 39l28 -32q-31 -31 -72 -45.5t-91 -14.5q-42 0 -77.5 11.5t-61.5 34t-40.5 56t-14.5 77.5v139q0 42 14 76t39.5 58.5t61 37.5t77.5 13q41 0 75 -13.5t59 -37.5t38.5 -58t13.5 -74v-87h-333zM382 308
q0 40 -12.5 68t-32.5 46t-45 26t-51 8q-27 0 -53.5 -8.5t-47 -26.5t-33.5 -46.5t-13 -67.5v-41h288v42z" />
    <glyph glyph-name="afii10072" unicode="&#x436;" horiz-adv-x="674" 
d="M315 0v233h-104q-18 0 -32.5 -3t-27 -11.5t-22 -23.5t-16.5 -40l-45 -155h-46l48 161q11 37 26.5 63t50.5 34q-29 8 -44.5 33t-26.5 61l-45 140h45l47 -147q7 -23 18 -37t23.5 -22t26.5 -10.5t28 -2.5h96v219h44v-219h96q14 0 28 2.5t26.5 10.5t22.5 22t18 37l47 147h45
l-44 -140q-11 -36 -26.5 -61t-44.5 -33q35 -8 50.5 -34t26.5 -63l48 -161h-47l-45 155q-7 25 -16.5 40t-21.5 23.5t-27 11.5t-33 3h-103v-233h-44z" />
    <glyph glyph-name="afii10073" unicode="&#x437;" horiz-adv-x="411" 
d="M177 -4q-54 0 -94 13.5t-70 35.5q6 8 13 16.5t14 16.5q26 -20 61.5 -32t74.5 -12q61 0 99 29t38 74q0 24 -9 42t-24 30t-34 18.5t-39 6.5h-68v38h68q16 0 34 6t33 17.5t24.5 29t9.5 40.5q0 24 -11 41t-28 28t-38 16t-42 5q-37 0 -71 -10.5t-58 -29.5q-8 8 -14.5 16
t-13.5 17q39 28 78 38t84 10q34 0 63 -9t50.5 -25.5t33.5 -40t12 -53.5q0 -32 -18.5 -65t-61.5 -48q25 -9 41 -23t25.5 -30t13.5 -33t4 -30q0 -32 -13 -58.5t-36.5 -45.5t-57 -29t-73.5 -10z" />
    <glyph glyph-name="afii10074" unicode="&#x438;" horiz-adv-x="486" 
d="M389 420q-33 -48 -66 -94.5t-67 -94.5q-41 -58 -81 -116t-81 -115h-44v490h44v-422h2l133 189l163 233h43v-490h-44v420h-2v0z" />
    <glyph glyph-name="afii10075" unicode="&#x439;" horiz-adv-x="486" 
d="M389 420q-33 -48 -66 -94.5t-67 -94.5q-41 -58 -81 -116t-81 -115h-44v490h44v-422h2l133 189l163 233h43v-490h-44v420h-2zM154 674q6 -33 31.5 -53t57.5 -20q33 0 56.5 17.5t31.5 55.5h39q-3 -19 -11.5 -38.5t-23.5 -35.5t-38 -26t-54 -10q-32 0 -55 10t-39 26
t-24 35.5t-10 38.5h39z" />
    <glyph glyph-name="afii10076" unicode="&#x43a;" horiz-adv-x="472" 
d="M65 0v492h45v-219h132q29 0 53.5 13t41.5 59l55 147h45l-52 -140q-13 -35 -27.5 -60.5t-43.5 -33.5q18 -4 29.5 -13t20 -21.5t15 -28.5t12.5 -34l56 -161h-47l-53 155q-8 24 -18 39.5t-22 24t-26 11.5t-32 3h-139v-233h-45z" />
    <glyph glyph-name="afii10077" unicode="&#x43b;" horiz-adv-x="475" 
d="M149 450v-186q0 -62 -8.5 -107t-24.5 -77.5t-38.5 -55t-50.5 -39.5l-22 34q24 16 42.5 35t31 48.5t19.5 72t7 105.5v210h317v-490h-45v450h-228z" />
    <glyph glyph-name="afii10078" unicode="&#x43c;" horiz-adv-x="573" 
d="M477 394h-1l-81 -152l-90 -165h-35l-54 98l-119 219h-1v-394h-46v490h43l116 -214l79 -146l77 145l117 215h40v-490h-45v394z" />
    <glyph glyph-name="afii10079" unicode="&#x43d;" horiz-adv-x="487" 
d="M392 0v229h-297v-229h-45v490h45v-220h297v220h45v-490h-45z" />
    <glyph glyph-name="afii10080" unicode="&#x43e;" horiz-adv-x="479" 
d="M433 173q0 -84 -53 -131.5t-141 -47.5q-43 0 -78.5 12.5t-61 36t-39.5 56t-14 73.5v150q0 40 15.5 72.5t42 55t61.5 35t75 12.5q41 0 76.5 -12.5t61.5 -35t40.5 -55t14.5 -72.5v-149zM389 308q0 40 -13.5 68t-34.5 45.5t-47.5 25.5t-52.5 8q-27 0 -54 -8t-48 -25.5
t-34.5 -45.5t-13.5 -68v-125q0 -41 12.5 -69t33 -45.5t47.5 -25.5t57 -8t56.5 8.5t47 26.5t32.5 46t12 67v125z" />
    <glyph glyph-name="afii10081" unicode="&#x43f;" horiz-adv-x="483" 
d="M390 0v450h-296v-450h-44v491h384v-491h-44z" />
    <glyph glyph-name="afii10082" unicode="&#x440;" horiz-adv-x="480" 
d="M86 489l8 -64q36 22 64 36.5t50.5 22t40 10.5t31.5 3q72 0 113.5 -41t41.5 -126v-166q0 -83 -45.5 -127t-126.5 -44q-30 0 -69.5 8t-99.5 38v-242h-44v692h36zM94 85q55 -28 94 -39t71 -11q66 0 99 33.5t33 105.5v145q0 73 -30 104t-83 31q-34 0 -84 -21t-100 -55v-293z
" />
    <glyph glyph-name="afii10083" unicode="&#x441;" horiz-adv-x="410" 
d="M239 498q38 0 78.5 -10.5t70.5 -36.5l-28 -36q-29 23 -60.5 32t-56.5 9q-28 0 -54.5 -8t-47.5 -25.5t-33.5 -45.5t-12.5 -68v-125q0 -39 12.5 -67t33.5 -46t47.5 -26t53.5 -8q24 0 59 8.5t59 27.5l27 -34q-31 -23 -70 -33.5t-77 -10.5q-44 0 -79.5 13t-60.5 37t-38 56.5
t-13 71.5v148q0 40 14 72.5t39.5 55.5t60 36t76.5 13z" />
    <glyph glyph-name="afii10084" unicode="&#x442;" horiz-adv-x="406" 
d="M226 449v-449h-45v449h-167v42h379v-42h-167z" />
    <glyph glyph-name="afii10085" unicode="&#x443;" horiz-adv-x="428" 
d="M116 -198l72 200l-28 29l-153 459h47q20 -57 38 -114t38 -115l75 -222h1l81 222q21 58 42 115t41 114h47q-63 -174 -126.5 -344.5t-126.5 -343.5h-48z" />
    <glyph glyph-name="afii10086" unicode="&#x444;" horiz-adv-x="591" 
d="M274 -204v198q-52 0 -94 15.5t-72 42.5t-46 63t-16 77v115q0 41 15.5 77.5t45 63.5t72 42.5t95.5 15.5v182h44v-182q54 0 96 -15.5t71.5 -42.5t45 -63.5t15.5 -77.5v-113q0 -41 -16.5 -77.5t-46.5 -63.5t-72 -43t-93 -16v-198h-44zM274 463q-50 -2 -85 -15.5t-57 -36.5
t-31.5 -53.5t-9.5 -65.5v-84q0 -35 10.5 -66t32.5 -54t57 -36.5t83 -14.5v426zM318 37q48 1 82 14.5t56.5 36.5t33 54t10.5 66v84q0 35 -10.5 66t-33 54.5t-56.5 37t-82 13.5v-426z" />
    <glyph glyph-name="afii10087" unicode="&#x445;" horiz-adv-x="401" 
d="M333 0l-135 214l-135 -214h-55l164 251l-156 240h55l127 -203l129 203h55l-158 -239l165 -252h-56z" />
    <glyph glyph-name="afii10088" unicode="&#x446;" horiz-adv-x="498" 
d="M429 0h-376v491h43v-451h295v451h43v-452h38v-161h-43v122z" />
    <glyph glyph-name="afii10089" unicode="&#x447;" horiz-adv-x="435" 
d="M184 185q-32 0 -60 8.5t-50 27t-34.5 48t-12.5 72.5v150h44v-141q0 -122 118 -122q40 0 80.5 14t78.5 37v212h45v-491h-45v233q-48 -29 -90.5 -38.5t-73.5 -9.5z" />
    <glyph glyph-name="afii10090" unicode="&#x448;" horiz-adv-x="727" 
d="M674 490v-490h-622v490h44v-450h244v450h45v-450h245v450h44z" />
    <glyph glyph-name="afii10091" unicode="&#x449;" horiz-adv-x="736" 
d="M676 0h-618v490h46v-450h242v450h45v-450h245v450h44v-451h39v-162h-43v123z" />
    <glyph glyph-name="afii10092" unicode="&#x44a;" horiz-adv-x="542" 
d="M200 273h166q41 0 70.5 -11.5t48 -30.5t27 -43.5t8.5 -50.5q0 -68 -43.5 -102.5t-119.5 -34.5h-201v448h-150v42h194v-217zM475 137q0 41 -28 68.5t-85 27.5h-162v-192h161q53 0 83.5 23.5t30.5 72.5z" />
    <glyph glyph-name="afii10093" unicode="&#x44b;" horiz-adv-x="561" 
d="M467 0v490h44v-490h-44zM369 137q0 41 -27.5 68.5t-85.5 27.5h-162v-192h161q54 0 84 23.5t30 72.5zM94 273h166q42 0 71 -11.5t48 -30.5t27.5 -43.5t8.5 -50.5q0 -68 -44 -102.5t-119 -34.5h-202v491h44v-218z" />
    <glyph glyph-name="afii10094" unicode="&#x44c;" horiz-adv-x="433" 
d="M369 137q0 41 -27.5 68.5t-85.5 27.5h-162v-192h161q54 0 84 23.5t30 72.5zM94 273h166q42 0 71 -11.5t48 -30.5t27.5 -43.5t8.5 -50.5q0 -68 -44 -102.5t-119 -34.5h-202v491h44v-218z" />
    <glyph glyph-name="afii10095" unicode="&#x44d;" horiz-adv-x="401" 
d="M165 -5q-38 0 -78 9.5t-70 34.5l25 36q28 -22 62 -30t58 -8q29 0 55.5 8t47 25.5t33 45.5t12.5 67v50h-214v41h214v39q0 80 -36 111.5t-98 31.5q-12 0 -28 -2.5t-32.5 -7.5t-32.5 -12.5t-29 -17.5l-28 33q33 26 75 37.5t80 11.5q90 0 132.5 -47t42.5 -124v-152
q0 -40 -13.5 -73t-38 -57t-60 -37t-79.5 -13z" />
    <glyph glyph-name="afii10096" unicode="&#x44e;" horiz-adv-x="585" 
d="M540 173q0 -84 -48 -131.5t-136 -47.5q-87 0 -135 48.5t-48 129.5v57h-80v-229h-45v490h45v-221h80v53q0 40 14 72.5t38.5 55t58 35t73.5 12.5q83 0 133 -47t50 -128v-149zM496 308q0 40 -11.5 68t-31 45.5t-44.5 25.5t-51 8q-27 0 -52.5 -8t-45 -25.5t-31 -45.5
t-11.5 -68v-125q0 -41 11 -69t29.5 -45.5t44 -25.5t55.5 -8t55 8.5t43.5 26.5t29 46t10.5 67v125z" />
    <glyph glyph-name="afii10097" unicode="&#x44f;" horiz-adv-x="457" 
d="M41 351q0 28 9.5 53.5t28 45t46.5 31t65 11.5h219v-492h-44v217h-162q-32 -1 -55.5 -16.5t-35.5 -59.5l-39 -141h-46l41 146q8 29 21.5 51t41.5 33q-45 13 -67.5 46.5t-22.5 74.5zM85 351q0 -24 8.5 -41.5t23.5 -29.5t34.5 -17.5t41.5 -5.5h172v193h-172q-22 0 -41.5 -6
t-34.5 -18t-23.5 -31t-8.5 -44z" />
    <glyph glyph-name="afii10071" unicode="&#x451;" horiz-adv-x="466" 
d="M94 227v-46q0 -41 13 -69t34 -45.5t48 -25.5t56 -8q41 0 74 14t59 39l28 -32q-31 -31 -72 -45.5t-91 -14.5q-42 0 -77.5 11.5t-61.5 34t-40.5 56t-14.5 77.5v139q0 42 14 76t39.5 58.5t61 37.5t77.5 13q41 0 75 -13.5t59 -37.5t38.5 -58t13.5 -74v-87h-333zM382 308
q0 40 -12.5 68t-32.5 46t-45 26t-51 8q-27 0 -53.5 -8.5t-47 -26.5t-33.5 -46.5t-13 -67.5v-41h288v42zM356 652q0 -13 -9 -22.5t-23 -9.5q-13 0 -22.5 9.5t-9.5 22.5q0 14 9.5 23t22.5 9q14 0 23 -9t9 -23zM188 652q0 -13 -9.5 -22.5t-23.5 -9.5q-12 0 -21.5 9.5t-9.5 22.5
q0 14 9.5 23t21.5 9q14 0 23.5 -9t9.5 -23z" />
    <glyph glyph-name="afii10099" unicode="&#x452;" horiz-adv-x="490" 
d="M249 -24q33 0 60.5 8t47.5 25.5t31 45.5t11 67l-1 192q0 73 -28 104.5t-84 31.5q-18 0 -40.5 -6t-46.5 -16.5t-49 -24t-48 -28.5v-375h-45v579h-53v38h53v99h45v-99h234v-38h-234v-160q69 44 114.5 59.5t76.5 15.5q150 0 150 -168v-213q0 -86 -53 -132.5t-141 -46.5v42z
" />
    <glyph glyph-name="afii10100" unicode="&#x453;" horiz-adv-x="392" 
d="M177 575l78 154l49 -19l-100 -147zM94 449v-449h-45v491h341v-42h-296z" />
    <glyph glyph-name="afii10101" unicode="&#x454;" horiz-adv-x="404" 
d="M292 271v-40h-201v-47q0 -39 12.5 -67t33 -46t47 -26t54.5 -8q12 0 28 2t32 6.5t31.5 11.5t27.5 16l26 -34q-30 -23 -69.5 -33.5t-77.5 -10.5q-45 0 -80.5 13t-59.5 37t-37 56.5t-13 71.5v148q0 40 14 72.5t38.5 55.5t59.5 36t77 13q38 0 78.5 -10.5t70.5 -36.5l-28 -36
q-29 23 -60.5 32t-56.5 9q-29 0 -55.5 -8t-47 -25.5t-33 -45.5t-12.5 -68v-38h201z" />
    <glyph glyph-name="afii10102" unicode="&#x455;" horiz-adv-x="439" 
d="M227 31q22 0 46 5t43 17t31.5 31.5t12.5 48.5q0 42 -33 63.5t-111 34.5q-30 5 -60 12.5t-54.5 21t-40 36t-15.5 57.5q0 61 45.5 100t123.5 39q51 0 91 -9.5t74 -32.5l-23 -34q-62 37 -139 37q-58 0 -93 -27t-35 -73q0 -21 10.5 -36t29 -25t44 -16.5t55.5 -11.5
t61.5 -12.5t57 -22t41.5 -39t16 -64.5q0 -60 -47 -98.5t-133 -38.5q-48 0 -95 10t-92 42l24 35q37 -26 77 -38t88 -12z" />
    <glyph glyph-name="afii10103" unicode="&#x456;" horiz-adv-x="185" 
d="M125 653q0 -14 -9.5 -23.5t-23.5 -9.5q-13 0 -22.5 9.5t-9.5 23.5t9.5 23t22.5 9q14 0 23.5 -9t9.5 -23zM70 0v491h44v-491h-44z" />
    <glyph glyph-name="afii10104" unicode="&#x457;" horiz-adv-x="205" 
d="M219 650q0 -13 -9 -22.5t-23 -9.5q-13 0 -22.5 9.5t-9.5 22.5q0 14 9.5 23t22.5 9q14 0 23 -9t9 -23zM51 650q0 -13 -9.5 -22.5t-23.5 -9.5q-12 0 -21.5 9.5t-9.5 22.5q0 14 9.5 23t21.5 9q14 0 23.5 -9t9.5 -23zM80 0v491h44v-491h-44z" />
    <glyph glyph-name="afii10105" unicode="&#x458;" horiz-adv-x="220" 
d="M150 653q0 -14 -9.5 -23.5t-23.5 -9.5q-13 0 -22.5 9.5t-9.5 23.5t9.5 23t22.5 9q14 0 23.5 -9t9.5 -23zM94 491h45v-578q0 -64 -27 -93t-84 -29h-37v41h31q40 0 56 19t16 70v570z" />
    <glyph glyph-name="afii10106" unicode="&#x459;" horiz-adv-x="711" 
d="M365 273h166q42 0 71 -11.5t48 -30.5t27.5 -43.5t8.5 -50.5q0 -68 -44 -102.5t-119 -34.5h-203v450h-169v-187q0 -59 -8 -103t-23.5 -77t-38.5 -56.5t-52 -40.5l-22 33q24 16 43 36t32 49t20 71t7 101v215h256v-218zM640 137q0 41 -27.5 68.5t-85.5 27.5h-162v-192h161
q54 0 84 23.5t30 72.5z" />
    <glyph glyph-name="afii10107" unicode="&#x45a;" horiz-adv-x="717" 
d="M374 273h167q41 0 70.5 -11.5t48 -30.5t27 -43.5t8.5 -50.5q0 -68 -43.5 -102.5t-118.5 -34.5h-203v233h-232v-233h-44v491h44v-219h232v219h44v-218zM650 137q0 41 -28 68.5t-85 27.5h-163v-192h162q53 0 83.5 23.5t30.5 72.5z" />
    <glyph glyph-name="afii10108" unicode="&#x45b;" horiz-adv-x="490" 
d="M293 494q150 0 150 -168v-326h-45v314q0 73 -28 104.5t-84 31.5q-18 0 -40.5 -6t-46.5 -16.5t-49 -24t-48 -28.5v-375h-45v579h-53v38h53v99h45v-99h234v-38h-234v-160q69 44 114.5 59.5t76.5 15.5z" />
    <glyph glyph-name="afii10109" unicode="&#x45c;" horiz-adv-x="472" 
d="M204 575l78 154l49 -19l-100 -147zM65 0v492h45v-219h132q29 0 53.5 13t41.5 59l55 147h45l-52 -140q-13 -35 -27.5 -60.5t-43.5 -33.5q18 -4 29.5 -13t20 -21.5t15 -28.5t12.5 -34l56 -161h-47l-53 155q-8 24 -18 39.5t-22 24t-26 11.5t-32 3h-139v-233h-45z" />
    <glyph glyph-name="afii10110" unicode="&#x45e;" horiz-adv-x="428" 
d="M116 -198l72 200l-28 29l-153 459h47q20 -57 38 -114t38 -115l75 -222h1l81 222q21 58 42 115t41 114h47q-63 -174 -126.5 -344.5t-126.5 -343.5h-48zM125 674q6 -33 31.5 -53t57.5 -20q33 0 56.5 17.5t31.5 55.5h39q-3 -19 -11.5 -38.5t-23.5 -35.5t-38 -26t-54 -10
q-32 0 -55 10t-39 26t-24 35.5t-10 38.5h39z" />
    <glyph glyph-name="afii10193" unicode="&#x45f;" horiz-adv-x="485" 
d="M436 490v-490h-176v-125h-46v125h-164v490h44v-450h297v450h45z" />
    <glyph glyph-name="afii10050" unicode="&#x490;" horiz-adv-x="507" 
d="M107 645v-645h-47v689h394v116h47v-160h-394z" />
    <glyph glyph-name="afii10098" unicode="&#x491;" horiz-adv-x="388" 
d="M342 592h47v-143h-298v-449h-46v491h297v101z" />
    <glyph glyph-name="schwacyrillic" unicode="&#x4d9;" horiz-adv-x="466" 
d="M380 263v47q0 41 -11.5 69t-31 45.5t-45 25t-54.5 7.5q-42 0 -78 -13.5t-62 -38.5l-27 31q33 32 75 46.5t93 14.5q42 0 76 -11.5t59 -34t38.5 -56.5t13.5 -78v-139q0 -42 -14.5 -76t-40 -58t-60.5 -37t-77 -13q-41 0 -75.5 12.5t-59 35.5t-38 55.5t-13.5 73.5v92h332z
M93 183q0 -41 12 -69t32 -46t45.5 -26t51.5 -8q27 0 53 8.5t47 27t33.5 47t12.5 67.5v41h-287v-42z" />
    <glyph glyph-name="Wgrave" unicode="&#x1e80;" horiz-adv-x="838" 
d="M538 315l66 -250h2l64 251l97 373h51q-47 -174 -92.5 -344.5t-91.5 -344.5h-59l-96 362l-64 245l-88 -333l-74 -274h-58l-185 689h52l96 -372q16 -63 32 -126.5t33 -126.5h1l67 254l98 371h51zM433 759l-151 93l35 37l136 -108z" />
    <glyph glyph-name="wgrave" unicode="&#x1e81;" horiz-adv-x="671" 
d="M425 256l65 -193h1q18 60 36 120.5t35 121.5l53 186h46l-144 -491h-48l-77 225l-56 163h-1l-57 -170l-74 -218h-48l-147 491h47q14 -45 27 -91t26 -91l72 -246h1q23 67 45.5 134t45.5 135q11 29 20 57.5t19 57.5h48zM347 563l-99 147l48 19l79 -154z" />
    <glyph glyph-name="Wacute" unicode="&#x1e82;" horiz-adv-x="838" 
d="M538 315l66 -250h2l64 251l97 373h51q-47 -174 -92.5 -344.5t-91.5 -344.5h-59l-96 362l-64 245l-88 -333l-74 -274h-58l-185 689h52l96 -372q16 -63 32 -126.5t33 -126.5h1l67 254l98 371h51zM385 751l136 108l35 -37l-151 -93z" />
    <glyph glyph-name="wacute" unicode="&#x1e83;" horiz-adv-x="671" 
d="M425 256l65 -193h1q18 60 36 120.5t35 121.5l53 186h46l-144 -491h-48l-77 225l-56 163h-1l-57 -170l-74 -218h-48l-147 491h47q14 -45 27 -91t26 -91l72 -246h1q23 67 45.5 134t45.5 135q11 29 20 57.5t19 57.5h48zM331 575l78 154l49 -19l-100 -147z" />
    <glyph glyph-name="Wdieresis" unicode="&#x1e84;" horiz-adv-x="838" 
d="M538 315l66 -250h2l64 251l97 373h51q-47 -174 -92.5 -344.5t-91.5 -344.5h-59l-96 362l-64 245l-88 -333l-74 -274h-58l-185 689h52l96 -372q16 -63 32 -126.5t33 -126.5h1l67 254l98 371h51zM530 785q0 -14 -9 -23t-23 -9q-13 0 -22.5 9t-9.5 23q0 13 9.5 22.5
t22.5 9.5q14 0 23 -9.5t9 -22.5zM362 785q0 -14 -9.5 -23t-23.5 -9q-12 0 -21.5 9t-9.5 23q0 13 9.5 22.5t21.5 9.5q14 0 23.5 -9.5t9.5 -22.5z" />
    <glyph glyph-name="wdieresis" unicode="&#x1e85;" horiz-adv-x="671" 
d="M425 256l65 -193h1q18 60 36 120.5t35 121.5l53 186h46l-144 -491h-48l-77 225l-56 163h-1l-57 -170l-74 -218h-48l-147 491h47q14 -45 27 -91t26 -91l72 -246h1q23 67 45.5 134t45.5 135q11 29 20 57.5t19 57.5h48zM464 653q0 -13 -9 -22.5t-23 -9.5q-13 0 -22.5 9.5
t-9.5 22.5q0 14 9.5 23t22.5 9q14 0 23 -9t9 -23zM296 653q0 -13 -9.5 -22.5t-23.5 -9.5q-12 0 -21.5 9.5t-9.5 22.5q0 14 9.5 23t21.5 9q14 0 23.5 -9t9.5 -23z" />
    <glyph glyph-name="Ygrave" unicode="&#x1ef2;" horiz-adv-x="490" 
d="M269 0h-48v259q-52 109 -104 215t-105 215h53l78 -162l75 -160q8 -14 14.5 -27l13.5 -27l101 216l77 160h51q-51 -108 -102.5 -214.5t-103.5 -213.5v-261zM274 729l-151 93l35 37l136 -108z" />
    <glyph glyph-name="ygrave" unicode="&#x1ef3;" horiz-adv-x="428" 
d="M116 -198l72 200l-28 29l-153 459h47q20 -57 38 -114t38 -115l75 -222h1l81 222q21 58 42 115t41 114h47q-63 -174 -126.5 -344.5t-126.5 -343.5h-48zM214 563l-99 147l48 19l79 -154z" />
    <glyph glyph-name="endash" unicode="&#x2013;" horiz-adv-x="493" 
d="M20 243v43h453v-43h-453z" />
    <glyph glyph-name="emdash" unicode="&#x2014;" horiz-adv-x="993" 
d="M20 243v43h953v-43h-953z" />
    <glyph glyph-name="afii00208" unicode="&#x2015;" horiz-adv-x="993" 
d="M20 243v43h953v-43h-953z" />
    <glyph glyph-name="quoteleft" unicode="&#x2018;" horiz-adv-x="222" 
d="M159 690q-40 -29 -41 -72h4q17 0 27 -10t10 -27t-12 -27.5t-29 -10.5q-21 0 -33.5 15.5t-12.5 40.5q0 34 21 65t50 46z" />
    <glyph glyph-name="quoteright" unicode="&#x2019;" horiz-adv-x="222" 
d="M76 673q0 17 11.5 27.5t28.5 10.5q22 0 34 -15.5t12 -40.5q0 -34 -21 -65t-50 -46l-15 20q38 29 40 72q-17 -1 -28.5 9t-11.5 28z" />
    <glyph glyph-name="quotesinglbase" unicode="&#x201a;" horiz-adv-x="200" 
d="M60 33q0 16 12 26.5t29 10.5q21 0 33 -15.5t12 -39.5q0 -35 -20.5 -66t-49.5 -46l-16 20q39 29 41 72q-41 -2 -41 38z" />
    <glyph glyph-name="quotedblleft" unicode="&#x201c;" horiz-adv-x="334" 
d="M152 690q-39 -29 -40 -72h4q16 0 26 -10t10 -27t-11.5 -27.5t-28.5 -10.5q-22 0 -34 15.5t-12 40.5q0 34 20.5 65t50.5 46zM259 710q4 -5 7 -10t8 -10q-38 -28 -40 -72h4q16 0 26 -10t10 -27t-11.5 -27.5t-28.5 -10.5q-22 0 -34 15.5t-12 40.5q0 34 20.5 65t50.5 46z" />
    <glyph glyph-name="quotedblright" unicode="&#x201d;" horiz-adv-x="334" 
d="M192 673q0 17 11.5 27.5t28.5 10.5q22 0 34 -15.5t12 -40.5q0 -34 -21 -65t-50 -46l-15 20q38 29 40 72q-17 -1 -28.5 9t-11.5 28zM70 673q0 17 11.5 27.5t28.5 10.5q22 0 34 -15.5t12 -40.5q0 -34 -20.5 -65t-50.5 -46l-15 20q38 29 40 72q-17 -1 -28.5 9t-11.5 28z" />
    <glyph glyph-name="quotedblbase" unicode="&#x201e;" horiz-adv-x="341" 
d="M62 33q0 16 12 26.5t29 10.5q21 0 33 -15.5t12 -39.5q0 -35 -20.5 -66t-49.5 -46l-16 20q39 29 41 72q-41 -2 -41 38zM200 33q0 16 12 26.5t29 10.5q22 0 34 -15.5t12 -39.5q0 -35 -21 -66t-50 -46l-15 20q38 29 40 72q-19 -1 -30 8.5t-11 29.5z" />
    <glyph glyph-name="dagger" unicode="&#x2020;" horiz-adv-x="447" 
d="M246 411v-605h-46v605h-177v41h177v244h46v-244h178v-41h-178z" />
    <glyph glyph-name="daggerdbl" unicode="&#x2021;" horiz-adv-x="447" 
d="M200 411h-177v41h177v244h46v-244h178v-41h-178v-255h178v-41h-178v-309h-46v309h-177v41h177v255z" />
    <glyph glyph-name="bullet" unicode="&#x2022;" horiz-adv-x="354" 
d="M271 275q0 -19 -7 -36t-19.5 -29.5t-29 -19.5t-35.5 -7t-36 7.5t-29.5 20t-19.5 29t-7 35.5t7 36t19.5 30t29.5 20t36 7t35.5 -7t29 -20t19.5 -30t7 -36z" />
    <glyph glyph-name="trianglebullet" unicode="&#x2023;" horiz-adv-x="399" 
d="M367 277l-286 -157v303z" />
    <glyph glyph-name="ellipsis" unicode="&#x2026;" horiz-adv-x="641" 
d="M58 36q0 14 10.5 25.5t28.5 11.5q17 0 29 -11.5t12 -25.5q0 -17 -11.5 -29t-28.5 -12q-19 0 -29.5 11.5t-10.5 29.5zM281 36q0 14 11 25.5t29 11.5q17 0 29 -11.5t12 -25.5q0 -17 -11.5 -29t-28.5 -12q-19 0 -30 11.5t-11 29.5zM508 36q0 14 11 25.5t29 11.5
q17 0 29 -11.5t12 -25.5q0 -17 -11 -29t-29 -12t-29.5 11.5t-11.5 29.5z" />
    <glyph glyph-name="perthousand" unicode="&#x2030;" horiz-adv-x="1076" 
d="M310 385q0 -24 -10 -44t-27.5 -35t-42 -23t-53.5 -8q-59 0 -96 31t-37 79v199q0 24 10.5 44t28.5 34.5t42 23t52 8.5q29 0 53.5 -8.5t42 -23t27.5 -34.5t10 -44v-199zM271 577q0 22 -9 37.5t-23 25t-30.5 13.5t-31.5 4t-31 -4t-30 -13.5t-23 -25t-9 -37.5v-186
q0 -22 9 -37.5t23 -25t30 -13.5t31 -4t31.5 4t30.5 13.5t23 25t9 37.5v186zM715 106q0 -24 -10 -44t-27.5 -35t-42 -23t-53.5 -8q-59 0 -96 31.5t-37 79.5v199q0 23 10.5 43t28.5 35t42 23.5t52 8.5q29 0 53.5 -8.5t42 -23.5t27.5 -35t10 -43v-200zM676 298q0 22 -9 37.5
t-23 25.5t-30.5 14t-31.5 4t-31 -4t-30 -14t-23 -25.5t-9 -37.5v-186q0 -22 9 -37.5t23 -25t30 -13.5t31 -4t31.5 4t30.5 13.5t23 25t9 37.5v186zM186 -17h-39l424 731h40zM1031 106q0 -24 -10 -44t-27.5 -35t-42 -23t-53.5 -8q-59 0 -96 31.5t-37 79.5v199q0 23 10.5 43
t28.5 35t42 23.5t52 8.5q29 0 53.5 -8.5t42 -23.5t27.5 -35t10 -43v-200zM992 298q0 22 -9 37.5t-23 25.5t-30.5 14t-31.5 4t-31 -4t-30 -14t-23 -25.5t-9 -37.5v-186q0 -22 9 -37.5t23 -25t30 -13.5t31 -4t31.5 4t30.5 13.5t23 25t9 37.5v186z" />
    <glyph glyph-name="guilsinglleft" unicode="&#x2039;" horiz-adv-x="276" 
d="M180 46l-117 173l118 172h44l-114 -172l114 -173h-45z" />
    <glyph glyph-name="guilsinglright" unicode="&#x203a;" horiz-adv-x="276" 
d="M63 46l114 173l-114 172h44l118 -172l-117 -173h-45z" />
    <glyph glyph-name="fraction" unicode="&#x2044;" horiz-adv-x="150" 
d="M-118 -17h-39l424 731h40z" />
    <glyph glyph-name="fraction" unicode="&#x2215;" horiz-adv-x="150" 
d="M-118 -17h-39l424 731h40z" />
    <glyph glyph-name="zerosuperior" unicode="&#x2070;" horiz-adv-x="308" 
d="M287 475q0 -24 -10 -44t-27.5 -35t-42 -23t-53.5 -8q-59 0 -96 31t-37 79v199q0 24 10.5 44t28.5 34.5t42 23t52 8.5q29 0 53.5 -8.5t42 -23t27.5 -34.5t10 -44v-199zM248 667q0 22 -9 37.5t-23 25t-30.5 13.5t-31.5 4t-31 -4t-30 -13.5t-23 -25t-9 -37.5v-186
q0 -22 9 -37.5t23 -25t30 -13.5t31 -4t31.5 4t30.5 13.5t23 25t9 37.5v186z" />
    <glyph glyph-name="foursuperior" unicode="&#x2074;" horiz-adv-x="308" 
d="M249 434v-65h-36v65h-199v31l154 315h42l-152 -311h155v126h36v-126h44v-35h-44z" />
    <glyph glyph-name="fivesuperior" unicode="&#x2075;" horiz-adv-x="308" 
d="M282 472q0 -47 -37.5 -77t-99.5 -30q-41 0 -70.5 13.5t-49.5 30.5l24 27q45 -36 96 -36q14 0 31 3.5t31.5 12t24.5 23.5t10 38v58q0 35 -17.5 52.5t-48.5 17.5q-25 0 -57 -12t-57 -27l-33 15v199h241v-36h-201v-137q27 17 56.5 26t51.5 9q50 0 77.5 -27.5t27.5 -75.5v-67
v0z" />
    <glyph glyph-name="sixsuperior" unicode="&#x2076;" horiz-adv-x="308" 
d="M24 676q0 24 10.5 44t28.5 34t42 22t51 8q41 0 69.5 -12.5t48.5 -29.5l-25 -29q-19 16 -41 25.5t-51 9.5q-14 0 -30 -4.5t-30 -14t-23 -25.5t-9 -39v-82q37 21 66.5 31t48.5 10q51 0 77.5 -27.5t26.5 -74.5v-47q0 -24 -10.5 -44.5t-28.5 -35t-41.5 -22.5t-50.5 -8
q-26 0 -49.5 7.5t-41 22t-28 34.5t-10.5 44v203zM245 517q0 36 -19 53t-48 17q-26 0 -55 -13t-58 -28v-65q0 -22 8.5 -37t21.5 -24.5t28.5 -14t29.5 -4.5t30.5 4.5t30 14t22.5 24.5t9 37v36z" />
    <glyph glyph-name="sevensuperior" unicode="&#x2077;" horiz-adv-x="302" 
d="M69 368l167 376h-175v-63h-40v99h260v-33l-168 -379h-44z" />
    <glyph glyph-name="eightsuperior" unicode="&#x2078;" horiz-adv-x="308" 
d="M153 783q25 0 48.5 -7t41.5 -21.5t29 -35.5t11 -48q0 -26 -17.5 -52.5t-50.5 -38.5q19 -6 32.5 -17t22.5 -24.5t13 -28t4 -26.5q0 -29 -11 -51.5t-29.5 -37.5t-42.5 -22.5t-50 -7.5q-25 0 -49 7.5t-42.5 22t-30 36t-11.5 50.5q0 26 17 54.5t55 43.5q-33 11 -50.5 37.5
t-17.5 53.5t10.5 48.5t28.5 35.5t41 21.5t48 7.5zM154 561q-38 0 -66 -22t-28 -59q0 -36 26.5 -58t67.5 -22t67 21.5t26 59.5q0 36 -26.5 58t-66.5 22zM154 747q-17 0 -33 -4.5t-28.5 -14t-20.5 -24t-8 -33.5q0 -17 7.5 -31t20 -24t28.5 -15.5t34 -5.5q16 0 32 5.5t29 15.5
t20.5 24t7.5 31q0 19 -8 33.5t-20.5 24t-28.5 14t-32 4.5z" />
    <glyph glyph-name="ninesuperior" unicode="&#x2079;" horiz-adv-x="308" 
d="M149 784q26 0 49.5 -7.5t41 -22t28 -34t10.5 -43.5v-203q0 -24 -10.5 -44.5t-29 -34.5t-42.5 -22t-51 -8q-37 0 -66.5 12t-48.5 29l24 29q18 -15 40.5 -24.5t50.5 -9.5q16 0 32.5 4t30 14t22 25.5t8.5 38.5v83q-38 -21 -67 -31t-49 -10q-50 0 -77 28t-27 76v46
q0 24 10.5 44t28.5 34.5t41.5 22.5t50.5 8zM58 633q0 -36 18 -53.5t47 -17.5q24 0 50.5 11t52.5 24l12 6v66q0 4 -1 6q-1 20 -10 34t-21.5 22.5t-27.5 12.5t-29 4q-3 0 -5 -1q-14 0 -29 -4.5t-28 -14t-21 -24t-8 -35.5v-36z" />
    <glyph glyph-name="plussuperior" unicode="&#x207a;" horiz-adv-x="304" 
d="M167 523v-114h-32v114h-121v30h121v112h32v-112h121v-30h-121z" />
    <glyph glyph-name="hyphensuperior" unicode="&#x207b;" horiz-adv-x="240" 
d="M31 513v34h178v-34h-178z" />
    <glyph glyph-name="equalsuperior" unicode="&#x207c;" horiz-adv-x="304" 
d="M14 465v32h274v-32h-274zM14 567v32h274v-32h-274z" />
    <glyph glyph-name="parenleftsuperior" unicode="&#x207d;" horiz-adv-x="174" 
d="M147 297q-23 24 -42.5 53t-34.5 61.5t-23.5 66.5t-8.5 69q0 69 29.5 135.5t76.5 116.5l23 -14q-40 -52 -63 -113t-23 -121q0 -18 3 -34q5 -55 27.5 -108t55.5 -97z" />
    <glyph glyph-name="parenrightsuperior" unicode="&#x207e;" horiz-adv-x="173" 
d="M144 546q0 -34 -8.5 -68.5t-23.5 -67t-35 -61.5t-42 -53q-5 5 -10 8t-10 7q38 51 62 113t24 125q0 60 -23.5 122t-62.5 114l21 13q48 -50 78 -117t30 -135z" />
    <glyph glyph-name="nsuperior" unicode="&#x207f;" horiz-adv-x="332" 
d="M194 606q51 0 79.5 -27t28.5 -84v-216h-39v208q0 45 -20 64t-55 18q-23 0 -54.5 -13t-63.5 -33v-244h-40v323h34l5 -40q45 25 73 34.5t52 9.5z" />
    <glyph glyph-name="zeroinferior" unicode="&#x2080;" horiz-adv-x="308" 
d="M287 16q0 -24 -10 -44t-27.5 -35t-42 -23t-53.5 -8q-59 0 -96 31.5t-37 79.5v199q0 23 10.5 43t28.5 35t42 23.5t52 8.5q29 0 53.5 -8.5t42 -23.5t27.5 -35t10 -43v-200zM248 208q0 22 -9 37.5t-23 25.5t-30.5 14t-31.5 4t-31 -4t-30 -14t-23 -25.5t-9 -37.5v-186
q0 -22 9 -37.5t23 -25t30 -13.5t31 -4t31.5 4t30.5 13.5t23 25t9 37.5v186z" />
    <glyph glyph-name="oneinferior" unicode="&#x2081;" horiz-adv-x="258" 
d="M132 -90v363l-70 -50l-23 30l96 69h36v-412h-39z" />
    <glyph glyph-name="twoinferior" unicode="&#x2082;" horiz-adv-x="308" 
d="M286 220q0 -38 -28.5 -70.5t-69.5 -57.5q-19 -11 -41 -24.5t-40.5 -31t-31 -37.5t-12.5 -43v-11h223v-35h-265v40q0 29 11.5 52.5t30.5 43.5t43 36.5t49 31.5q17 10 33.5 21.5t29 24.5t20 27.5t7.5 30.5q0 19 -8 32.5t-21.5 22t-31 12.5t-35.5 4q-30 0 -56 -9.5
t-45 -23.5l-20 30q22 16 53.5 27.5t66.5 11.5q26 0 51 -5.5t44.5 -18t31 -32.5t11.5 -49z" />
    <glyph glyph-name="threeinferior" unicode="&#x2083;" horiz-adv-x="308" 
d="M141 324q23 0 45.5 -6t40.5 -19t29 -33t11 -48t-16 -55.5t-51 -38.5q40 -13 55 -41t15 -57q0 -28 -11 -50.5t-30 -38t-44.5 -23.5t-53.5 -8q-40 0 -70.5 12t-51.5 29l23 28q18 -16 44 -25t54 -9q42 0 71 22t29 61t-23.5 59.5t-55.5 20.5h-53v35h53q11 0 24 4.5t24.5 14.5
t19 24.5t7.5 35.5q0 19 -8.5 32.5t-21.5 22t-28.5 12.5t-30.5 4q-26 0 -51.5 -9t-45.5 -23l-21 28q26 19 56.5 29t65.5 10z" />
    <glyph glyph-name="fourinferior" unicode="&#x2084;" horiz-adv-x="308" 
d="M250 -25v-65h-37v65h-199v31q12 26 33 69t44 89t44 88.5t33 68.5h42l-152 -311h155v127h37v-127h43v-35h-43z" />
    <glyph glyph-name="fiveinferior" unicode="&#x2085;" horiz-adv-x="308" 
d="M282 13q0 -47 -37.5 -77t-99.5 -30q-41 0 -70.5 14t-49.5 30l24 28q43 -36 96 -36q14 0 31 3t31.5 11.5t24.5 23.5t10 38v58q0 35 -17.5 52.5t-48.5 17.5q-25 0 -57 -12t-57 -26q-2 0 -6.5 2.5t-10 4.5t-10.5 4.5t-6 2.5v200h241v-37h-201v-137q27 17 56.5 26.5t51.5 9.5
q50 0 77.5 -28t27.5 -75v-68v0z" />
    <glyph glyph-name="sixinferior" unicode="&#x2086;" horiz-adv-x="308" 
d="M24 217q0 24 10.5 44t28.5 34.5t42 22.5t51 8q41 0 70 -13t49 -30l-26 -29q-19 17 -41 26.5t-51 9.5q-14 0 -30 -4.5t-30 -14t-23 -25.5t-9 -39v-82q37 20 66.5 30.5t48.5 10.5q51 0 77.5 -28t26.5 -75v-47q0 -24 -10.5 -44.5t-28.5 -34.5t-41.5 -22t-50.5 -8
q-26 0 -49.5 7.5t-41 22t-28 34t-10.5 43.5v203zM245 59q0 35 -19 52.5t-48 17.5q-26 0 -55 -13.5t-58 -28.5v-65q0 -22 8.5 -37t21.5 -24.5t28.5 -14t29.5 -4.5t30.5 4.5t30 14t22.5 25t9 36.5v37z" />
    <glyph glyph-name="seveninferior" unicode="&#x2087;" horiz-adv-x="302" 
d="M69 -90q42 94 83.5 187.5t83.5 187.5h-175v-63h-40v99h260v-32l-168 -379h-44z" />
    <glyph glyph-name="eightinferior" unicode="&#x2088;" horiz-adv-x="308" 
d="M153 324q25 0 48.5 -7t41.5 -21t29 -35t11 -48t-17.5 -53.5t-50.5 -38.5q19 -6 32.5 -17t22.5 -24.5t13 -28t4 -26.5q0 -29 -11 -51t-29.5 -37t-42.5 -23t-50 -8q-25 0 -49 7.5t-42.5 22t-30 36t-11.5 50.5q0 26 17 54.5t55 43.5q-33 11 -50.5 37.5t-17.5 53.5t10.5 48.5
t28.5 35.5t41 21.5t48 7.5zM154 103q-38 0 -66 -22.5t-28 -59.5q0 -36 26.5 -57.5t67.5 -21.5t67 21t26 59q0 36 -26.5 58.5t-66.5 22.5zM154 288q-17 0 -33 -4.5t-28.5 -14t-20.5 -24t-8 -33.5q0 -17 7.5 -31t20 -23.5t28.5 -15t34 -5.5q16 0 32 5.5t29 15t20.5 23.5
t7.5 32q0 19 -8 33t-20.5 23.5t-28.5 14t-32 4.5z" />
    <glyph glyph-name="nineinferior" unicode="&#x2089;" horiz-adv-x="308" 
d="M149 325q26 0 49.5 -7.5t41 -22t28 -34t10.5 -43.5v-203q0 -24 -10.5 -44t-29 -34.5t-42.5 -22t-51 -7.5q-37 0 -66.5 12t-48.5 29l24 28q18 -14 40.5 -23.5t50.5 -9.5q16 0 32.5 4t30 13.5t22 25t8.5 38.5v83q-38 -21 -67 -31t-49 -10q-50 0 -77 28t-27 76v46
q0 24 10.5 44t28.5 34.5t41.5 22.5t50.5 8zM58 174q0 -36 18 -53.5t47 -17.5q24 0 50.5 11t52.5 24l12 6v66q0 22 -8.5 37t-21.5 24.5t-28.5 13.5t-30.5 4q-14 0 -30 -4t-29.5 -13.5t-22.5 -24.5t-9 -37v-36z" />
    <glyph glyph-name="plusinferior" unicode="&#x208a;" horiz-adv-x="304" 
d="M167 63v-114h-32v114h-121v30h121v112h32v-112h121v-30h-121z" />
    <glyph glyph-name="hypheninferior" unicode="&#x208b;" horiz-adv-x="240" 
d="M31 53v34h178v-34h-178z" />
    <glyph glyph-name="equalinferior" unicode="&#x208c;" horiz-adv-x="304" 
d="M14 5v32h274v-32h-274zM14 107v32h274v-32h-274z" />
    <glyph glyph-name="parenleftinferior" unicode="&#x208d;" horiz-adv-x="174" 
d="M147 -132q-23 24 -42.5 53t-34.5 61.5t-23.5 66.5t-8.5 69q0 69 29.5 135.5t76.5 116.5l23 -14q-40 -52 -63 -113t-23 -121q0 -18 3 -34q5 -55 27.5 -108t55.5 -97z" />
    <glyph glyph-name="parenrightinferior" unicode="&#x208e;" horiz-adv-x="173" 
d="M144 117q0 -34 -8.5 -68.5t-23.5 -67t-35 -61.5t-42 -53q-5 5 -10 8t-10 7q38 51 62 113t24 125q0 60 -23.5 122t-62.5 114l21 13q48 -50 78 -117t30 -135z" />
    <glyph glyph-name="dong" unicode="&#x20ab;" horiz-adv-x="473" 
d="M221 612h111v84h42v-84h44v-34h-44v-462h-35l-6 48q-57 -34 -93 -44t-58 -10q-59 0 -93 33t-34 100v128q0 65 38 100t103 35q23 0 56.5 -5.5t79.5 -26.5v104h-111v34zM332 430q-42 20 -75.5 29t-58.5 9q-102 0 -102 -105v-112q0 -55 23 -78.5t65 -23.5q26 0 67.5 16
t80.5 42v223zM68 38h323v-38h-323v38z" />
    <glyph glyph-name="Euro" unicode="&#x20ac;" horiz-adv-x="473" 
d="M16 382v36h54v49q0 50 17 92t48.5 72.5t76 47.5t99.5 17q45 0 83 -8.5t73 -28.5l-22 -40q-30 16 -64.5 24.5t-69.5 8.5q-38 0 -72.5 -11t-61.5 -34.5t-43 -60t-16 -87.5v-41h293v-36h-395zM411 317v-35h-293v-50q0 -51 16.5 -87.5t43 -60.5t61 -35.5t70.5 -11.5
q37 0 71.5 8.5t64.5 25.5l21 -38q-28 -17 -66.5 -28.5t-88.5 -11.5q-57 0 -102 17.5t-76 48.5t-47 73.5t-16 93.5v56h-54v35h395z" />
    <glyph glyph-name="centigrade" unicode="&#x2103;" horiz-adv-x="789" 
d="M580 696q52 0 95.5 -12t82.5 -39l-26 -39q-32 23 -71 34.5t-81 11.5q-36 0 -71 -11t-62.5 -34.5t-44 -60t-16.5 -87.5v-227q0 -51 17 -88t44 -61t61 -35.5t69 -11.5q88 0 157 49l25 -37q-27 -20 -73 -37.5t-106 -17.5q-55 0 -100 17t-76.5 48t-48.5 73t-17 93v244
q0 50 17.5 92t49.5 72t76.5 47t98.5 17zM273 577q0 -26 -9.5 -48t-26 -38.5t-39 -26t-48.5 -9.5t-48.5 9.5t-39 26t-26 38.5t-9.5 48q0 25 10 47.5t26.5 39t39 26t47.5 9.5q26 0 48.5 -9.5t39 -26t26 -39t9.5 -47.5zM238 577q0 38 -25.5 64t-62.5 26q-38 0 -63 -26t-25 -64
q0 -37 25 -63t63 -26q37 0 62.5 25t25.5 64z" />
    <glyph glyph-name="afii61248" unicode="&#x2105;" horiz-adv-x="671" 
d="M504 -4q-61 0 -99 34t-38 92v105q0 28 11 51t30 39t44 25t53 9q29 0 54.5 -9t44 -25t29 -39t10.5 -51v-105q0 -59 -38 -92.5t-101 -33.5zM605 217q0 27 -9 45.5t-23 30t-31.5 17t-35.5 5.5t-36 -5.5t-32.5 -17t-23 -30t-8.5 -45.5v-87q0 -27 8 -46t22 -30.5t32 -17
t38 -5.5t38 5.5t31.5 17.5t21.5 31t8 45v87zM110 -17q107 183 212.5 365t211.5 365h40l-425 -730h-39zM170 335q-63 0 -99.5 36t-36.5 92v102q0 57 38 91.5t98 34.5q26 0 55 -8t53 -28l-24 -31q-21 18 -43 24.5t-38 6.5q-19 0 -37 -5.5t-32 -17t-22.5 -30t-8.5 -45.5v-87
q0 -26 8.5 -44.5t22 -30.5t31.5 -17.5t36 -5.5q16 0 40.5 6.5t41.5 20.5q7 -8 12.5 -15t11.5 -15q-23 -17 -51.5 -25.5t-55.5 -8.5z" />
    <glyph glyph-name="fahrenheit" unicode="&#x2109;" horiz-adv-x="779" 
d="M368 645v-274h340v-44h-340v-327h-48v689h444v-44h-396zM270 577q0 -26 -9.5 -48t-26 -38.5t-39 -26t-48.5 -9.5t-48.5 9.5t-39 26t-26 38.5t-9.5 48q0 25 10 47.5t26.5 39t39 26t47.5 9.5q26 0 48.5 -9.5t39 -26t26 -39t9.5 -47.5zM235 577q0 38 -25.5 64t-62.5 26
q-38 0 -63 -26t-25 -64q0 -37 25 -63t63 -26q37 0 62.5 25t25.5 64z" />
    <glyph glyph-name="afii61289" unicode="&#x2113;" horiz-adv-x="504" 
d="M457 122q-29 -61 -69 -96.5t-96 -35.5q-69 0 -112.5 45t-43.5 123v62q-20 -14 -36 -24t-33 -19l-9 33q16 9 36 21.5t43 31.5v236q0 58 12.5 97.5t33 64t47 35t55.5 10.5q19 0 38.5 -7.5t35.5 -23t25.5 -39t9.5 -55.5q0 -41 -15.5 -82t-43.5 -82.5t-67.5 -84t-88.5 -86.5
v-65q0 -42 9.5 -71.5t25.5 -47.5t36.5 -26t42.5 -8q41 0 71 28.5t53 79.5zM179 294q91 85 132 154.5t41 127.5q0 18 -4 35t-12.5 30.5t-21.5 21.5t-32 8t-37.5 -9.5t-33 -29.5t-23.5 -51t-9 -75v-212z" />
    <glyph glyph-name="afii61352" unicode="&#x2116;" horiz-adv-x="897" 
d="M257 373l-66 116t-65 117h-1v-606h-47v688h48q55 -97 110 -192t109 -191q31 -55 61.5 -110t62.5 -110h1v603h46v-688h-47zM848 489q0 -56 -37 -90t-99 -34q-61 0 -98.5 34t-37.5 88v91q0 27 10.5 48.5t29.5 37.5t43.5 24.5t53.5 8.5q59 0 97 -32.5t38 -86.5v-89zM810 568
q0 25 -8.5 43t-22.5 29t-31.5 16.5t-34.5 5.5q-18 0 -35.5 -5.5t-31.5 -16.5t-22.5 -29t-8.5 -43v-73q0 -25 8 -42.5t21.5 -29t31.5 -17t37 -5.5q39 0 68 23t29 71v73zM582 301h258v-37h-258v37z" />
    <glyph glyph-name="published" unicode="&#x2117;" horiz-adv-x="780" 
d="M568 415q0 -22 -7.5 -44t-23.5 -40t-40.5 -29t-57.5 -11h-122v-181h-39v431h155q27 0 51 -7t43 -22t30 -39t11 -58zM529 416q0 46 -28 67.5t-68 21.5h-116v-178h119q25 0 42.5 7.5t28.5 20.5t16.5 28.5t5.5 32.5zM393 -10q-73 0 -135.5 26.5t-108 74t-71.5 111.5t-26 139
t26 139.5t72 112t108.5 74t134.5 26.5q73 0 135.5 -26.5t108.5 -74t72.5 -112t26.5 -139.5t-26.5 -139t-72.5 -111.5t-108.5 -74t-135.5 -26.5zM393 658q-64 0 -119.5 -24.5t-96 -67t-64 -100.5t-23.5 -125q0 -66 23.5 -124t64 -101t96 -67.5t119.5 -24.5q65 0 121 24.5
t97 67.5t64.5 101t23.5 124q0 67 -23.5 125t-64.5 100.5t-97 67t-121 24.5z" />
    <glyph glyph-name="trademark" unicode="&#x2122;" horiz-adv-x="808" 
d="M708 296v334l-135 -285h-23l-137 285v-334h-34v399h39l144 -303l143 303h37v-399h-34zM199 661v-365h-35v365h-127v35h288v-35h-126z" />
    <glyph glyph-name="Ohm" unicode="&#x2126;" horiz-adv-x="587" 
d="M360 0v51q28 7 52 23t42 39.5t28 54.5t10 70v221q0 49 -16.5 85.5t-44 60.5t-63.5 35.5t-74 11.5q-40 0 -76 -11.5t-63 -35.5t-42.5 -60.5t-15.5 -85.5v-221q0 -39 11.5 -70t30.5 -54t43 -38.5t49 -23.5v-52h-196v44h119q-50 28 -77.5 77t-27.5 112v236q0 50 17.5 91.5
t50 71.5t77.5 47t100 17q54 0 99 -17t78 -47t51 -72t18 -91v-238q0 -63 -27 -112.5t-77 -74.5h121v-44h-197z" />
    <glyph glyph-name="angstrom" unicode="&#x212b;" horiz-adv-x="568" 
d="M501 0q-14 42 -29 83t-30 83h-315q-14 -42 -28 -83t-28 -83h-51l238 689h54l240 -689h-51zM284 630q-4 -12 -14.5 -44.5t-25 -75t-30.5 -90.5t-30.5 -90.5t-25.5 -75t-15 -44.5h284q-4 12 -14.5 44.5t-25 75t-31 90.5t-31 91t-25.5 75t-15 44h-1zM376 799q0 -19 -7 -35.5
t-19.5 -29t-29.5 -19.5t-36 -7q-38 0 -65 26.5t-27 64.5q0 19 7.5 35.5t20 29t29 19.5t35.5 7t36 -7t29.5 -19.5t19.5 -29t7 -35.5zM347 799q0 26 -18 44.5t-45 18.5q-26 0 -44.5 -18.5t-18.5 -44.5t18.5 -44.5t44.5 -18.5q27 0 45 18.5t18 44.5z" />
    <glyph glyph-name="estimated" unicode="&#x212e;" horiz-adv-x="817" 
d="M192 319v-195q16 -29 41.5 -50.5t55.5 -36t63.5 -22t66.5 -7.5q66 0 126 29t104 78h46q-49 -60 -122 -93t-154 -33q-72 0 -136 26.5t-112 72t-75.5 107t-27.5 130.5t27.5 130t75.5 107t112 72.5t136 26.5q75 0 138 -25.5t109.5 -70.5t73.5 -108t30 -138h-578zM647 526
q-17 27 -42 49t-55.5 37t-63.5 23.5t-66 8.5q-60 0 -120 -32t-108 -87v-186h455v187z" />
    <glyph glyph-name="onethird" unicode="&#x2153;" horiz-adv-x="760" 
d="M565 414q23 0 45.5 -6t40.5 -19t29 -33t11 -48t-16 -55.5t-51 -38.5q40 -13 55 -41t15 -57q0 -28 -11 -50.5t-30 -38t-44.5 -23.5t-53.5 -8q-40 0 -70.5 12t-51.5 29l23 28q18 -16 44 -25t54 -9q42 0 71 22t29 61t-23.5 59.5t-55.5 20.5h-53v35h53q11 0 24 4.5t24.5 14.5
t19 24.5t7.5 35.5q0 19 -8.5 32.5t-21.5 22t-28.5 12.5t-30.5 4q-26 0 -51.5 -9t-45.5 -23l-21 28q26 19 56.5 29t65.5 10zM143 -17h-39l424 731h40zM159 279v363l-70 -50l-23 30l96 68h36v-411h-39z" />
    <glyph glyph-name="twothirds" unicode="&#x2154;" horiz-adv-x="760" 
d="M287 589q0 -38 -28.5 -70.5t-69.5 -57.5q-19 -11 -41 -25t-40.5 -31t-31 -37.5t-12.5 -43.5v-10h223v-35h-265v40q0 29 11.5 52.5t30.5 43.5t43 36.5t49 31.5q17 10 33.5 21.5t29 24.5t20 27.5t7.5 30.5q0 19 -8 32.5t-21.5 22t-31 12.5t-35.5 4q-30 0 -56 -9.5
t-45 -23.5l-20 30q22 16 53.5 27.5t66.5 11.5q26 0 51 -5.5t44.5 -18t31 -32.5t11.5 -49zM609 414q23 0 45.5 -6t40.5 -19t29 -33t11 -48t-16 -55.5t-51 -38.5q40 -13 55 -41t15 -57q0 -28 -11 -50.5t-30 -38t-44.5 -23.5t-53.5 -8q-40 0 -70.5 12t-51.5 29l23 28
q18 -16 44 -25t54 -9q42 0 71 22t29 61t-23.5 59.5t-55.5 20.5h-53v35h53q11 0 24 4.5t24.5 14.5t19 24.5t7.5 35.5q0 19 -8.5 32.5t-21.5 22t-28.5 12.5t-30.5 4q-26 0 -51.5 -9t-45.5 -23l-21 28q26 19 56.5 29t65.5 10zM198 -17h-39l424 731h40z" />
    <glyph glyph-name="onefifth" unicode="&#x2155;" horiz-adv-x="760" 
d="M140 -17h-39l424 731h40zM160 279v363l-70 -50l-23 30l96 68h36v-411h-39zM693 103q0 -47 -37.5 -77t-99.5 -30q-41 0 -70.5 14t-49.5 30l24 28q43 -36 96 -36q14 0 31 3t31.5 11.5t24.5 23.5t10 38v58q0 35 -17.5 52.5t-48.5 17.5q-25 0 -57 -12t-57 -26q-2 0 -6.5 2.5
t-10 4.5t-10.5 4.5t-6 2.5v200h241v-37h-201v-137q27 17 56.5 26.5t51.5 9.5q50 0 77.5 -28t27.5 -75v-68z" />
    <glyph glyph-name="twofifths" unicode="&#x2156;" horiz-adv-x="760" 
d="M191 -17h-39l424 731h40zM286 589q0 -38 -28.5 -70.5t-69.5 -57.5q-19 -11 -41 -25t-40.5 -31t-31 -37.5t-12.5 -43.5v-10h223v-35h-265v40q0 29 11.5 52.5t30.5 43.5t43 36.5t49 31.5q17 10 33.5 21.5t29 24.5t20 27.5t7.5 30.5q0 19 -8 32.5t-21.5 22t-31 12.5t-35.5 4
q-30 0 -56 -9.5t-45 -23.5l-20 30q22 16 53.5 27.5t66.5 11.5q26 0 51 -5.5t44.5 -18t31 -32.5t11.5 -49zM738 103q0 -47 -37.5 -77t-99.5 -30q-41 0 -70.5 14t-49.5 30l24 28q43 -36 96 -36q14 0 31 3t31.5 11.5t24.5 23.5t10 38v58q0 35 -17.5 52.5t-48.5 17.5
q-25 0 -57 -12t-57 -26q-2 0 -6.5 2.5t-10 4.5t-10.5 4.5t-6 2.5v200h241v-37h-201v-137q27 17 56.5 26.5t51.5 9.5q50 0 77.5 -28t27.5 -75v-68z" />
    <glyph glyph-name="threefifths" unicode="&#x2157;" horiz-adv-x="760" 
d="M731 103q0 -47 -37.5 -77t-99.5 -30q-41 0 -70.5 14t-49.5 30l24 28q43 -36 96 -36q14 0 31 3t31.5 11.5t24.5 23.5t10 38v58q0 35 -17.5 52.5t-48.5 17.5q-25 0 -57 -12t-57 -26q-2 0 -6.5 2.5t-10 4.5t-10.5 4.5t-6 2.5v200h241v-37h-201v-137q27 17 56.5 26.5
t51.5 9.5q50 0 77.5 -28t27.5 -75v-68zM160 693q23 0 45.5 -6t40.5 -19t29 -33t11 -48q0 -29 -16 -56t-51 -39q40 -12 55 -40t15 -57q0 -28 -11 -50.5t-30 -38t-44.5 -24t-53.5 -8.5q-40 0 -70.5 12t-51.5 29q1 1 4 5.5t7 9t7.5 8.5t4.5 6q18 -17 44 -25.5t54 -8.5
q42 0 71 22t29 61t-23.5 59t-55.5 20h-53v36h53q11 0 24 4.5t24.5 14.5t19.5 24.5t8 35.5q0 19 -8.5 32.5t-22 22t-29 12.5t-30.5 4q-26 0 -52 -9t-46 -24l-21 29q27 18 57.5 28.5t65.5 10.5zM177 -17h-39l424 731h40z" />
    <glyph glyph-name="fourfifths" unicode="&#x2158;" horiz-adv-x="760" 
d="M741 103q0 -47 -37.5 -77t-99.5 -30q-41 0 -70.5 14t-49.5 30l24 28q43 -36 96 -36q14 0 31 3t31.5 11.5t24.5 23.5t10 38v58q0 35 -17.5 52.5t-48.5 17.5q-25 0 -57 -12t-57 -26q-2 0 -6.5 2.5t-10 4.5t-10.5 4.5t-6 2.5v200h241v-37h-201v-137q27 17 56.5 26.5
t51.5 9.5q50 0 77.5 -28t27.5 -75v-68zM253 344v-65h-36v65h-199v31l154 315h42l-152 -311h155v126h36v-126h44v-35h-44zM188 -17h-39l424 731h40z" />
    <glyph glyph-name="onesixth" unicode="&#x2159;" horiz-adv-x="760" 
d="M148 -17h-39l424 731h40zM166 279v363l-70 -50l-23 30l96 68h36v-411h-39zM426 307q0 24 10.5 44t28.5 34.5t42 22.5t51 8q41 0 70 -13t49 -30l-26 -29q-19 17 -41 26.5t-51 9.5q-14 0 -30 -4.5t-30 -14t-23 -25.5t-9 -39v-82q37 20 66.5 30.5t48.5 10.5q51 0 77.5 -28
t26.5 -75v-47q0 -24 -10.5 -44.5t-28.5 -34.5t-41.5 -22t-50.5 -8q-26 0 -49.5 7.5t-41 22t-28 34t-10.5 43.5v203zM647 149q0 35 -19 52.5t-48 17.5q-26 0 -55 -13.5t-58 -28.5v-65q0 -22 8.5 -37t21.5 -24.5t28.5 -14t29.5 -4.5t30.5 4.5t30 14t22.5 25t9 36.5v37z" />
    <glyph glyph-name="fivesixths" unicode="&#x215a;" horiz-adv-x="760" 
d="M464 307q0 24 10.5 44t28.5 34.5t42 22.5t51 8q41 0 70 -13t49 -30l-26 -29q-19 17 -41 26.5t-51 9.5q-14 0 -30 -4.5t-30 -14t-23 -25.5t-9 -39v-82q37 20 66.5 30.5t48.5 10.5q51 0 77.5 -28t26.5 -75v-47q0 -24 -10.5 -44.5t-28.5 -34.5t-41.5 -22t-50.5 -8
q-26 0 -49.5 7.5t-41 22t-28 34t-10.5 43.5v203zM293 382q0 -47 -37.5 -77t-99.5 -30q-41 0 -70.5 13.5t-49.5 30.5l24 27q45 -36 96 -36q14 0 31 3.5t31.5 12t24.5 23.5t10 38v58q0 35 -17.5 52.5t-48.5 17.5q-25 0 -57 -12t-57 -27l-33 15v199h241v-36h-201v-137
q27 17 56.5 26t51.5 9q50 0 77.5 -27.5t27.5 -75.5v-67zM181 -17h-39l424 731h40zM685 149q0 35 -19 52.5t-48 17.5q-26 0 -55 -13.5t-58 -28.5v-65q0 -22 8.5 -37t21.5 -24.5t28.5 -14t29.5 -4.5t30.5 4.5t30 14t22.5 25t9 36.5v37z" />
    <glyph glyph-name="oneeighth" unicode="&#x215b;" horiz-adv-x="760" 
d="M137 -17h-39l424 731h40zM173 279v363l-70 -50l-23 30l96 68h36v-411h-39zM545 414q25 0 48.5 -7t41.5 -21t29 -35t11 -48t-17.5 -53.5t-50.5 -38.5q19 -6 32.5 -17t22.5 -24.5t13 -28t4 -26.5q0 -29 -11 -51t-29.5 -37t-42.5 -23t-50 -8q-25 0 -49 7.5t-42.5 22t-30 36
t-11.5 50.5q0 26 17 54.5t55 43.5q-33 11 -50.5 37.5t-17.5 53.5t10.5 48.5t28.5 35.5t41 21.5t48 7.5zM546 193q-38 0 -66 -22.5t-28 -59.5q0 -36 26.5 -57.5t67.5 -21.5t67 21t26 59q0 36 -26.5 58.5t-66.5 22.5zM546 378q-17 0 -33 -4.5t-28.5 -14t-20.5 -24t-8 -33.5
q0 -17 7.5 -31t20 -23.5t28.5 -15t34 -5.5q16 0 32 5.5t29 15t20.5 23.5t7.5 32q0 19 -8 33t-20.5 23.5t-28.5 14t-32 4.5z" />
    <glyph glyph-name="threeeighths" unicode="&#x215c;" horiz-adv-x="760" 
d="M593 414q25 0 48.5 -7t41.5 -21t29 -35t11 -48t-17.5 -53.5t-50.5 -38.5q19 -6 32.5 -17t22.5 -24.5t13 -28t4 -26.5q0 -29 -11 -51t-29.5 -37t-42.5 -23t-50 -8q-25 0 -49 7.5t-42.5 22t-30 36t-11.5 50.5q0 26 17 54.5t55 43.5q-33 11 -50.5 37.5t-17.5 53.5t10.5 48.5
t28.5 35.5t41 21.5t48 7.5zM165 693q23 0 45.5 -6t40.5 -19t29 -33t11 -48q0 -29 -16 -56t-51 -39q40 -12 55 -40t15 -57q0 -28 -11 -50.5t-30 -38t-44.5 -24t-53.5 -8.5q-40 0 -70.5 12t-51.5 29q1 1 4 5.5t7 9t7.5 8.5t4.5 6q18 -17 44 -25.5t54 -8.5q42 0 71 22t29 61
t-23.5 59t-55.5 20h-53v36h53q11 0 24 4.5t24.5 14.5t19.5 24.5t8 35.5q0 19 -8.5 32.5t-22 22t-29 12.5t-30.5 4q-26 0 -52 -9t-46 -24l-21 29q27 18 57.5 28.5t65.5 10.5zM179 -17h-39l424 731h40zM594 193q-38 0 -66 -22.5t-28 -59.5q0 -36 26.5 -57.5t67.5 -21.5t67 21
t26 59q0 36 -26.5 58.5t-66.5 22.5zM594 378q-17 0 -33 -4.5t-28.5 -14t-20.5 -24t-8 -33.5q0 -17 7.5 -31t20 -23.5t28.5 -15t34 -5.5q16 0 32 5.5t29 15t20.5 23.5t7.5 32q0 19 -8 33t-20.5 23.5t-28.5 14t-32 4.5z" />
    <glyph glyph-name="fiveeighths" unicode="&#x215d;" horiz-adv-x="760" 
d="M589 414q25 0 48.5 -7t41.5 -21t29 -35t11 -48t-17.5 -53.5t-50.5 -38.5q19 -6 32.5 -17t22.5 -24.5t13 -28t4 -26.5q0 -29 -11 -51t-29.5 -37t-42.5 -23t-50 -8q-25 0 -49 7.5t-42.5 22t-30 36t-11.5 50.5q0 26 17 54.5t55 43.5q-33 11 -50.5 37.5t-17.5 53.5t10.5 48.5
t28.5 35.5t41 21.5t48 7.5zM293 382q0 -47 -37.5 -77t-99.5 -30q-41 0 -70.5 13.5t-49.5 30.5l24 27q45 -36 96 -36q14 0 31 3.5t31.5 12t24.5 23.5t10 38v58q0 35 -17.5 52.5t-48.5 17.5q-25 0 -57 -12t-57 -27l-33 15v199h241v-36h-201v-137q27 17 56.5 26t51.5 9
q50 0 77.5 -27.5t27.5 -75.5v-67zM177 -17h-39l424 731h40zM590 193q-38 0 -66 -22.5t-28 -59.5q0 -36 26.5 -57.5t67.5 -21.5t67 21t26 59q0 36 -26.5 58.5t-66.5 22.5zM590 378q-17 0 -33 -4.5t-28.5 -14t-20.5 -24t-8 -33.5q0 -17 7.5 -31t20 -23.5t28.5 -15t34 -5.5
q16 0 32 5.5t29 15t20.5 23.5t7.5 32q0 19 -8 33t-20.5 23.5t-28.5 14t-32 4.5z" />
    <glyph glyph-name="seveneighths" unicode="&#x215e;" horiz-adv-x="760" 
d="M564 414q25 0 48.5 -7t41.5 -21t29 -35t11 -48t-17.5 -53.5t-50.5 -38.5q19 -6 32.5 -17t22.5 -24.5t13 -28t4 -26.5q0 -29 -11 -51t-29.5 -37t-42.5 -23t-50 -8q-25 0 -49 7.5t-42.5 22t-30 36t-11.5 50.5q0 26 17 54.5t55 43.5q-33 11 -50.5 37.5t-17.5 53.5t10.5 48.5
t28.5 35.5t41 21.5t48 7.5zM151 -17h-39l424 731h40zM109 278l167 376h-175v-63h-40v99h260v-33l-168 -379h-44zM565 193q-38 0 -66 -22.5t-28 -59.5q0 -36 26.5 -57.5t67.5 -21.5t67 21t26 59q0 36 -26.5 58.5t-66.5 22.5zM565 378q-17 0 -33 -4.5t-28.5 -14t-20.5 -24
t-8 -33.5q0 -17 7.5 -31t20 -23.5t28.5 -15t34 -5.5q16 0 32 5.5t29 15t20.5 23.5t7.5 32q0 19 -8 33t-20.5 23.5t-28.5 14t-32 4.5z" />
    <glyph glyph-name="uni215F" unicode="&#x215f;" horiz-adv-x="416" 
d="M148 -17h-39l424 731h40zM159 279v363l-70 -50l-23 30l96 68h36v-411h-39z" />
    </font>
</defs>
</svg>
